<?xml version="1.0" encoding="UTF-8"?>
<svg version="1.1" xmlns="http://www.w3.org/2000/svg" width="726" height="308">
<path d="M0 0 C239.58 0 479.16 0 726 0 C726 101.64 726 203.28 726 308 C486.42 308 246.84 308 0 308 C0 206.36 0 104.72 0 0 Z " fill="#FDFDFD" transform="translate(0,0)"/>
<path d="M0 0 C239.58 0 479.16 0 726 0 C726 101.64 726 203.28 726 308 C486.42 308 246.84 308 0 308 C0 206.36 0 104.72 0 0 Z M87.75 37.5625 C80.25070148 48.87931726 80.42672617 60.71676194 80.49829102 73.76245117 C80.49450194 75.73974491 80.48899707 77.71703598 80.48191833 79.69432068 C80.46802601 85.03300131 80.47908846 90.37135742 80.49562955 95.71001983 C80.5095389 101.31118344 80.50301351 106.91232935 80.49949646 112.51350403 C80.49679965 121.91392207 80.51022667 131.31421204 80.53344727 140.71459961 C80.56007682 151.56992651 80.5617947 162.42503967 80.5500589 173.28038806 C80.53926784 183.74448698 80.54547714 194.20850888 80.55961418 204.6726017 C80.5653601 209.11696515 80.56530234 213.56127197 80.56054878 218.00563622 C80.55576492 223.24000325 80.56593909 228.47413714 80.58750343 233.70845985 C80.59305141 235.62523741 80.59355495 237.54203747 80.58855057 239.45881653 C80.58256071 242.08271936 80.59517303 244.7059181 80.61231995 247.32975769 C80.6063099 248.08132824 80.60029986 248.83289878 80.59410769 249.60724419 C80.698704 258.45790109 83.54800811 266.38936252 89.75390625 272.81640625 C98.69978087 281.20206955 109.99223859 283.31848078 121.97350693 283.26006222 C122.83431386 283.26386789 123.69512079 283.26767356 124.58201277 283.27159455 C127.4562467 283.28187188 130.33028171 283.27801131 133.20452881 283.27415466 C135.29018224 283.27860914 137.37583397 283.28392387 139.46148324 283.29002339 C145.18526053 283.30418829 150.90898348 283.30586696 156.63277578 283.30542648 C162.80880447 283.30707598 168.98481084 283.32014488 175.16082764 283.33161926 C187.95856542 283.35326876 200.75628039 283.36187378 213.55403221 283.36665427 C214.24918501 283.36691544 214.94433781 283.36717662 215.66055584 283.36744571 C216.70542394 283.36783612 216.70542394 283.36783612 217.77140049 283.36823442 C225.49819887 283.37131941 233.22499384 283.37782506 240.95178986 283.3844471 C264.29727384 283.40409057 287.64275414 283.42049779 310.98824692 283.42332363 C312.10770488 283.42346472 312.10770488 283.42346472 313.24977815 283.42360866 C316.27410508 283.42398714 319.29843201 283.42435113 322.32275893 283.42471164 C324.59896168 283.42498336 326.87516444 283.42526004 329.15136719 283.42553711 C329.90351175 283.42562513 330.6556563 283.42571315 331.43059312 283.42580384 C355.06281502 283.42870922 378.69495512 283.45080697 402.32714844 283.48706055 C428.88884231 283.52780735 455.45048044 283.55148234 482.01220727 283.55178314 C484.84578721 283.55187996 487.67936715 283.55204668 490.51294708 283.55226326 C491.55946579 283.55232943 491.55946579 283.55232943 492.6271263 283.55239694 C503.84253716 283.55351564 515.05786588 283.57090732 526.27325032 283.59408258 C537.54953351 283.61695109 548.82570748 283.62071026 560.10201523 283.60653328 C566.20794692 283.5993617 572.31359472 283.60023326 578.41949463 283.62294388 C584.01319652 283.64354995 589.60639651 283.6409177 595.20009306 283.62006903 C597.21956122 283.61657737 599.23906572 283.62147032 601.25848624 283.63577347 C613.61794051 283.71764497 625.02604754 283.41753883 635.4375 275.75 C642.82916725 267.81747904 645.2097348 260.66431357 647 250 C647.17330212 249.26544869 647.34660423 248.53089739 647.52515793 247.77408695 C648.11988642 244.29960848 648.14476039 240.89320552 648.14044189 237.38023376 C648.14341302 236.62080414 648.14638414 235.86137451 648.1494453 235.07893187 C648.15810576 232.53820572 648.15963831 229.99752684 648.16113281 227.45678711 C648.16576298 225.63317769 648.1707879 223.80956924 648.17617798 221.98596191 C648.18928751 217.03313125 648.19574447 212.08031413 648.20018864 207.12746882 C648.20312256 204.0299243 648.20722804 200.93238345 648.21169281 197.83484077 C648.22536583 188.1342845 648.23503264 178.43373665 648.2388947 168.7331714 C648.24337083 157.55279804 648.26089889 146.37254721 648.2898953 135.19221109 C648.3115527 126.5397625 648.3216012 117.88734827 648.32293582 109.23487288 C648.32398122 104.07239128 648.32983216 98.91002489 648.34775543 93.74757195 C648.36430569 88.88595213 648.36635801 84.02453326 648.35761642 79.1628952 C648.35684968 77.38605013 648.36114051 75.60919395 648.37107468 73.83237648 C648.43705458 61.2877042 648.49813008 48.13658703 640 38 C628.71185071 26.64316015 616.30631869 24.72039521 600.86540261 24.59906515 C598.03819016 24.5939211 595.21121691 24.60298173 592.38401794 24.61231995 C590.31467226 24.60814122 588.24532887 24.60266075 586.17598969 24.59600013 C580.52048396 24.58159809 574.86512462 24.58577382 569.20961106 24.59316695 C563.09842649 24.5979092 556.98727311 24.58537955 550.87609863 24.57514954 C539.60707828 24.55896919 528.33811654 24.55651144 517.06909127 24.56145453 C506.65763291 24.56601899 496.24619178 24.56540342 485.83473396 24.55961418 C484.4359403 24.5588573 483.03714664 24.55810132 481.63835298 24.55734624 C479.53029283 24.556201 477.42223269 24.55505111 475.31417255 24.55388699 C455.72839814 24.54318967 436.14262946 24.53844903 416.55685329 24.54635715 C415.81929237 24.54665433 415.08173144 24.5469515 414.32182018 24.54725768 C408.3330052 24.5497064 402.34419028 24.5523181 396.35537537 24.55494181 C372.99087725 24.56504644 349.62645099 24.55668164 326.26196289 24.53344727 C299.98772408 24.50736137 273.71352852 24.49452995 247.43927628 24.50163502 C244.63666762 24.50235104 241.83405895 24.50302543 239.03145027 24.50367546 C238.34141939 24.50384527 237.6513885 24.50401508 236.94044759 24.50419003 C226.53686011 24.50649035 216.13331287 24.49852903 205.72973442 24.48538399 C193.89688178 24.47045934 182.06412658 24.47002153 170.23126774 24.4874549 C164.19622782 24.49596974 158.16136762 24.49810222 152.12633705 24.48280334 C146.59765084 24.46896164 141.06929842 24.47371314 135.54063154 24.49304258 C133.54487058 24.49680436 131.54908291 24.49387554 129.55334573 24.48343093 C114.46236751 24.41009298 98.20985014 25.02625281 87.75 37.5625 Z " fill="#FDFEFE" transform="translate(0,0)"/>
<path d="M0 0 C2.06461845 -0.00417617 4.12923461 -0.00965524 6.19384652 -0.01631981 C11.85033829 -0.0307562 17.50668412 -0.02653525 23.16318381 -0.019153 C29.27038856 -0.0144191 35.37756184 -0.02693326 41.48475647 -0.03717041 C52.75268828 -0.05336724 64.02056148 -0.05580442 75.28849823 -0.05086542 C85.70193396 -0.0463034 96.11535244 -0.04691343 106.52878761 -0.05270576 C107.92711693 -0.05346264 109.32544625 -0.05421862 110.72377557 -0.05497371 C112.83110882 -0.05611894 114.93844208 -0.05726882 117.04577532 -0.05843295 C136.63261317 -0.06913458 156.2194453 -0.07386682 175.8062849 -0.06596279 C176.54426822 -0.06566562 177.28225154 -0.06536844 178.04259799 -0.06506227 C184.03501978 -0.06261349 190.02744149 -0.06000182 196.0198632 -0.05737813 C219.38390034 -0.04727986 242.74786559 -0.0556245 266.1118927 -0.07887268 C292.38174378 -0.10497019 318.65155158 -0.11778631 344.9214161 -0.11068493 C347.72496783 -0.10996891 350.52851956 -0.10929452 353.3320713 -0.10864449 C354.02233942 -0.10847468 354.71260754 -0.10830487 355.42379288 -0.10812991 C365.82466119 -0.10583096 376.22548921 -0.11378476 386.6263485 -0.12693596 C398.46248186 -0.14187559 410.29851782 -0.14227976 422.13465741 -0.12486505 C428.17004815 -0.1163608 434.20525933 -0.1141916 440.24064064 -0.1295166 C445.77330405 -0.14339076 451.30563452 -0.13856517 456.83827881 -0.11927737 C458.832164 -0.1155254 460.82607604 -0.11841592 462.81993725 -0.12888902 C492.92601438 -0.27569165 492.92601438 -0.27569165 503.16340637 8.7665863 C503.691922 9.30154724 504.22043762 9.83650818 504.76496887 10.38768005 C505.3141095 10.91232849 505.86325012 11.43697693 506.42903137 11.9775238 C514.12718341 20.03593418 515.91876551 30.32025529 515.90541077 41.10751343 C515.90986745 42.24476446 515.90986745 42.24476446 515.91441417 43.40499026 C515.92305845 45.93560847 515.92460581 48.46617913 515.92610168 50.99681091 C515.93073306 52.81570028 515.93575815 54.63458867 515.94114685 56.45347595 C515.95424617 61.38992043 515.96071154 66.32635133 515.96515751 71.26281047 C515.96809354 74.3521758 515.97219945 77.44153747 515.97666168 80.53090096 C515.99033303 90.21170437 516.00000023 99.89249935 516.00386357 109.57331175 C516.008337 120.71968494 516.02585314 131.86593507 516.05486417 143.01227087 C516.07654719 151.64525376 516.08657145 160.27820221 516.08790469 168.91121203 C516.08894842 174.05868395 516.09476305 179.20604013 516.1127243 184.3534832 C516.12931875 189.20363482 516.13130584 194.05358513 516.1225853 198.90375519 C516.12182084 200.67289078 516.12607841 202.44203771 516.13604355 204.2111454 C516.22069014 220.19032026 515.40576821 236.22730588 504.99934387 249.2353363 C497.54565515 256.41537561 488.37160688 258.54044044 478.41228771 258.52190113 C477.5578492 258.52425336 476.70341068 258.52660559 475.82308009 258.5290291 C472.94043105 258.53572215 470.05782706 258.53526078 467.1751709 258.53485107 C465.09525938 258.53814953 463.01534851 258.54187505 460.93543845 258.54599255 C455.20423775 258.55602313 449.47304753 258.55973106 443.74183929 258.56238186 C437.56637302 258.56628188 431.39091507 258.57586055 425.2154541 258.58459473 C410.99775422 258.60343461 396.78005626 258.61361748 382.56234741 258.62205541 C375.53449663 258.62626244 368.50664671 258.63148443 361.47879666 258.63673994 C337.41620082 258.65463242 313.35360473 258.66962695 289.29100323 258.67706013 C287.7801978 258.67753488 286.26939236 258.67801077 284.75858693 258.67848779 C284.00936855 258.67872417 283.26015017 258.67896054 282.48822821 258.67920408 C278.69237288 258.68040527 274.89651755 258.68162072 271.10066223 258.68284607 C270.34736476 258.68308622 269.59406729 258.68332637 268.81794262 258.6835738 C244.40758264 258.69146245 219.99727132 258.71488414 195.58693258 258.74740201 C169.77271673 258.78172716 143.95852932 258.80141387 118.14429027 258.80470437 C115.3083498 258.8051219 112.47240934 258.80560146 109.63646889 258.80612755 C108.93819209 258.80625074 108.23991529 258.80637393 107.52047859 258.80650086 C96.29868969 258.80882981 85.0769574 258.82447299 73.85518865 258.84496939 C62.56595135 258.86526116 51.27678075 258.87035644 39.98752239 258.86119876 C33.8753376 258.85665589 27.76333607 258.85853985 21.65117645 258.87796021 C16.04921652 258.89560536 10.44757336 258.89458284 4.84561 258.87906291 C2.82528377 258.87668891 0.80493552 258.88099952 -1.2153571 258.89289156 C-30.07984017 259.05219185 -30.07984017 259.05219185 -40.65690613 249.9697113 C-47.99083672 242.61762741 -51.41780437 235.50892645 -51.51184213 225.12400556 C-51.50874493 224.36952217 -51.50564772 223.61503878 -51.50245667 222.83769226 C-51.50698778 222.01444607 -51.51151889 221.19119989 -51.51618731 220.34300685 C-51.52877466 217.60425895 -51.52721462 214.86571136 -51.52555847 212.12693787 C-51.53154728 210.15510301 -51.53835364 208.1832705 -51.5459137 206.21144104 C-51.5635455 200.86829164 -51.56826791 195.52520636 -51.56954527 190.18203068 C-51.57096908 186.83973338 -51.57524307 183.49745227 -51.5805397 180.155159 C-51.59903104 168.48330657 -51.60721148 156.81149976 -51.6056366 145.13963318 C-51.60443562 134.2787501 -51.62553168 123.41806587 -51.65712392 112.5572331 C-51.68332034 103.21682469 -51.69400247 93.87648109 -51.69272578 84.53603625 C-51.69221711 78.96445134 -51.69784745 73.39304321 -51.71908188 67.82149506 C-51.73852079 62.57812499 -51.73855007 57.33509935 -51.72404861 52.09171677 C-51.72196639 50.17457701 -51.72662616 48.25741538 -51.73876953 46.34031296 C-51.81360216 33.70103545 -51.55114589 21.38028958 -43.05143738 11.1337738 C-31.01554786 -0.43621031 -15.57409946 -0.05125346 0 0 Z M362.94010925 25.38920593 C361.96679586 25.38900804 360.99348247 25.38881015 359.99067473 25.38860627 C356.04152354 25.38779506 352.09237236 25.38693927 348.1432212 25.38599847 C306.61390627 25.37654336 265.08464059 25.41032073 223.55536238 25.46347035 C217.6814652 25.47097479 211.80756773 25.47823293 205.93367004 25.4853363 C204.18172384 25.48746143 204.18172384 25.48746143 202.39438478 25.48962949 C183.2302188 25.51224031 164.06610624 25.5130856 144.90193059 25.50656869 C125.04808056 25.50028745 105.19434291 25.5165554 85.34052688 25.55411613 C73.17353403 25.57643273 61.00679823 25.5812765 48.83979706 25.56327669 C40.56611641 25.55271497 32.29264973 25.5640053 24.01901319 25.59284158 C19.25214518 25.60880812 14.48578645 25.61493777 9.71892166 25.59507179 C5.36168716 25.57712191 1.00541928 25.58658494 -3.35172942 25.61821888 C-4.92918984 25.62477644 -6.5067314 25.62113427 -8.08413688 25.60642613 C-15.93253632 25.29031471 -15.93253632 25.29031471 -23.27183414 27.49089116 C-26.78139445 31.12564441 -26.94247245 35.66821353 -26.86994934 40.44055176 C-26.87774929 41.23435964 -26.88554925 42.02816751 -26.89358556 42.84603018 C-26.91347705 45.49719034 -26.89775299 48.14691048 -26.88200378 50.79808044 C-26.88878114 52.70216712 -26.89768493 54.60624723 -26.90855408 56.51031494 C-26.93133837 61.67558353 -26.92251496 66.84035251 -26.90665865 72.00562978 C-26.89399708 77.41118669 -26.90574031 82.81670092 -26.91358948 88.22225952 C-26.92268449 97.29871805 -26.91070112 106.37497312 -26.8868866 115.45140076 C-26.8596675 125.94664812 -26.86849591 136.44140994 -26.89601862 146.93664557 C-26.91870306 155.94742811 -26.92191325 164.95806443 -26.90882528 173.96886629 C-26.9010282 179.35079594 -26.89999651 184.7324973 -26.91650772 190.11441231 C-26.93094374 195.17318028 -26.92094644 200.23132167 -26.89203644 205.2900219 C-26.88542136 207.14719476 -26.88733049 209.00442031 -26.89834976 210.86157227 C-26.91200037 213.39569226 -26.89489736 215.92780047 -26.86994934 218.46179199 C-26.88110295 219.19797904 -26.89225656 219.93416608 -26.90374815 220.69266182 C-26.82860323 224.62336326 -26.35382139 226.24339766 -23.82034874 229.32054806 C-19.56794601 232.72062459 -16.39469176 232.53347382 -11.12895393 232.52748775 C-9.85087947 232.53191489 -9.85087947 232.53191489 -8.54698533 232.53643146 C-5.66053084 232.54516905 -2.7741162 232.54670731 0.11235046 232.54830933 C2.19012616 232.5530371 4.26790094 232.55818757 6.34567463 232.56372696 C12.07982457 232.57767247 17.81396814 232.58522774 23.54813075 232.59169996 C28.46020754 232.59805936 33.37227381 232.608131 38.28434406 232.61826061 C54.46943368 232.65162345 70.65452698 232.67315149 86.83963889 232.69146046 C91.05122932 232.69622676 95.26281945 232.70123566 99.47440958 232.70626569 C125.60370204 232.737307 151.73299703 232.76393214 177.86230278 232.78068447 C183.91758606 232.78462188 189.97286928 232.78863369 196.02815247 232.79270935 C196.78046437 232.79321102 197.53277628 232.79371269 198.30788552 232.79422956 C222.71152206 232.81065559 247.11505848 232.84912312 271.51864574 232.89999645 C296.59459231 232.9521764 321.67048555 232.98499286 346.74648753 232.992262 C350.28552692 232.99329066 353.82456622 232.99452699 357.3636055 232.99588203 C358.06015065 232.99614007 358.7566958 232.99639811 359.47434838 232.99666397 C370.70031404 233.00136554 381.92614805 233.02632739 393.15206437 233.05863346 C404.42792862 233.0906111 415.70364648 233.10016638 426.97956453 233.08820152 C433.09248697 233.08235191 439.20499514 233.08640015 445.31785583 233.11637115 C450.9077286 233.14355553 456.49688927 233.14337017 462.08677663 233.1208607 C464.11504882 233.1176145 466.14336719 233.12464006 468.17156194 233.14265793 C470.91765996 233.1655855 473.66117173 233.15195883 476.4072094 233.12876034 C477.20471975 233.14423657 478.0022301 233.15971281 478.82390743 233.17565802 C481.31003703 233.19463074 481.31003703 233.19463074 484.76496887 232.38768005 C489.23709431 227.19023357 489.91353328 222.67242996 489.90541077 216.06416321 C489.90838189 215.31249284 489.91135301 214.56082247 489.91441417 213.78637421 C489.92310641 211.26007304 489.92460988 208.73381923 489.92610168 206.20750427 C489.9307296 204.39902647 489.93575422 202.59054965 489.94114685 200.78207397 C489.95427805 195.86238311 489.96071757 190.9427059 489.96515751 186.02300024 C489.96808793 182.94860621 489.97219274 179.87421591 489.97666168 176.79982376 C489.99034039 167.17882329 490.00000442 157.55783134 490.00386357 147.93682182 C490.00834115 136.8350687 490.02587355 125.73343891 490.05486417 114.63172328 C490.07649752 106.04900037 490.08656879 97.46631209 490.08790469 88.88356221 C490.08895181 83.75859344 490.09483952 78.63374054 490.1127243 73.50880051 C490.12923285 68.68415091 490.13134695 63.8597039 490.1225853 59.03503609 C490.12181633 57.26822046 490.12613904 55.50139382 490.13604355 53.73460579 C490.74630625 39.65052501 490.74630625 39.65052501 484.95246887 27.38768005 C480.01789358 25.13187421 474.71158925 25.26494432 469.37510395 25.27403069 C468.65132525 25.27387262 467.92754655 25.27371455 467.18183516 25.2735517 C464.76520606 25.27421213 462.34865335 25.28200807 459.93203735 25.28974915 C458.19405562 25.29159981 456.45607334 25.29299005 454.71809089 25.29395604 C450.96434911 25.29698729 447.21063025 25.30315931 443.45689714 25.31176209 C437.40395764 25.32560057 431.35102167 25.33260422 425.29806995 25.3385601 C418.92090238 25.34517929 412.54373732 25.3523524 406.16657346 25.36195815 C391.75773845 25.3836596 377.34895974 25.39244535 362.94010925 25.38920593 Z " fill="#33547A" transform="translate(132.2350311279297,24.612319946289063)"/>
<path d="M0 0 C0.80791489 -0.00004028 1.61582977 -0.00008057 2.44822693 -0.00012207 C4.15705138 0.00522826 5.8658756 0.02279052 7.57446289 0.05175781 C10.15134632 0.093231 12.72557675 0.09285273 15.30273438 0.0859375 C24.47025387 0.12161396 32.83168591 0.72266948 41.62109375 3.59375 C42.60956299 3.90417236 43.59803223 4.21459473 44.61645508 4.53442383 C51.00865098 6.60448201 56.33043855 9.46200022 61.62109375 13.59375 C62.22566406 14.06039062 62.83023438 14.52703125 63.453125 15.0078125 C74.34658411 24.59799095 78.89934245 39.65246107 79.96484375 53.6171875 C80.86758903 71.54880156 75.03659761 89.54691698 62.99609375 103.03125 C48.21368819 116.48813771 26.98095325 118.73729057 7.93359375 118.90625 C6.28133789 118.94975586 6.28133789 118.94975586 4.59570312 118.99414062 C-1.49411281 119.0419183 -5.78637138 119.06757637 -10.37890625 114.59375 C-13.8099797 109.27537351 -13.81803402 104.65592198 -13.79882812 98.53686523 C-13.80729767 97.53940277 -13.81576721 96.54194031 -13.82449341 95.51425171 C-13.8478371 92.22681837 -13.84888637 88.93985359 -13.84765625 85.65234375 C-13.85475792 83.36360995 -13.86245692 81.07487794 -13.87072754 78.78614807 C-13.88416524 73.99385626 -13.88574358 69.20172919 -13.87988281 64.40942383 C-13.87397868 58.26667931 -13.90461197 52.12472295 -13.94499969 45.982131 C-13.97083599 41.25779456 -13.97375794 36.53364914 -13.97010803 31.80925179 C-13.97180218 29.54421058 -13.98147292 27.27916083 -13.99925232 25.01418877 C-14.02136743 21.84933327 -14.01177807 18.68608983 -13.99414062 15.52124023 C-14.00740387 14.58551682 -14.02066711 13.6497934 -14.03433228 12.68571472 C-13.97620782 8.20088812 -13.83294254 6.2029936 -11.08204651 2.51173401 C-7.44372788 -0.06979573 -4.30202926 -0.09186932 0 0 Z " fill="#33547A" transform="translate(165.37890625,91.40625)"/>
<path d="M0 0 C1.54880859 -0.02320312 1.54880859 -0.02320312 3.12890625 -0.046875 C9.80550598 -0.01285411 14.17184255 1.13342599 19.875 4.5 C20.761875 4.82613281 21.64875 5.15226562 22.5625 5.48828125 C31.72673759 9.4976352 38.54633159 18.76430646 42.125 27.8125 C49.22050362 46.80169616 47.00677907 76.36001741 39.484375 94.93359375 C34.01275251 106.69758211 26.66695865 113.83969112 14.375 118.375 C2.11717214 121.57940854 -10.98909602 120.56014664 -22.125 114.5 C-33.63106838 107.46057307 -40.45004465 97.31061109 -43.65551758 84.35595703 C-44.26375106 80.65594911 -44.30708266 77.00094679 -44.328125 73.26171875 C-44.33382507 72.46329056 -44.33952515 71.66486237 -44.34539795 70.84223938 C-44.35482619 69.15029208 -44.36137327 67.45832659 -44.36523438 65.76635742 C-44.37482443 63.23386298 -44.4058184 60.7022221 -44.4375 58.16992188 C-44.54673462 41.65587244 -43.24832078 25.67871701 -32.125 12.5 C-31.465 12.5 -30.805 12.5 -30.125 12.5 C-30.125 11.84 -30.125 11.18 -30.125 10.5 C-28.7265625 9.1328125 -28.7265625 9.1328125 -26.75 7.625 C-25.81027344 6.88636719 -25.81027344 6.88636719 -24.8515625 6.1328125 C-16.68394609 1.24160382 -9.456609 -0.14274127 0 0 Z " fill="#E4753A" transform="translate(528.125,90.5)"/>
<path d="M0 0 C11.13288435 5.66765022 14.71444581 18.48558499 18.72705078 29.49267578 C22.10498872 38.61974432 26.29621201 47.29452835 30.58203125 56.0234375 C36 67.10137899 36 67.10137899 36 71 C36.66 71 37.32 71 38 71 C38.11843262 70.12625732 38.23686523 69.25251465 38.35888672 68.35229492 C38.98663739 65.06987127 39.92647747 62.41904964 41.2578125 59.36328125 C41.70672852 58.31865723 42.15564453 57.2740332 42.61816406 56.19775391 C43.07416992 55.14249512 43.53017578 54.08723633 44 53 C44.81388899 51.03680696 45.62387131 49.07198915 46.4296875 47.10546875 C64.11656538 4.23013565 64.11656538 4.23013565 72 0 C75.40681543 -0.55747889 77.72313302 -0.77411846 80.74609375 1.05859375 C82.94158049 2.83288399 84.72810997 4.45621994 86 7 C86.11512488 8.97992058 86.1669218 10.96364054 86.18945312 12.94677734 C86.20617065 14.19502289 86.22288818 15.44326843 86.2401123 16.7293396 C86.24679428 17.39831646 86.25347626 18.06729332 86.26036072 18.75654221 C86.28138916 20.84979025 86.3084136 22.94288418 86.33703613 25.03604126 C86.39675032 29.48230149 86.44887032 33.92863388 86.5 38.375 C86.55926984 43.52037135 86.62164754 48.66566728 86.69187927 53.81090164 C86.71840325 55.87149891 86.73925109 57.93210392 86.7598877 59.99276733 C86.77660522 61.2473172 86.79332275 62.50186707 86.81054688 63.79443359 C86.82307495 64.89870697 86.83560303 66.00298035 86.84851074 67.14071655 C86.97941983 69.61155962 87.34506413 71.63331364 88 74 C88.09273334 76.0765269 88.13068341 78.15577959 88.1328125 80.234375 C88.13410156 81.44867188 88.13539063 82.66296875 88.13671875 83.9140625 C88.13285156 85.17992187 88.12898438 86.44578125 88.125 87.75 C88.12886719 89.00039062 88.13273437 90.25078125 88.13671875 91.5390625 C88.11866246 108.6203163 88.11866246 108.6203163 85.125 112.3125 C84.42375 112.869375 83.7225 113.42625 83 114 C82.5875 114.5775 82.175 115.155 81.75 115.75 C79.29499701 117.50357356 76.95843006 117.52762752 74.00390625 117.4296875 C70.64067274 116.70852632 69.05698409 114.61797976 67 112 C65.73406561 109.46813122 65.84081806 107.65025209 65.79467773 104.81591797 C65.7647599 103.19446365 65.7647599 103.19446365 65.73423767 101.54025269 C65.71752518 100.36939117 65.70081268 99.19852966 65.68359375 97.9921875 C65.66281265 96.79643097 65.64203156 95.60067444 65.62062073 94.36868286 C65.55507711 90.53751536 65.49621782 86.70627762 65.4375 82.875 C65.39431937 80.28254473 65.35070523 77.69009664 65.30664062 75.09765625 C65.19939081 68.73184573 65.0976334 62.36596487 65 56 C64.7353595 56.81603699 64.47071899 57.63207397 64.19805908 58.47283936 C63.84556091 59.54753479 63.49306274 60.62223022 63.12988281 61.72949219 C62.60917206 63.32479767 62.60917206 63.32479767 62.07794189 64.95233154 C60.66298168 68.95285294 58.82682766 72.56148428 56.75 76.25 C55.95753989 77.69286147 55.16722966 79.13690549 54.37890625 80.58203125 C53.9833252 81.30600098 53.58774414 82.0299707 53.18017578 82.77587891 C51.99016504 85.01853464 50.87354788 87.284381 49.77734375 89.57421875 C49.42510742 90.30672852 49.07287109 91.03923828 48.70996094 91.79394531 C48.04351561 93.19112535 47.38613696 94.59267753 46.73925781 95.99902344 C45.44676951 98.68745428 44.43780786 100.686068 41.984375 102.4453125 C38.67907917 103.36923378 36.29040039 102.86589484 33 102 C24.73016599 95.54549541 20.54222062 85.27549496 16.75 75.8125 C16.316875 74.75869141 15.88375 73.70488281 15.4375 72.61914062 C13.46427037 67.7865551 11.61628097 62.96526994 10 58 C9.97494385 59.21469971 9.9498877 60.42939941 9.92407227 61.6809082 C9.82913259 66.23405574 9.72913165 70.78708106 9.62768555 75.34008789 C9.58466105 77.30197265 9.54296679 79.26388708 9.50268555 81.22583008 C8.91943589 109.51703889 8.91943589 109.51703889 6.0625 114.125 C2.56547043 117.30411779 -0.14950723 117.3924154 -4.73828125 117.35546875 C-8.35701199 116.78672178 -9.88030223 114.84834388 -12 112 C-12.91237894 109.26286319 -13.13271373 107.6270247 -13.15390015 104.80729675 C-13.16250061 103.95360001 -13.17110107 103.09990326 -13.17996216 102.22033691 C-13.18422211 101.28677368 -13.18848206 100.35321045 -13.19287109 99.39135742 C-13.20104858 98.4056929 -13.20922607 97.42002838 -13.21765137 96.40449524 C-13.24249223 93.13815926 -13.25901705 89.87186667 -13.2734375 86.60546875 C-13.27876118 85.49038752 -13.28408485 84.37530628 -13.28956985 83.22643471 C-13.31629423 77.32568677 -13.33567248 71.42495995 -13.35009766 65.52416992 C-13.36675449 59.42746452 -13.41154355 53.33129871 -13.4624691 47.23479748 C-13.49610843 42.54819613 -13.50767142 37.86172348 -13.51332474 33.17501259 C-13.52004503 30.92752261 -13.53528715 28.68004133 -13.55921555 26.43266869 C-13.5908012 23.2869387 -13.59091347 20.14267282 -13.58349609 16.99682617 C-13.59990143 16.06933563 -13.61630676 15.14184509 -13.63320923 14.18624878 C-13.59107284 9.81908711 -13.38893431 6.90820116 -10.58853149 3.43769836 C-6.93104279 -0.00666932 -5.00876723 -0.56703025 0 0 Z " fill="#37567C" transform="translate(374,92)"/>
<path d="M0 0 C0.69320343 -0.00525696 1.38640686 -0.01051392 2.10061646 -0.01593018 C4.38778348 -0.0291126 6.67425189 -0.0203969 8.96142578 -0.01025391 C10.55559421 -0.01227562 12.14976173 -0.01518787 13.743927 -0.01895142 C17.0845826 -0.02337276 20.42499742 -0.01695169 23.765625 -0.00292969 C28.03837775 0.01413451 32.310564 0.00433768 36.58329582 -0.01364708 C39.87594836 -0.02451387 43.16846776 -0.02102487 46.46112442 -0.0132637 C48.03592115 -0.01126824 49.61073013 -0.01369792 51.18551254 -0.02070236 C53.39222722 -0.0283617 55.59803963 -0.01665009 57.8046875 0 C59.05837128 0.00238678 60.31205505 0.00477356 61.60372925 0.00723267 C65.40126024 0.42924817 67.79846874 1.37655763 71.03173828 3.38818359 C73.49102572 7.07711476 73.72479407 10.10459781 73.03173828 14.38818359 C70.90725558 17.83131073 69.88321187 19.10435907 66.03173828 20.38818359 C64.14517013 20.47671178 62.25558304 20.50580582 60.36694336 20.50170898 C59.20596634 20.50163345 58.04498932 20.50155792 56.84883118 20.5014801 C54.96903816 20.49373817 54.96903816 20.49373817 53.05126953 20.48583984 C51.12658089 20.48371742 51.12658089 20.48371742 49.16300964 20.48155212 C45.75503587 20.47773765 42.34710485 20.4679165 38.93914795 20.45684814 C35.46025176 20.44661103 31.98134844 20.44199476 28.50244141 20.43701172 C21.67883596 20.42682419 14.85534786 20.40724987 8.03173828 20.38818359 C8.03173828 29.29818359 8.03173828 38.20818359 8.03173828 47.38818359 C13.46707031 47.31857422 13.46707031 47.31857422 19.01220703 47.24755859 C22.52366739 47.21635907 26.03511228 47.1920734 29.54663086 47.16845703 C31.98615435 47.14834795 34.42562968 47.12105676 36.86499023 47.08642578 C40.37251676 47.0378787 43.87940571 47.01520728 47.38720703 46.99755859 C48.47696335 46.97691345 49.56671967 46.95626831 50.6894989 46.93499756 C58.26534863 46.93275509 58.26534863 46.93275509 62.20874023 49.27612305 C65.17335757 52.71082301 65.30004168 55.96906879 65.03173828 60.38818359 C63.82040125 63.55111918 62.9691945 64.86858577 60.01611328 66.50537109 C55.78208386 67.75784577 51.79858247 67.63850275 47.40673828 67.57568359 C46.46556152 67.56923828 45.52438477 67.56279297 44.5546875 67.55615234 C32.37296511 67.42956844 20.20242423 66.89006755 8.03173828 66.38818359 C8.03173828 76.61818359 8.03173828 86.84818359 8.03173828 97.38818359 C12.14900391 97.34177734 16.26626953 97.29537109 20.50830078 97.24755859 C23.80126969 97.22181576 27.09420998 97.20013139 30.38722229 97.18118286 C33.85796461 97.16010226 37.32831311 97.13195553 40.79882812 97.08642578 C44.78526987 97.03445774 48.77155353 97.01520226 52.75830078 96.99755859 C53.99601227 96.97691345 55.23372375 96.95626831 56.50894165 96.93499756 C62.96012737 96.93331842 67.16440946 96.94553533 72.03173828 101.38818359 C73.67330564 103.02975095 73.3198982 104.8803416 73.40673828 107.13818359 C73.35721533 110.98446586 73.18867249 112.15516007 70.96923828 115.45068359 C65.96574116 118.75086254 60.31686649 118.51320314 54.45727539 118.53344727 C52.5651255 118.54301704 52.5651255 118.54301704 50.63475037 118.55278015 C49.27619465 118.55430867 47.91763841 118.55542272 46.55908203 118.55615234 C45.14856432 118.5593705 43.73804694 118.56273498 42.32752991 118.5662384 C39.38151271 118.57220298 36.43552475 118.57408091 33.48950195 118.57348633 C29.72476814 118.5733845 25.96022207 118.58706946 22.1955328 118.60425854 C19.28637335 118.61540094 16.37725912 118.6174049 13.46808052 118.6168766 C12.08028068 118.61805207 10.6924795 118.62244943 9.30470085 118.63020897 C7.3620944 118.64005993 5.41943226 118.63585344 3.47680664 118.63110352 C2.37429062 118.63252853 1.2717746 118.63395355 0.135849 118.63542175 C-4.59951992 118.25825612 -7.93344567 117.45096764 -11.28076172 114.01318359 C-13.59502802 110.41321379 -14.09101205 107.45691898 -14.10870361 103.2270813 C-14.11441376 102.4056665 -14.1201239 101.58425171 -14.12600708 100.73794556 C-14.12712494 99.84538055 -14.1282428 98.95281555 -14.12939453 98.03320312 C-14.13435944 97.08640686 -14.13932434 96.1396106 -14.1444397 95.16412354 C-14.15904073 92.03307366 -14.16585946 88.90207442 -14.17138672 85.77099609 C-14.17713931 83.59390257 -14.18289703 81.41680907 -14.18865967 79.23971558 C-14.19916341 74.67510746 -14.20501037 70.11051693 -14.20849609 65.54589844 C-14.21398333 59.6993515 -14.23801905 53.85303715 -14.26646805 48.00656319 C-14.28509739 43.5095451 -14.29030016 39.01258305 -14.29183197 34.51552963 C-14.29485771 32.36017458 -14.30288355 30.20482049 -14.31601715 28.04950333 C-14.3330856 25.03347334 -14.33119545 22.01801191 -14.32470703 19.00195312 C-14.33392181 18.11343658 -14.3431366 17.22492004 -14.35263062 16.30947876 C-14.31240085 10.3351046 -13.48198692 6.04360112 -9.21627808 1.53744507 C-6.06379824 -0.07420852 -3.53381037 0.00673626 0 0 Z " fill="#335379" transform="translate(271.96826171875,91.61181640625)"/>
<path d="M0 0 C28.74584323 0 28.74584323 0 39.90234375 9.64453125 C48.76990119 18.54958365 49.35398042 29.86613049 49.38061523 41.75683594 C49.18349503 52.54997502 46.71728858 62.72112945 39.375 70.9375 C38.59125 71.618125 37.8075 72.29875 37 73 C36.54625 73.53625 36.0925 74.0725 35.625 74.625 C25.76095079 82.97150317 11.66041406 79 0 79 C0 52.93 0 26.86 0 0 Z " fill="#FBFCFD" transform="translate(173,110)"/>
<path d="M0 0 C6.19608126 3.53399246 10.75267456 7.33586011 13.359375 14.11328125 C16.57778655 30.20533901 18.282425 51.54602292 10.234375 66.30078125 C5.52843862 71.97558688 1.46229729 76.20543053 -6.2109375 77.1484375 C-12.94988468 77.3913776 -20.35070923 76.74738105 -25.74609375 72.3515625 C-31.8807418 65.61102328 -33.35386942 58.93977896 -33.32421875 50.08984375 C-33.3294606 49.16666351 -33.33470245 48.24348328 -33.34010315 47.29232788 C-33.34650019 45.34756471 -33.34521652 43.40276273 -33.33666992 41.45800781 C-33.32816979 38.50384616 -33.35693785 35.55162686 -33.38867188 32.59765625 C-33.39028454 30.69921932 -33.38970511 28.80077901 -33.38671875 26.90234375 C-33.39795273 26.03018219 -33.40918671 25.15802063 -33.42076111 24.25942993 C-33.34445977 17.4465353 -31.91402204 11.14747854 -27.18309021 6.00845337 C-25.4975781 4.4718285 -23.76665399 3.15823932 -21.890625 1.86328125 C-20.59125 0.93515625 -20.59125 0.93515625 -19.265625 -0.01171875 C-12.94028513 -2.12016537 -6.27120235 -2.46610795 0 0 Z " fill="#FDFCFA" transform="translate(537.890625,112.13671875)"/>
<path d="M0 0 C0.33 0 0.66 0 1 0 C1.0154612 1.30212433 1.0154612 1.30212433 1.03123474 2.6305542 C1.12921375 10.81155087 1.23172886 18.99247541 1.33933926 27.17335129 C1.39450271 31.37921308 1.44791213 35.5850819 1.49731445 39.79101562 C1.5450551 43.84998814 1.59740131 47.90887752 1.65294075 51.96775055 C1.67332038 53.5162677 1.69204064 55.0648076 1.70907402 56.61336517 C1.73321547 58.78236613 1.76325636 60.95121117 1.79467773 63.12011719 C1.81022202 64.35477722 1.8257663 65.58943726 1.84178162 66.86151123 C1.97139605 69.43259961 2.24181196 71.55656704 3 74 C3.2475 72.9275 3.495 71.855 3.75 70.75 C5.02944853 66.91165441 5.67596108 65.24597224 9 63 C12.75 62.75 12.75 62.75 16 63 C14.66511872 66.59391114 13.03977277 69.75490696 11 73 C14.53408185 71.03662119 17.54452766 69.2447313 20 66 C20.62228171 63.29826024 20.81441733 60.78374003 21 58 C21.33 58 21.66 58 22 58 C22 67.9 22 77.8 22 88 C26.11726563 87.95359375 30.23453125 87.9071875 34.4765625 87.859375 C37.76953141 87.83363217 41.0624717 87.8119478 44.35548401 87.79299927 C47.82622632 87.77191866 51.29657482 87.74377193 54.76708984 87.69824219 C58.75353159 87.64627415 62.73981525 87.62701867 66.7265625 87.609375 C67.96427399 87.58872986 69.20198547 87.56808472 70.47720337 87.54681396 C76.92838909 87.54513483 81.13267118 87.55735174 86 92 C87.64156736 93.64156736 87.28815992 95.49215801 87.375 97.75 C87.32547705 101.59628227 87.15693421 102.76697647 84.9375 106.0625 C79.93400288 109.36267895 74.2851282 109.12501955 68.42553711 109.14526367 C66.53338722 109.15483345 66.53338722 109.15483345 64.60301208 109.16459656 C63.24445637 109.16612508 61.88590013 109.16723912 60.52734375 109.16796875 C59.11682604 109.1711869 57.70630866 109.17455139 56.29579163 109.17805481 C53.34977443 109.18401939 50.40378647 109.18589731 47.45776367 109.18530273 C43.69302986 109.18520091 39.92848379 109.19888587 36.16379452 109.21607494 C33.25463507 109.22721734 30.34552084 109.22922131 27.43634224 109.22869301 C26.0485424 109.22986848 24.66074122 109.23426584 23.27296257 109.24202538 C21.33035612 109.25187633 19.38769398 109.24766985 17.44506836 109.24291992 C16.34255234 109.24434494 15.24003632 109.24576996 14.10411072 109.24723816 C9.36874179 108.87007252 6.03481605 108.06278405 2.6875 104.625 C0.36076509 101.00563458 -0.1257068 98.05130319 -0.12025452 93.79852295 C-0.12162918 92.96843719 -0.12300385 92.13835144 -0.12442017 91.28311157 C-0.11902725 89.93012466 -0.11902725 89.93012466 -0.11352539 88.54980469 C-0.11367142 87.59337067 -0.11381744 86.63693665 -0.1139679 85.65151978 C-0.11327148 82.49161508 -0.10549174 79.3317694 -0.09765625 76.171875 C-0.09579111 73.98040804 -0.09436766 71.78894067 -0.09336853 69.59747314 C-0.08955094 63.83039193 -0.07972709 58.06333591 -0.06866455 52.29626465 C-0.05843416 46.4110549 -0.05386742 40.52584108 -0.04882812 34.640625 C-0.03810417 23.09373893 -0.02103681 11.54687156 0 0 Z " fill="#34557B" transform="translate(258,101)"/>
<path d="M0 0 C3.93203381 2.10318088 5.32180825 4.26175845 6.62890625 8.3828125 C8.34277373 14.42581867 8.37157396 20.19543705 8.25 26.4375 C8.24484375 27.49259766 8.2396875 28.54769531 8.234375 29.63476562 C7.99441617 54.00558383 7.99441617 54.00558383 1 61 C-4.00738068 61.87430456 -6.53190837 61.94134115 -10.86328125 59.1640625 C-17.30346112 53.91779961 -23.10027413 48.0749111 -28.6875 41.9375 C-29.45449219 41.10089844 -30.22148438 40.26429688 -31.01171875 39.40234375 C-33.66939221 36.19120587 -34.83907819 33.91189026 -35.5625 29.8125 C-34.72762433 24.15389826 -31.78690461 21.14913027 -28 17 C-27.16597656 16.08476562 -26.33195312 15.16953125 -25.47265625 14.2265625 C-9.46782897 -2.53602562 -9.46782897 -2.53602562 0 0 Z " fill="#4FA3F1" transform="translate(63,126)"/>
<path d="M0 0 C9.8802174 6.45507537 17.16378633 13.72648299 23.32421875 23.78515625 C23.98421875 24.77515625 24.64421875 25.76515625 25.32421875 26.78515625 C25.82615557 30.55744433 25.64138309 32.2795632 23.6015625 35.53125 C22.82941406 36.41941406 22.05726563 37.30757812 21.26171875 38.22265625 C20.44445312 39.16625 19.6271875 40.10984375 18.78515625 41.08203125 C11.72638366 48.83547669 11.72638366 48.83547669 9.32421875 50.78515625 C8.66421875 50.78515625 8.00421875 50.78515625 7.32421875 50.78515625 C7.23140625 51.65140625 7.23140625 51.65140625 7.13671875 52.53515625 C5.8045393 56.22426856 2.74603861 58.07424632 -0.67578125 59.78515625 C-4.38928338 60.1977676 -7.96745886 60.26789644 -11.67578125 59.78515625 C-15.6147631 56.59645666 -16.06460066 53.64881126 -16.67578125 48.78515625 C-16.81009437 45.90013019 -16.81610461 43.02058859 -16.80859375 40.1328125 C-16.80955048 39.31445419 -16.8105072 38.49609589 -16.81149292 37.65293884 C-16.81217072 35.92918826 -16.81034441 34.20543507 -16.80615234 32.48168945 C-16.80080536 29.85947872 -16.80610738 27.23743979 -16.8125 24.61523438 C-16.81183901 22.93359338 -16.81055743 21.25195248 -16.80859375 19.5703125 C-16.81061798 18.79406021 -16.81264221 18.01780792 -16.81472778 17.21803284 C-16.76343857 5.16285552 -16.76343857 5.16285552 -13.80078125 1.41015625 C-9.50465733 -1.87511498 -4.8845896 -2.21767498 0 0 Z " fill="#4FA3F1" transform="translate(673.67578125,126.21484375)"/>
<path d="M0 0 C0.495 1.485 0.495 1.485 1 3 C0.67 3.33 0.34 3.66 0 4 C1.32 4.66 2.64 5.32 4 6 C3.67 6.66 3.34 7.32 3 8 C1.3603125 7.9071875 1.3603125 7.9071875 -0.3125 7.8125 C-3.92126083 7.64402086 -3.92126083 7.64402086 -5.9375 9.5 C-6.288125 9.995 -6.63875 10.49 -7 11 C-6.505 12.485 -6.505 12.485 -6 14 C-5.57093351 17.66030799 -5.30254624 21.32622422 -5 25 C-4.67 21.37 -4.34 17.74 -4 14 C-3.67 14 -3.34 14 -3 14 C-2.9730499 16.93756119 -2.95318526 19.87487555 -2.9375 22.8125 C-2.92912109 23.64587891 -2.92074219 24.47925781 -2.91210938 25.33789062 C-2.90888672 26.14033203 -2.90566406 26.94277344 -2.90234375 27.76953125 C-2.89710693 28.50792236 -2.89187012 29.24631348 -2.88647461 30.00708008 C-3 32 -3 32 -4 35 C-20.83 35 -37.66 35 -55 35 C-55 24.77 -55 14.54 -55 4 C-51.52082031 4.02320313 -48.04164063 4.04640625 -44.45703125 4.0703125 C-41.08455775 4.08591341 -37.71208827 4.09805567 -34.33959961 4.10986328 C-31.99713337 4.11991609 -29.65467965 4.1335603 -27.31225586 4.15087891 C-23.94381617 4.17515852 -20.57554253 4.18649042 -17.20703125 4.1953125 C-16.16102249 4.20563507 -15.11501373 4.21595764 -14.03730774 4.22659302 C-13.05666855 4.22674408 -12.07602936 4.22689514 -11.06567383 4.22705078 C-10.20629715 4.231492 -9.34692047 4.23593323 -8.46150208 4.24050903 C-5.6447459 3.96528875 -3.53248415 3.25255478 -1 2 C-0.67 1.34 -0.34 0.68 0 0 Z " fill="#F6F7F7" transform="translate(335,154)"/>
<path d="M0 0 C2.96728289 1.79895674 5.42350428 3.84700857 7 7 C7.09119671 8.90981946 7.11752537 10.82287186 7.11352539 12.73486328 C7.11344986 13.93595734 7.11337433 15.13705139 7.11329651 16.37454224 C7.10813522 17.67664642 7.10297394 18.97875061 7.09765625 20.3203125 C7.09579138 21.66266833 7.0943678 23.00502484 7.09336853 24.34738159 C7.08954878 27.88195675 7.07972312 31.41649087 7.06866455 34.9510498 C7.05843878 38.55720464 7.05386841 42.1633661 7.04882812 45.76953125 C7.03810038 52.84637096 7.02103045 59.9231828 7 67 C6.01 66.67 5.02 66.34 4 66 C-0.83105392 65.72654412 -4.49302254 66.24117953 -9 68 C-9 68.99 -9 69.98 -9 71 C-9.66 71 -10.32 71 -11 71 C-11.33 71.99 -11.66 72.98 -12 74 C-12 68.72 -12 63.44 -12 58 C-11.34 58 -10.68 58 -10 58 C-8.51369062 52.05476247 -7.89428795 47.0589121 -10.8125 41.625 C-13.17493382 38.79007941 -14.78549383 37.20273646 -18.48046875 36.5859375 C-19.37378906 36.51632813 -20.26710938 36.44671875 -21.1875 36.375 C-22.08855469 36.30023438 -22.98960937 36.22546875 -23.91796875 36.1484375 C-24.60503906 36.09945312 -25.29210937 36.05046875 -26 36 C-25.47833571 30.72238331 -24.15138537 26.46568689 -21.8125 21.6875 C-21.50006348 21.03740967 -21.18762695 20.38731934 -20.86572266 19.7175293 C-10.44510462 -1.64922705 -10.44510462 -1.64922705 0 0 Z " fill="#315278" transform="translate(453,92)"/>
<path d="M0 0 C5.94 0 11.88 0 18 0 C18 0.66 18 1.32 18 2 C18.62648438 1.98839844 19.25296875 1.97679687 19.8984375 1.96484375 C20.71570313 1.95582031 21.53296875 1.94679687 22.375 1.9375 C23.18710937 1.92589844 23.99921875 1.91429687 24.8359375 1.90234375 C27 2 27 2 29 3 C28.67 3.66 28.34 4.32 28 5 C25.03 4.34 22.06 3.68 19 3 C19 3.66 19 4.32 19 5 C20.65 5 22.3 5 24 5 C23.01 5.66 22.02 6.32 21 7 C21.78375 7.268125 22.5675 7.53625 23.375 7.8125 C26 9 26 9 28 12 C28.265625 14.12109375 28.265625 14.12109375 28.25 16.4375 C28.25515625 17.19933594 28.2603125 17.96117187 28.265625 18.74609375 C27.9747292 21.21443018 27.22975656 22.857686 26 25 C24.68 25 23.36 25 22 25 C21.34 24.34 20.68 23.68 20 23 C18.63106761 22.94729537 18.63106761 22.94729537 16 24 C16.66 24.66 17.32 25.32 18 26 C18 27.32 18 28.64 18 30 C12.06 30 6.12 30 0 30 C0 20.1 0 10.2 0 0 Z " fill="#F9F9FA" transform="translate(280,159)"/>
<path d="M0 0 C0.66 0.33 1.32 0.66 2 1 C1.7178212 1.53444229 1.4356424 2.06888458 1.14491272 2.61952209 C-1.76520454 8.54625507 -2.60410086 13.37676039 -2.56640625 19.93359375 C-2.57260483 20.85157242 -2.57880341 21.76955109 -2.58518982 22.71534729 C-2.59224841 24.64396106 -2.58918382 26.57263628 -2.57641602 28.5012207 C-2.56254928 31.42710158 -2.59668132 34.34977876 -2.63476562 37.27539062 C-2.73974974 50.88294215 -2.73974974 50.88294215 3 63 C3.495 63.99 3.495 63.99 4 65 C2.68 64.67 1.36 64.34 0 64 C0 65.32 0 66.64 0 68 C-3.7311703 69.86558515 -8.17481315 69.58899088 -12.08203125 68.328125 C-13.74717749 67.60916165 -15.37774964 66.81112518 -17 66 C-16.34 66.99 -15.68 67.98 -15 69 C-15.375 71.1875 -15.375 71.1875 -16 73 C-20.29825844 65.8856412 -23.94446852 59.70669112 -22.57421875 51.17578125 C-21.36579737 46.5969329 -19.38887581 43.19597639 -15.75 40.0625 C-12.02279856 38.6224449 -8.99034618 38.93077971 -5 39 C-5.0407666 38.13721436 -5.0815332 37.27442871 -5.12353516 36.38549805 C-5.26985628 33.18218766 -5.40669002 29.97865233 -5.53710938 26.7746582 C-5.59548391 25.38842526 -5.65763024 24.00234577 -5.72363281 22.61645508 C-5.81788205 20.62365488 -5.8974178 18.63017597 -5.9765625 16.63671875 C-6.05511475 14.83787231 -6.05511475 14.83787231 -6.13525391 13.00268555 C-6 10 -6 10 -4 7 C-3.34 7 -2.68 7 -2 7 C-1.855625 6.030625 -1.71125 5.06125 -1.5625 4.0625 C-1 1 -1 1 0 0 Z " fill="#DE8656" transform="translate(508,119)"/>
<path d="M0 0 C2.79049103 4.18573654 2.38742254 8.31966358 2.47851562 13.1953125 C2.6390616 17.43999137 2.97775715 19.13129355 6 22 C6.58188184 29.73373862 5.13217228 36.48869823 1 43 C-2.21694364 44.60847182 -5.52137222 44.61309149 -9 44 C-11.69105198 41.82425584 -13.45532928 40.08934144 -15 37 C-15.09720427 35.06449136 -15.12977914 33.12544208 -15.125 31.1875 C-15.12757813 30.14980469 -15.13015625 29.11210937 -15.1328125 28.04296875 C-15.01076175 25.24657058 -14.63363355 22.72060121 -14 20 C-13.05125 20.165 -12.1025 20.33 -11.125 20.5 C-8.19831099 21.0526635 -8.19831099 21.0526635 -6 21 C-6.01571045 20.43490723 -6.0314209 19.86981445 -6.04760742 19.28759766 C-6.10987045 16.73349977 -6.14896136 14.17956129 -6.1875 11.625 C-6.21263672 10.73554688 -6.23777344 9.84609375 -6.26367188 8.9296875 C-6.27333984 8.07890625 -6.28300781 7.228125 -6.29296875 6.3515625 C-6.31653442 5.17327881 -6.31653442 5.17327881 -6.34057617 3.97119141 C-6.22818604 3.32069824 -6.1157959 2.67020508 -6 2 C-3 0 -3 0 0 0 Z " fill="#325277" transform="translate(455,165)"/>
<path d="M0 0 C1.21751953 0.00064453 2.43503906 0.00128906 3.68945312 0.00195312 C12.63974181 0.0465806 12.63974181 0.0465806 16.0625 1.1875 C18.59969316 1.28686696 21.10950352 1.32970371 23.64686871 1.3261652 C24.43035888 1.32900742 25.21384906 1.33184964 26.02108136 1.33477798 C28.66825475 1.34315483 31.31538454 1.34439553 33.96257019 1.34571838 C35.87081819 1.3502817 37.77906518 1.35528138 39.68731099 1.36068195 C44.94805785 1.37429871 50.20879822 1.38169163 55.46955812 1.38810861 C61.13623275 1.39609705 66.80289382 1.40980016 72.46955872 1.42282104 C82.29310368 1.44460592 92.11665 1.46274304 101.94020653 1.47842598 C116.14354729 1.50110632 130.34687304 1.52925167 144.5502011 1.55874526 C167.59229884 1.60644372 190.63440225 1.6497103 213.67651367 1.69018555 C236.06421384 1.7295218 258.45190858 1.77094102 280.83959961 1.81518555 C281.52945886 1.81654808 282.21931811 1.81791061 282.93008219 1.81931442 C289.85781418 1.83299958 296.78554607 1.84672714 303.71327791 1.86048577 C361.82967374 1.97590224 419.94608148 2.08416061 478.0625 2.1875 C478.0625 2.5175 478.0625 2.8475 478.0625 3.1875 C312.4025 3.1875 146.7425 3.1875 -23.9375 3.1875 C-23.9375 2.8575 -23.9375 2.5275 -23.9375 2.1875 C-15.92043492 0.15238999 -8.24192378 -0.08478427 0 0 Z " fill="#2E4D68" transform="translate(134.9375,46.8125)"/>
<path d="M0 0 C1.85811 2.787165 3.22897347 5.46303 4.625 8.5 C5.07101562 9.4590625 5.51703125 10.418125 5.9765625 11.40625 C7 14 7 14 7 17 C7.66 17 8.32 17 9 17 C9.12375 16.05125 9.2475 15.1025 9.375 14.125 C10 11 10 11 12 9 C12.33 9.66 12.66 10.32 13 11 C13.99 11.33 14.98 11.66 16 12 C17.125 16.75 17.125 16.75 16 19 C11.05 19 6.1 19 1 19 C1.33 22.96 1.66 26.92 2 31 C5.74691447 32.39770584 5.74691447 32.39770584 8 31 C8.73075648 28.6859378 9.40138258 26.35171131 10 24 C11.98 24 13.96 24 16 24 C17.16343227 26.32686453 17.19895988 27.84721413 17.25 30.4375 C17.27578125 31.21996094 17.3015625 32.00242188 17.328125 32.80859375 C16.92393381 35.50801348 16.15326907 36.37459544 14 38 C13.34 38 12.68 38 12 38 C12 38.66 12 39.32 12 40 C9.11584117 41.44207941 6.58278472 41.09394887 3.375 41.0625 C2.18648438 41.05347656 0.99796875 41.04445312 -0.2265625 41.03515625 C-1.14179688 41.02355469 -2.05703125 41.01195312 -3 41 C-7.83971018 33.57160763 -7.30364883 27.14746737 -6.75 18.5 C-6.68425781 17.200625 -6.61851562 15.90125 -6.55078125 14.5625 C-6.38663757 11.37342275 -6.20252048 8.18683168 -6 5 C-4.02 4.67 -2.04 4.34 0 4 C0 2.68 0 1.36 0 0 Z " fill="#4E6A8C" transform="translate(403,146)"/>
<path d="M0 0 C2.45389226 3.6808384 2.26853779 6.43051278 2.22705078 10.68432617 C2.22734283 11.4650499 2.22763489 12.24577362 2.22793579 13.05015564 C2.22654224 15.63120633 2.21097993 18.21196848 2.1953125 20.79296875 C2.19158246 22.58229922 2.18873544 24.37163173 2.18673706 26.16096497 C2.1790999 30.87101885 2.15945069 35.58094943 2.1373291 40.29095459 C2.11687247 45.09694755 2.10773573 49.90296043 2.09765625 54.70898438 C2.07620489 64.1393771 2.04206792 73.5696783 2 83 C2.99 82.01 2.99 82.01 4 81 C4.33 82.65 4.66 84.3 5 86 C6.37616443 85.93883714 7.75109379 85.84975557 9.125 85.75 C9.89070313 85.70359375 10.65640625 85.6571875 11.4453125 85.609375 C14.85127205 84.79694428 17.18785143 83.03778882 20 81 C20.11660824 84.39554235 20.18738372 87.79056679 20.25 91.1875 C20.30027344 92.62706055 20.30027344 92.62706055 20.3515625 94.09570312 C20.45069252 101.25784723 20.45069252 101.25784723 18.109375 105.11328125 C15.22778196 107.69070613 13.47881565 108.20932906 9.6875 108.375 C8.92824219 108.42398438 8.16898437 108.47296875 7.38671875 108.5234375 C3.6307182 107.69969925 2.33458254 106.02664686 0 103 C-0.71765906 99.65744214 -0.63242955 96.38444132 -0.56762695 92.97729492 C-0.56835709 91.97194702 -0.56908722 90.96659912 -0.56983948 89.93078613 C-0.56636082 86.61346158 -0.5274847 83.2975475 -0.48828125 79.98046875 C-0.47895416 77.67833727 -0.47183756 75.37619586 -0.46684265 73.0740509 C-0.44776493 67.01901786 -0.39865639 60.96458585 -0.34332275 54.90979004 C-0.29214761 48.72965628 -0.26933225 42.54942526 -0.24414062 36.36914062 C-0.19053928 24.24582988 -0.10521626 12.12296495 0 0 Z " fill="#335176" transform="translate(362,101)"/>
<path d="M0 0 C0.33 0 0.66 0 1 0 C1.0154612 1.30212433 1.0154612 1.30212433 1.03123474 2.6305542 C1.12921375 10.81155087 1.23172886 18.99247541 1.33933926 27.17335129 C1.39450271 31.37921308 1.44791213 35.5850819 1.49731445 39.79101562 C1.5450551 43.84998814 1.59740131 47.90887752 1.65294075 51.96775055 C1.67332038 53.5162677 1.69204064 55.0648076 1.70907402 56.61336517 C1.73321547 58.78236613 1.76325636 60.95121117 1.79467773 63.12011719 C1.81022202 64.35477722 1.8257663 65.58943726 1.84178162 66.86151123 C1.97139605 69.43259961 2.24181196 71.55656704 3 74 C3.2475 72.9275 3.495 71.855 3.75 70.75 C5.02944853 66.91165441 5.67596108 65.24597224 9 63 C12.75 62.75 12.75 62.75 16 63 C14.66511872 66.59391114 13.03977277 69.75490696 11 73 C14.53408185 71.03662119 17.54452766 69.2447313 20 66 C20.62228171 63.29826024 20.81441733 60.78374003 21 58 C21.33 58 21.66 58 22 58 C22 67.9 22 77.8 22 88 C9 87 9 87 4 84 C3.67 83.34 3.34 82.68 3 82 C1.5192152 84.9615696 1.64685963 87.83506295 1.4375 91.125 C1.35371094 92.40632813 1.26992188 93.68765625 1.18359375 95.0078125 C1.12300781 95.99523437 1.06242187 96.98265625 1 98 C0.67 98 0.34 98 0 98 C0 65.66 0 33.32 0 0 Z " fill="#677D97" transform="translate(258,101)"/>
<path d="M0 0 C0.66 0.99 1.32 1.98 2 3 C4.5417707 3.16671852 4.5417707 3.16671852 7 3 C9.64718609 5.64718609 8.22998643 13.1846477 8.24023438 16.99047852 C8.24988385 19.16136818 8.28086558 21.33128821 8.3125 23.50195312 C8.3190357 24.89061939 8.32428394 26.27929242 8.328125 27.66796875 C8.34214355 29.55938599 8.34214355 29.55938599 8.35644531 31.48901367 C7.85934351 36.38546639 6.14292895 39.64277188 3 43.375 C-1.45089137 45.78589949 -6.03660142 45.85284403 -11 45 C-12.8359375 43.47265625 -12.8359375 43.47265625 -14 42 C-13.38125 41.7525 -12.7625 41.505 -12.125 41.25 C-9.52097822 39.71822248 -9.24387239 38.72642141 -8 36 C-7.51402344 35.00226563 -7.02804688 34.00453125 -6.52734375 32.9765625 C-6.00269531 31.87054688 -5.47804687 30.76453125 -4.9375 29.625 C-4.41027344 28.52414063 -3.88304687 27.42328125 -3.33984375 26.2890625 C-0.93611201 20.3883566 -0.76254521 14.41275984 -0.4375 8.125 C-0.39431641 7.34125 -0.35113281 6.5575 -0.30664062 5.75 C-0.20146649 3.83349351 -0.10032075 1.91676667 0 0 Z " fill="#4C698C" transform="translate(222,142)"/>
<path d="M0 0 C0.33 0 0.66 0 1 0 C1.05896868 3.14575207 1.09391603 6.2913586 1.125 9.4375 C1.14175781 10.31599609 1.15851563 11.19449219 1.17578125 12.09960938 C1.25785763 23.22095845 -1.09139853 33.3730666 -8.5625 41.9375 C-10.6593457 43.71175406 -12.75379977 45.41934058 -15 47 C-15.66 45.02 -16.32 43.04 -17 41 C-16.34 41 -15.68 41 -15 41 C-14.67 40.01 -14.34 39.02 -14 38 C-13.67 38.99 -13.34 39.98 -13 41 C-12.34 41 -11.68 41 -11 41 C-11 40.34 -11 39.68 -11 39 C-10.34 39 -9.68 39 -9 39 C-9.66 38.01 -10.32 37.02 -11 36 C-13.475 36.495 -13.475 36.495 -16 37 C-16 33.66666667 -16 30.33333333 -16 27 C-16.66 30.3 -17.32 33.6 -18 37 C-18.33 37 -18.66 37 -19 37 C-19.65328305 30.72848268 -18.8721552 26.80650517 -15.38671875 21.53125 C-14 20 -14 20 -11 19 C-11 19.66 -11 20.32 -11 21 C-10.443125 20.34 -9.88625 19.68 -9.3125 19 C-7 17 -7 17 -4.3125 16.6875 C-2 17 -2 17 -1 18 C-0.67 12.06 -0.34 6.12 0 0 Z " fill="#F1F3F5" transform="translate(221,139)"/>
<path d="M0 0 C0.495 1.485 0.495 1.485 1 3 C0.67 3.33 0.34 3.66 0 4 C1.32 4.66 2.64 5.32 4 6 C3.67 6.66 3.34 7.32 3 8 C1.948125 7.9175 0.89625 7.835 -0.1875 7.75 C-4.53763669 8.03525487 -5.9315153 9.02449969 -9 12 C-9.99 11.34 -10.98 10.68 -12 10 C-11.34 8.68 -10.68 7.36 -10 6 C-13.3 6.33 -16.6 6.66 -20 7 C-19.505 9.97 -19.505 9.97 -19 13 C-19.495 12.01 -19.495 12.01 -20 11 C-20.66 11 -21.32 11 -22 11 C-21.505 11.99 -21.505 11.99 -21 13 C-20.91691362 14.37548156 -20.89263984 15.75485796 -20.90234375 17.1328125 C-20.90556641 17.93847656 -20.90878906 18.74414062 -20.91210938 19.57421875 C-20.92467773 20.83685547 -20.92467773 20.83685547 -20.9375 22.125 C-20.94201172 22.97449219 -20.94652344 23.82398438 -20.95117188 24.69921875 C-20.96297126 26.79950909 -20.98090694 28.8997633 -21 31 C-21.99 31 -22.98 31 -24 31 C-24.28875 30.360625 -24.5775 29.72125 -24.875 29.0625 C-25.82823451 26.84793921 -25.82823451 26.84793921 -28 26 C-27.97679687 25.38511719 -27.95359375 24.77023438 -27.9296875 24.13671875 C-27.91164063 23.32847656 -27.89359375 22.52023438 -27.875 21.6875 C-27.85179687 20.88699219 -27.82859375 20.08648437 -27.8046875 19.26171875 C-27.84182678 16.71611424 -27.84182678 16.71611424 -30 14 C-32.56282742 13.27034634 -32.56282742 13.27034634 -35 13 C-34.67 12.34 -34.34 11.68 -34 11 C-34.66 10.67 -35.32 10.34 -36 10 C-36 9.34 -36 8.68 -36 8 C-33.33333333 8 -30.66666667 8 -28 8 C-30.97 7.67 -33.94 7.34 -37 7 C-37 6.34 -37 5.68 -37 5 C-42.94 5 -48.88 5 -55 5 C-55 4.67 -55 4.34 -55 4 C-54.39722733 4.00444122 -53.79445465 4.00888245 -53.17341614 4.01345825 C-46.89550143 4.05773112 -40.61763113 4.08788292 -34.33959961 4.10986328 C-31.99713337 4.11991609 -29.65467965 4.1335603 -27.31225586 4.15087891 C-23.94381617 4.17515852 -20.57554253 4.18649042 -17.20703125 4.1953125 C-16.16102249 4.20563507 -15.11501373 4.21595764 -14.03730774 4.22659302 C-13.05666855 4.22674408 -12.07602936 4.22689514 -11.06567383 4.22705078 C-10.20629715 4.231492 -9.34692047 4.23593323 -8.46150208 4.24050903 C-5.6447459 3.96528875 -3.53248415 3.25255478 -1 2 C-0.67 1.34 -0.34 0.68 0 0 Z " fill="#E6E9EB" transform="translate(335,154)"/>
<path d="M0 0 C0.66 0.33 1.32 0.66 2 1 C1.67 15.85 1.34 30.7 1 46 C0.67 46 0.34 46 0 46 C-0.33 43.03 -0.66 40.06 -1 37 C-1.639375 37.66 -2.27875 38.32 -2.9375 39 C-7.04464253 41.68221553 -10.23379829 41.37381974 -15 41 C-15.33 38.69 -15.66 36.38 -16 34 C-13.36 33.34 -10.72 32.68 -8 32 C-7.97421875 31.13117188 -7.9484375 30.26234375 -7.921875 29.3671875 C-7.34263501 17.59808413 -7.34263501 17.59808413 -3 13 C-2.01 12.67 -1.02 12.34 0 12 C0 8.04 0 4.08 0 0 Z " fill="#607C9A" transform="translate(382,146)"/>
<path d="M0 0 C0.33 0 0.66 0 1 0 C1 3.63 1 7.26 1 11 C0.01 11 -0.98 11 -2 11 C-2.01981934 11.83249268 -2.03963867 12.66498535 -2.06005859 13.52270508 C-2.13820742 16.614765 -2.22490206 19.70643383 -2.31738281 22.7980957 C-2.37444092 24.7929536 -2.42164442 26.7880854 -2.46875 28.78320312 C-2.52675781 30.66362305 -2.52675781 30.66362305 -2.5859375 32.58203125 C-2.6173584 33.73936768 -2.6487793 34.8967041 -2.68115234 36.08911133 C-3 39 -3 39 -5 42 C-8.125 42.1875 -8.125 42.1875 -11 42 C-11.66 40.68 -12.32 39.36 -13 38 C-14.32 38.66 -15.64 39.32 -17 40 C-15.15715768 33.83480595 -12.78409437 28.40503145 -9.625 22.8125 C-5.56370811 15.4156482 -2.53771072 8.04671086 0 0 Z " fill="#F6F7F8" transform="translate(439,146)"/>
<path d="M0 0 C-0.33 1.65 -0.66 3.3 -1 5 C-1.969375 5.12375 -2.93875 5.2475 -3.9375 5.375 C-5.4534375 5.684375 -5.4534375 5.684375 -7 6 C-7.33 6.66 -7.66 7.32 -8 8 C-6.35 7.67 -4.7 7.34 -3 7 C-3.99 8.485 -3.99 8.485 -5 10 C-5.39387788 12.32387947 -5.73486085 14.65793749 -6 17 C-2.04 16.505 -2.04 16.505 2 16 C2.66 17.32 3.32 18.64 4 20 C-3.99180328 20.6147541 -3.99180328 20.6147541 -7.5625 18.4375 C-9.4844884 15.17847619 -9.28577701 12.71510114 -9 9 C-9.66 9 -10.32 9 -11 9 C-10.77169299 10.62818946 -10.51656424 12.2526349 -10.25 13.875 C-10.11078125 14.77992188 -9.9715625 15.68484375 -9.828125 16.6171875 C-9.22126028 19.09992598 -9.22126028 19.09992598 -7.21875 20.28125 C-4.85845221 21.04585351 -2.72003449 21.40705578 -0.25 21.625 C0.54921875 21.69976562 1.3484375 21.77453125 2.171875 21.8515625 C2.77515625 21.90054688 3.3784375 21.94953125 4 22 C3.67 23.32 3.34 24.64 3 26 C1.39592672 26.02708567 -0.2082785 26.04643483 -1.8125 26.0625 C-3.15248047 26.07990234 -3.15248047 26.07990234 -4.51953125 26.09765625 C-8.06007831 25.95826463 -9.63609879 25.36390121 -12.15625 22.84375 C-14.35560408 19.45152591 -14.53749061 17.51149514 -14.5 13.5 C-14.51546875 11.84484375 -14.51546875 11.84484375 -14.53125 10.15625 C-13.89190366 6.35778059 -12.66062179 4.73774127 -10 2 C-6.3558226 -0.4294516 -4.28758728 -0.16179575 0 0 Z " fill="#DB7540" transform="translate(503,159)"/>
<path d="M0 0 C0.99 0 1.98 0 3 0 C3 2.31 3 4.62 3 7 C4.98 7 6.96 7 9 7 C9.33 7.66 9.66 8.32 10 9 C9.67 9.66 9.34 10.32 9 11 C7.02 11 5.04 11 3 11 C3.14063135 13.29199177 3.28765943 15.58359186 3.4375 17.875 C3.51871094 19.15117187 3.59992188 20.42734375 3.68359375 21.7421875 C3.79206027 24.88300152 3.79206027 24.88300152 5 27 C6.88764903 27.68472665 6.88764903 27.68472665 9.0625 28.125 C10.361875 28.41375 11.66125 28.7025 13 29 C13.99 26.03 14.98 23.06 16 20 C16.99 20.33 17.98 20.66 19 21 C18.7579806 25.11432986 18.32870991 27.5318374 15.9375 30.9375 C12.66504914 33.23517826 10.93560919 33.61335368 7.0625 33.76171875 C4.42467158 32.78752075 2.71528482 31.39844017 0.99462891 29.18188477 C-1.26585044 24.22314546 -0.49289931 18.45371802 -0.3125 13.125 C-0.28994141 11.86429688 -0.26738281 10.60359375 -0.24414062 9.3046875 C-0.18537581 6.20190501 -0.10325851 3.10156801 0 0 Z " fill="#335176" transform="translate(399,152)"/>
<path d="M0 0 C2.19824219 1.18676758 2.19824219 1.18676758 4 3 C4.45410156 5.4519043 4.45410156 5.4519043 4.390625 8.32421875 C4.37128906 9.86625977 4.37128906 9.86625977 4.3515625 11.43945312 C4.31804687 12.51130859 4.28453125 13.58316406 4.25 14.6875 C4.23195313 15.77095703 4.21390625 16.85441406 4.1953125 17.97070312 C4.14813508 20.64802146 4.08232249 23.32356909 4 26 C3.34 26 2.68 26 2 26 C1.95101563 24.80761719 1.90203125 23.61523438 1.8515625 22.38671875 C1.77652396 20.82028932 1.7009766 19.25388421 1.625 17.6875 C1.5940625 16.90181641 1.563125 16.11613281 1.53125 15.30664062 C1.49257813 14.54931641 1.45390625 13.79199219 1.4140625 13.01171875 C1.3826416 12.31522217 1.3512207 11.61872559 1.31884766 10.90112305 C1.07881747 8.67467261 1.07881747 8.67467261 -1 6 C-4 5.58333333 -4 5.58333333 -7 6 C-9.35358251 8.35358251 -9.27871904 8.92968394 -9.4140625 12.1328125 C-9.45273437 12.93847656 -9.49140625 13.74414062 -9.53125 14.57421875 C-9.5621875 15.41597656 -9.593125 16.25773437 -9.625 17.125 C-9.66367187 17.97449219 -9.70234375 18.82398438 -9.7421875 19.69921875 C-9.83656494 21.79911684 -9.91937586 23.89952891 -10 26 C-11.32 26 -12.64 26 -14 26 C-14.10852923 23.12397545 -14.1875515 20.25209168 -14.25 17.375 C-14.28351563 16.56675781 -14.31703125 15.75851563 -14.3515625 14.92578125 C-14.44082239 9.43629774 -13.70307411 6.3291334 -10 2 C-6.28986601 -0.47342266 -4.38939738 -0.38503486 0 0 Z " fill="#365476" transform="translate(457,159)"/>
<path d="M0 0 C7.99651568 -0.6271777 7.99651568 -0.6271777 12 1.875 C15.71932063 5.82677817 15.08437656 8.7686532 15 14 C14.34 13.67 13.68 13.34 13 13 C12.5359375 11.576875 12.5359375 11.576875 12.0625 10.125 C11.01404624 7.04131246 10.54643496 5.89542331 8 4 C5.70155211 3.85297733 5.70155211 3.85297733 3.3125 4.3125 C1.1778125 4.6528125 1.1778125 4.6528125 -1 5 C-1 8.3 -1 11.6 -1 15 C2.465 14.505 2.465 14.505 6 14 C6.33 12.68 6.66 11.36 7 10 C6.01 10 5.02 10 4 10 C4 10.99 4 11.98 4 13 C3.01 13 2.02 13 1 13 C0.95745644 11.00045254 0.95919217 8.99958364 1 7 C2 6 2 6 5.5625 5.9375 C6.696875 5.958125 7.83125 5.97875 9 6 C10.10647808 8.21295616 10.19588368 9.54672699 10.25 12 C10.28867187 13.051875 10.28867187 13.051875 10.328125 14.125 C10.21984375 14.74375 10.1115625 15.3625 10 16 C6.8073242 18.12845053 4.75804777 18.54683834 0.94140625 18.44140625 C-1 18 -1 18 -3.5 15.4375 C-5.15000832 11.65623094 -5.32647149 9.08089366 -5 5 C-4.01 4.67 -3.02 4.34 -2 4 C-0.79117904 1.99983534 -0.79117904 1.99983534 0 0 Z " fill="#375276" transform="translate(427,132)"/>
<path d="M0 0 C0.99 0 1.98 0 3 0 C3.04952706 4.34161825 3.08577954 8.68308575 3.10986328 13.02490234 C3.11990591 14.50116847 3.13354265 15.97741479 3.15087891 17.45361328 C3.17520421 19.57850034 3.1865004 21.70312385 3.1953125 23.828125 C3.20578613 25.1059082 3.21625977 26.38369141 3.22705078 27.70019531 C3.01550278 30.77469299 2.63126908 32.43738352 1 35 C0.01 35 -0.98 35 -2 35 C-2 35.66 -2 36.32 -2 37 C-4.40545638 38.20272819 -5.94996953 38.10071472 -8.625 38.0625 C-9.85089844 38.04896484 -9.85089844 38.04896484 -11.1015625 38.03515625 C-11.72804687 38.02355469 -12.35453125 38.01195312 -13 38 C-13 36.68 -13 35.36 -13 34 C-11.95199219 33.85304688 -11.95199219 33.85304688 -10.8828125 33.703125 C-9.97273437 33.55359375 -9.06265625 33.4040625 -8.125 33.25 C-7.22007812 33.11078125 -6.31515625 32.9715625 -5.3828125 32.828125 C-2.9235949 32.23824416 -2.9235949 32.23824416 -1.87695312 30.35546875 C-0.74976088 27.32786554 -0.67400318 24.7134499 -0.5859375 21.484375 C-0.54726562 20.23398438 -0.50859375 18.98359375 -0.46875 17.6953125 C-0.4378125 16.39335937 -0.406875 15.09140625 -0.375 13.75 C-0.31699219 11.77386719 -0.31699219 11.77386719 -0.2578125 9.7578125 C-0.16353818 6.50534839 -0.0779325 3.25289004 0 0 Z " fill="#345175" transform="translate(225,147)"/>
<path d="M0 0 C0.33 0 0.66 0 1 0 C1 31.02 1 62.04 1 94 C0.67 94 0.34 94 0 94 C0 91.36 0 88.72 0 86 C-1.32 85.67 -2.64 85.34 -4 85 C-2.515 84.505 -2.515 84.505 -1 84 C-0.505 83.01 -0.505 83.01 0 82 C-0.66 82 -1.32 82 -2 82 C-2.22580354 78.56341292 -2.42762697 75.12582782 -2.625 71.6875 C-2.68945312 70.71103516 -2.75390625 69.73457031 -2.8203125 68.72851562 C-2.871875 67.79072266 -2.9234375 66.85292969 -2.9765625 65.88671875 C-3.02893066 65.02264404 -3.08129883 64.15856934 -3.13525391 63.26831055 C-3 61 -3 61 -1 58 C-0.67126012 55.35288242 -0.67126012 55.35288242 -0.68115234 52.33520508 C-0.66128265 51.17422806 -0.64141296 50.01325104 -0.62094116 48.8170929 C-0.60938995 47.56389755 -0.59783875 46.31070221 -0.5859375 45.01953125 C-0.56657135 43.73640549 -0.5472052 42.45327972 -0.5272522 41.13127136 C-0.47592708 37.7233905 -0.43630368 34.31547014 -0.39910889 30.90740967 C-0.35907143 27.42840807 -0.30797796 23.94957082 -0.2578125 20.47070312 C-0.16104893 13.64725551 -0.07664561 6.82370242 0 0 Z " fill="#EFF2F6" transform="translate(360,103)"/>
<path d="M0 0 C0.66 0 1.32 0 2 0 C2.82758515 14.528717 0.96952912 28.02155135 -6 41 C-6.33 41 -6.66 41 -7 41 C-7.02690844 38.37493198 -7.04679404 35.75013827 -7.0625 33.125 C-7.07087891 32.37863281 -7.07925781 31.63226563 -7.08789062 30.86328125 C-7.11328125 25.2265625 -7.11328125 25.2265625 -6 23 C-5.34 23 -4.68 23 -4 23 C-4 22.01 -4 21.02 -4 20 C-3.2733313 19.28880005 -3.2733313 19.28880005 -2.53198242 18.56323242 C-0.62723107 16.61962718 -0.58898983 15.6671296 -0.48828125 12.98828125 C-0.45283203 12.23095703 -0.41738281 11.47363281 -0.38085938 10.69335938 C-0.35830078 9.90767578 -0.33574219 9.12199219 -0.3125 8.3125 C-0.27833984 7.51521484 -0.24417969 6.71792969 -0.20898438 5.89648438 C-0.12661896 3.93148096 -0.06162933 1.96576304 0 0 Z " fill="#516A86" transform="translate(243,141)"/>
<path d="M0 0 C0.33 0 0.66 0 1 0 C1 19.14 1 38.28 1 58 C1.66 58 2.32 58 3 58 C3 58.99 3 59.98 3 61 C3.66 61.33 4.32 61.66 5 62 C5.33 62.99 5.66 63.98 6 65 C5.505 65.99 5.505 65.99 5 67 C4.34 67 3.68 67 3 67 C3 71.62 3 76.24 3 81 C3.99 81 4.98 81 6 81 C5.125 85.75 5.125 85.75 4 88 C3.34 88 2.68 88 2 88 C1.97494385 87.32420898 1.9498877 86.64841797 1.92407227 85.95214844 C1.80789258 82.8845832 1.68526563 79.81730842 1.5625 76.75 C1.52318359 75.68652344 1.48386719 74.62304688 1.44335938 73.52734375 C1.40146484 72.50253906 1.35957031 71.47773438 1.31640625 70.421875 C1.27974854 69.47924805 1.24309082 68.53662109 1.20532227 67.56542969 C1.09248043 65.10489997 1.09248043 65.10489997 0.4942627 63.21801758 C-0.13024328 60.41552967 -0.11945934 57.8183184 -0.11352539 54.94628906 C-0.11344986 53.72532532 -0.11337433 52.50436157 -0.11329651 51.24639893 C-0.10813522 49.93274353 -0.10297394 48.61908813 -0.09765625 47.265625 C-0.09579021 45.9037074 -0.09436718 44.54178912 -0.09336853 43.17987061 C-0.08955803 39.60258111 -0.07974032 36.02533248 -0.06866455 32.44805908 C-0.05841884 28.79480543 -0.05386415 25.14154514 -0.04882812 21.48828125 C-0.03811669 14.32550224 -0.02105794 7.16275686 0 0 Z " fill="#BDCDDD" transform="translate(460,101)"/>
<path d="M0 0 C2.61489922 2.61489922 3.43137732 3.51557361 4.640625 6.72265625 C4.90617187 7.42583984 5.17171875 8.12902344 5.4453125 8.85351562 C5.71085937 9.58248047 5.97640625 10.31144531 6.25 11.0625 C6.53101563 11.79533203 6.81203125 12.52816406 7.1015625 13.28320312 C7.7999567 15.1657558 8.40715137 17.08159192 9 19 C8.67 19.66 8.34 20.32 8 21 C7.01 20.67 6.02 20.34 5 20 C5 19.34 5 18.68 5 18 C4.01 18 3.02 18 2 18 C2 21.63 2 25.26 2 29 C1.34 29.33 0.68 29.66 0 30 C0 20.1 0 10.2 0 0 Z " fill="#E8EFEF" transform="translate(383,149)"/>
<path d="M0 0 C0.33 0 0.66 0 1 0 C1.33 10.23 1.66 20.46 2 31 C3.32 31 4.64 31 6 31 C6 31.99 6 32.98 6 34 C6.66 34.66 7.32 35.32 8 36 C7.360625 37.051875 6.72125 38.10375 6.0625 39.1875 C4.38245548 42.10828412 3.41003948 44.6171743 3 48 C0.75310987 45.75310987 0.07114064 44.179151 -0.12025452 41.00679016 C-0.11803391 40.24956161 -0.11581329 39.49233307 -0.11352539 38.7121582 C-0.11344986 37.85149246 -0.11337433 36.99082672 -0.11329651 36.1040802 C-0.10813522 35.17899155 -0.10297394 34.25390289 -0.09765625 33.30078125 C-0.0962413 32.35059616 -0.09482635 31.40041107 -0.09336853 30.4214325 C-0.08776875 27.38508971 -0.07521632 24.34882052 -0.0625 21.3125 C-0.05748497 19.25455836 -0.05292207 17.19661556 -0.04882812 15.13867188 C-0.0377994 10.09241954 -0.02053493 5.04622225 0 0 Z " fill="#FAEAE0" transform="translate(505,129)"/>
<path d="M0 0 C0.33 0 0.66 0 1 0 C1.63690134 9.02984567 0.8762059 15.28514567 -4 23 C-4.66 23 -5.32 23 -6 23 C-6 22.34 -6 21.68 -6 21 C-7.98 21.99 -7.98 21.99 -10 23 C-7.60292686 14.82175048 -3.91141228 7.53348722 0 0 Z " fill="#E3ECEE" transform="translate(432,163)"/>
<path d="M0 0 C0.33 0 0.66 0 1 0 C1 8.58 1 17.16 1 26 C-1.72359329 23.27640671 -2.53674552 22.20032808 -3.82421875 18.8046875 C-4.13037109 18.00675781 -4.43652344 17.20882812 -4.75195312 16.38671875 C-5.21504883 15.14341797 -5.21504883 15.14341797 -5.6875 13.875 C-6.00783203 13.03839844 -6.32816406 12.20179688 -6.65820312 11.33984375 C-9 5.17827159 -9 5.17827159 -9 4 C-7.35 4 -5.7 4 -4 4 C-3.67 5.98 -3.34 7.96 -3 10 C-2.34 10 -1.68 10 -1 10 C-0.67 6.7 -0.34 3.4 0 0 Z " fill="#3D567B" transform="translate(396,153)"/>
<path d="M0 0 C0.33 0 0.66 0 1 0 C2.16431229 29.73950868 2.16431229 29.73950868 1.96289062 43.00683594 C1.92310566 46.52780554 2.04855958 49.61330286 3 53 C0 51 0 51 -0.67919922 48.41577148 C-1.05848253 44.37729902 -1.14335622 40.40150494 -1.1328125 36.34765625 C-1.13376923 35.52929794 -1.13472595 34.71093964 -1.13571167 33.86778259 C-1.13638947 32.14403201 -1.13456316 30.42027882 -1.13037109 28.6965332 C-1.12502411 26.07432247 -1.13032613 23.45228354 -1.13671875 20.83007812 C-1.13605776 19.14843713 -1.13477618 17.46679623 -1.1328125 15.78515625 C-1.13483673 15.00890396 -1.13686096 14.23265167 -1.13894653 13.43287659 C-1.11946816 8.85461941 -0.75271723 4.51742462 0 0 Z " fill="#86BEE9" transform="translate(658,130)"/>
<path d="M0 0 C3.93203381 2.10318088 5.32180825 4.26175845 6.62890625 8.3828125 C8.34277373 14.42581867 8.37157396 20.19543705 8.25 26.4375 C8.24484375 27.49259766 8.2396875 28.54769531 8.234375 29.63476562 C8.16711676 36.46568061 7.72581901 43.20852842 7 50 C6.67 50 6.34 50 6 50 C5.80303551 46.89635771 5.61906738 43.79207808 5.4375 40.6875 C5.38142578 39.80642578 5.32535156 38.92535156 5.26757812 38.01757812 C5.21923828 37.17001953 5.17089844 36.32246094 5.12109375 35.44921875 C5.0739624 34.66893311 5.02683105 33.88864746 4.97827148 33.0847168 C5 31 5 31 6 28 C6.34048904 22.27177267 6.07876353 16.63354287 5 11 C4.67 10.67 4.34 10.34 4 10 C3.95936168 8.33382885 3.957279 6.66611905 4 5 C3.360625 4.690625 2.72125 4.38125 2.0625 4.0625 C0 3 0 3 -1 2 C-2.69141656 2.08963062 -4.37959602 2.24577676 -6.0625 2.4375 C-6.98160156 2.53933594 -7.90070312 2.64117187 -8.84765625 2.74609375 C-9.91306641 2.87177734 -9.91306641 2.87177734 -11 3 C-7.23056152 -0.9407766 -5.40445441 -1.37760603 0 0 Z " fill="#84B9E9" transform="translate(63,126)"/>
<path d="M0 0 C0.125 5.75 0.125 5.75 -1 8 C-1.10297783 9.93655526 -1.1830853 11.87436349 -1.25 13.8125 C-1.57490625 18.04135797 -1.78371397 19.68758685 -4.25 23.25 C-7.19688126 25.12528808 -8.58349701 25.48807186 -12 25 C-12.33 23.68 -12.66 22.36 -13 21 C-9.535 20.505 -9.535 20.505 -6 20 C-5.95101563 18.96359375 -5.90203125 17.9271875 -5.8515625 16.859375 C-5.77650403 15.48955792 -5.70095753 14.11976752 -5.625 12.75 C-5.57859375 11.72712891 -5.57859375 11.72712891 -5.53125 10.68359375 C-5.31903419 7.04055565 -5.10021466 4.05211051 -3 1 C-1 0 -1 0 0 0 Z " fill="#355176" transform="translate(382,160)"/>
<path d="M0 0 C3.875 1.75 3.875 1.75 5 4 C5.07194869 6.88370333 5.09291708 9.74239664 5.0625 12.625 C5.05798828 13.42679688 5.05347656 14.22859375 5.04882812 15.0546875 C5.03703168 17.03649006 5.01909605 19.01825433 5 21 C5.66 21 6.32 21 7 21 C7 14.73 7 8.46 7 2 C7.33 2 7.66 2 8 2 C8.02922653 6.49998618 8.04687482 10.99994765 8.0625 15.5 C8.07087891 16.7684375 8.07925781 18.036875 8.08789062 19.34375 C8.10434137 25.66083499 8.00091014 31.75810372 7 38 C6.34 38 5.68 38 5 38 C5.66 33.05 6.32 28.1 7 23 C6.01 22.67 5.02 22.34 4 22 C2.19536893 18.39073786 2.62912514 13.94175373 2.48242188 9.94140625 C2.29895899 6.1821478 2.07193688 3.20437202 0 0 Z " fill="#738BA3" transform="translate(454,164)"/>
<path d="M0 0 C0.99 0 1.98 0 3 0 C2.649375 0.556875 2.29875 1.11375 1.9375 1.6875 C0.78154007 4.53886783 1.19032562 6.08517222 2 9 C6.40114397 8.49701212 8.71195019 6.91227269 12 4 C12 6.97 12 9.94 12 13 C10.41753293 13.08153933 8.83383727 13.13943557 7.25 13.1875 C6.36828125 13.22230469 5.4865625 13.25710937 4.578125 13.29296875 C1.4718456 12.93998245 0.16312351 12.2432392 -2 10 C-2.52799676 7.23857697 -2.18598981 4.83634455 -2 2 C-1.34 2 -0.68 2 0 2 C0 1.34 0 0.68 0 0 Z " fill="#345377" transform="translate(267,166)"/>
<path d="M0 0 C0.33 0 0.66 0 1 0 C1 9.9 1 19.8 1 30 C0.67 30 0.34 30 0 30 C-0.33 24.06 -0.66 18.12 -1 12 C-2.65 13.65 -4.3 15.3 -6 17 C-8.8125 16.8125 -8.8125 16.8125 -11 16 C-11.8125 13.875 -11.8125 13.875 -12 11 C-10.58633421 8.58545884 -9.01224447 7.01224447 -7 5 C-6.34 5 -5.68 5 -5 5 C-6.33488128 8.59391114 -7.96022723 11.75490696 -10 15 C-6.46591815 13.03662119 -3.45547234 11.2447313 -1 8 C-0.37771829 5.29826024 -0.18558267 2.78374003 0 0 Z " fill="#6A83A0" transform="translate(279,159)"/>
<path d="M0 0 C0.33 0 0.66 0 1 0 C1.38133299 1.9914056 1.71325582 3.99279077 2 6 C1.67 6.33 1.34 6.66 1 7 C0.85293162 9.14935887 0.77235414 11.3033137 0.71875 13.45703125 C0.70034058 14.11523361 0.68193115 14.77343597 0.66296387 15.45158386 C0.60407126 17.5717957 0.5514883 19.69209633 0.5 21.8125 C0.26467551 31.2375758 -0.08120388 40.61021584 -1 50 C-1.33 50 -1.66 50 -2 50 C-2.04996785 44.80795648 -2.08598438 39.61605731 -2.10986328 34.42382812 C-2.11983294 32.66273557 -2.13341356 30.90165917 -2.15087891 29.140625 C-2.24659333 19.23136673 -2.18288465 9.73069436 0 0 Z " fill="#D88757" transform="translate(486,122)"/>
<path d="M0 0 C0.99 0.66 1.98 1.32 3 2 C2.67 2.99 2.34 3.98 2 5 C1.34 4.34 0.68 3.68 0 3 C-3.37306618 2.41585298 -3.37306618 2.41585298 -7 3 C-10.46268359 5.86047775 -12.8100781 8.01938586 -13.24609375 12.56640625 C-13.37385314 14.56623188 -13.49884668 16.56623609 -13.62109375 18.56640625 C-13.74613281 19.36949219 -13.87117188 20.17257813 -14 21 C-14.66 21.33 -15.32 21.66 -16 22 C-16.02701408 19.89590361 -16.04640223 17.79170822 -16.0625 15.6875 C-16.07410156 14.51574219 -16.08570313 13.34398437 -16.09765625 12.13671875 C-16 9 -16 9 -15 6 C-14.34 6 -13.68 6 -13 6 C-13 5.01 -13 4.02 -13 3 C-8.46370773 0.3446094 -5.25370771 -0.4956328 0 0 Z " fill="#4A698B" transform="translate(457,157)"/>
<path d="M0 0 C15.84694602 10.35333807 15.84694602 10.35333807 18.32421875 17.78515625 C17.66421875 17.78515625 17.00421875 17.78515625 16.32421875 17.78515625 C16.32421875 17.12515625 16.32421875 16.46515625 16.32421875 15.78515625 C15.33421875 15.45515625 14.34421875 15.12515625 13.32421875 14.78515625 C12.66421875 13.79515625 12.00421875 12.80515625 11.32421875 11.78515625 C10.33421875 11.45515625 9.34421875 11.12515625 8.32421875 10.78515625 C7.70546875 9.98078125 7.08671875 9.17640625 6.44921875 8.34765625 C4.17741542 5.60812871 2.67379521 4.80863795 -0.67578125 3.78515625 C-0.67578125 3.12515625 -0.67578125 2.46515625 -0.67578125 1.78515625 C-7.89610331 1.48575755 -7.89610331 1.48575755 -14.67578125 3.78515625 C-10.99257708 -1.65195467 -6.07041343 -2.75605632 0 0 Z " fill="#6FAADC" transform="translate(673.67578125,126.21484375)"/>
<path d="M0 0 C0.66 0.33 1.32 0.66 2 1 C0.625 2.5 0.625 2.5 -1 4 C-1.66 4 -2.32 4 -3 4 C-3 4.99 -3 5.98 -3 7 C-3.99 7 -4.98 7 -6 7 C-6.1546875 8.1446875 -6.1546875 8.1446875 -6.3125 9.3125 C-7.05539884 12.21655911 -7.56993983 13.28995766 -10 15 C-11.32 15 -12.64 15 -14 15 C-14.33 16.65 -14.66 18.3 -15 20 C-16.32 19.67 -17.64 19.34 -19 19 C-13.19173442 12.17528794 -7.30465637 5.26388763 0 0 Z " fill="#60A4DE" transform="translate(50,129)"/>
<path d="M0 0 C-0.33 0.99 -0.66 1.98 -1 3 C-2.32 2.67 -3.64 2.34 -5 2 C-5 2.66 -5 3.32 -5 4 C-5.66 4 -6.32 4 -7 4 C-6.896875 5.27875 -6.79375 6.5575 -6.6875 7.875 C-6.62949219 8.59429687 -6.57148438 9.31359375 -6.51171875 10.0546875 C-6.12606964 12.39519216 -6.12606964 12.39519216 -3 14 C-0.49103314 14.45601261 -0.49103314 14.45601261 2.1875 14.625 C3.08855469 14.69976562 3.98960937 14.77453125 4.91796875 14.8515625 C5.60503906 14.90054688 6.29210937 14.94953125 7 15 C7 15.66 7 16.32 7 17 C2.71 17 -1.58 17 -6 17 C-8.64202986 12.48653233 -9.67875514 9.23611111 -9 4 C-6.40088873 0.24572816 -4.49476261 -0.49941807 0 0 Z " fill="#4C6B90" transform="translate(272,164)"/>
<path d="M0 0 C0.33 0 0.66 0 1 0 C1 5.28 1 10.56 1 16 C-3 18 -3 18 -6 18 C-5.41347648 13.51006131 -4.2356462 9.77456816 -2.4375 5.625 C-1.98246094 4.56539062 -1.52742187 3.50578125 -1.05859375 2.4140625 C-0.70925781 1.61742187 -0.35992187 0.82078125 0 0 Z " fill="#475F79" transform="translate(222,160)"/>
<path d="M0 0 C0.33 0 0.66 0 1 0 C1.08152344 2.54232342 1.14073716 5.08199202 1.1875 7.625 C1.21263672 8.33785156 1.23777344 9.05070313 1.26367188 9.78515625 C1.3458423 15.75620681 -0.08540536 19.72641886 -4 24.375 C-8.45089137 26.78589949 -13.03660142 26.85284403 -18 26 C-19.8359375 24.47265625 -19.8359375 24.47265625 -21 23 C-20.01 22.34 -19.02 21.68 -18 21 C-17.67 21.66 -17.34 22.32 -17 23 C-13.37 23 -9.74 23 -6 23 C-6 22.34 -6 21.68 -6 21 C-5.01 21 -4.02 21 -3 21 C-1.22598368 16.37025009 -0.60358379 12.03955157 -0.375 7.125 C-0.33632812 6.43664062 -0.29765625 5.74828125 -0.2578125 5.0390625 C-0.16451834 3.35976754 -0.08121762 1.67992233 0 0 Z " fill="#516D91" transform="translate(229,161)"/>
<path d="M0 0 C2.31 0 4.62 0 7 0 C5.56835889 3.65938172 4.01065704 7.23988068 2.375 10.8125 C1.70597656 12.27623047 1.70597656 12.27623047 1.0234375 13.76953125 C0.68570312 14.50558594 0.34796875 15.24164063 0 16 C-0.33 16 -0.66 16 -1 16 C-1.02692484 13.70839681 -1.04636124 11.41670454 -1.0625 9.125 C-1.07410156 7.84882813 -1.08570313 6.57265625 -1.09765625 5.2578125 C-1 2 -1 2 0 0 Z " fill="#5D7294" transform="translate(428,158)"/>
<path d="M0 0 C0.66 0.33 1.32 0.66 2 1 C-0.31 6.94 -2.62 12.88 -5 19 C-7 17 -7 17 -7.1171875 14.828125 C-6.57652166 9.07264992 -5.76319046 5.44740691 -2 1 C-1.34 0.67 -0.68 0.34 0 0 Z " fill="#EBF1F5" transform="translate(423,129)"/>
<path d="M0 0 C1.17949219 0.10183594 2.35898437 0.20367187 3.57421875 0.30859375 C4.47785156 0.39238281 5.38148438 0.47617188 6.3125 0.5625 C5.9825 1.8825 5.6525 3.2025 5.3125 4.5625 C4.3225 4.2325 3.3325 3.9025 2.3125 3.5625 C-1.07687216 3.1603711 -4.3055302 3.06546929 -7.6875 3.5625 C-10.73225302 5.77163543 -10.73225302 5.77163543 -12.6875 8.5625 C-13.3475 9.2225 -14.0075 9.8825 -14.6875 10.5625 C-14.3575 8.2525 -14.0275 5.9425 -13.6875 3.5625 C-12.3675 3.2325 -11.0475 2.9025 -9.6875 2.5625 C-9.6875 1.9025 -9.6875 1.2425 -9.6875 0.5625 C-6.14075997 -0.61974668 -3.71227005 -0.33079634 0 0 Z " fill="#476789" transform="translate(273.6875,157.4375)"/>
<path d="M0 0 C0.33 0.99 0.66 1.98 1 3 C0.67 3.33 0.34 3.66 0 4 C1.32 4.66 2.64 5.32 4 6 C3.67 6.66 3.34 7.32 3 8 C1.4221875 7.87625 1.4221875 7.87625 -0.1875 7.75 C-4.53763669 8.03525487 -5.9315153 9.02449969 -9 12 C-9.99 11.34 -10.98 10.68 -12 10 C-10.98973214 7.36115827 -10.37432414 6.21017098 -7.87109375 4.8046875 C-7.06800781 4.49789062 -6.26492188 4.19109375 -5.4375 3.875 C-2.00802421 2.74678102 -2.00802421 2.74678102 0 0 Z " fill="#F3F4F5" transform="translate(335,154)"/>
<path d="M0 0 C0.33 0 0.66 0 1 0 C1 3.63 1 7.26 1 11 C0.01 11 -0.98 11 -2 11 C-2.33 17.27 -2.66 23.54 -3 30 C-3.66 30.33 -4.32 30.66 -5 31 C-5 13.54898649 -5 13.54898649 -2.5 6.8125 C-2.26152344 6.15830078 -2.02304687 5.50410156 -1.77734375 4.83007812 C-1.18917119 3.2184853 -0.59514956 1.60902933 0 0 Z " fill="#EDF1F3" transform="translate(439,146)"/>
<path d="M0 0 C0.66 0.66 1.32 1.32 2 2 C-0.52173913 5.7826087 -0.52173913 5.7826087 -3.0625 6.9375 C-5.74771086 8.41003499 -6.10304168 10.159632 -7 13 C-8.5625 11.9375 -8.5625 11.9375 -10 10 C-9.6875 6.3125 -9.6875 6.3125 -9 3 C-6.69 2.34 -4.38 1.68 -2 1 C-2 1.99 -2 2.98 -2 4 C-1.34 2.68 -0.68 1.36 0 0 Z " fill="#EFF2F1" transform="translate(252,160)"/>
<path d="M0 0 C0.33 0.66 0.66 1.32 1 2 C1.66 2 2.32 2 3 2 C3 4.31 3 6.62 3 9 C2.34 9 1.68 9 1 9 C1.08378906 10.20398438 1.16757812 11.40796875 1.25390625 12.6484375 C1.3570641 14.22393916 1.45991266 15.79946109 1.5625 17.375 C1.61857422 18.1690625 1.67464844 18.963125 1.73242188 19.78125 C2.11328125 25.7734375 2.11328125 25.7734375 1 28 C2.32 27.67 3.64 27.34 5 27 C5 27.66 5 28.32 5 29 C3.35 29.33 1.7 29.66 0 30 C0 20.1 0 10.2 0 0 Z " fill="#EEF2F4" transform="translate(280,159)"/>
<path d="M0 0 C0.66 0 1.32 0 2 0 C2.56203125 0.64453125 3.1240625 1.2890625 3.703125 1.953125 C6.73832725 4.6579651 8.73798895 4.58951956 12.75 4.75 C14.50570313 4.83507812 14.50570313 4.83507812 16.296875 4.921875 C17.18890625 4.94765625 18.0809375 4.9734375 19 5 C19 5.99 19 6.98 19 8 C17.10489301 8.08160748 15.20875496 8.13946459 13.3125 8.1875 C11.72888672 8.23970703 11.72888672 8.23970703 10.11328125 8.29296875 C6.59386978 7.96178197 4.80054465 7.12041238 2 5 C0.6875 2.3125 0.6875 2.3125 0 0 Z " fill="#4A668B" transform="translate(260,180)"/>
<path d="M0 0 C0.66 0.33 1.32 0.66 2 1 C1.72285156 1.59167969 1.44570313 2.18335937 1.16015625 2.79296875 C0.61681641 3.97826172 0.61681641 3.97826172 0.0625 5.1875 C-0.29714844 5.96480469 -0.65679687 6.74210937 -1.02734375 7.54296875 C-2.74484042 11.88154467 -3.14282069 16.10106693 -3.31640625 20.73828125 C-3.35830078 21.80498047 -3.40019531 22.87167969 -3.44335938 23.97070312 C-3.50233398 25.62489258 -3.50233398 25.62489258 -3.5625 27.3125 C-3.60568359 28.43462891 -3.64886719 29.55675781 -3.69335938 30.71289062 C-3.79914787 33.47514569 -3.90123672 36.2374863 -4 39 C-4.33 39 -4.66 39 -5 39 C-5.19252507 34.92539339 -5.37120378 30.85043787 -5.53710938 26.7746582 C-5.59548391 25.38842526 -5.65763024 24.00234577 -5.72363281 22.61645508 C-5.81788205 20.62365488 -5.8974178 18.63017597 -5.9765625 16.63671875 C-6.05511475 14.83787231 -6.05511475 14.83787231 -6.13525391 13.00268555 C-6 10 -6 10 -4 7 C-3.34 7 -2.68 7 -2 7 C-1.855625 6.030625 -1.71125 5.06125 -1.5625 4.0625 C-1 1 -1 1 0 0 Z " fill="#D67F4D" transform="translate(508,119)"/>
<path d="M0 0 C2.31 0 4.62 0 7 0 C6.42655063 2.86724686 6.1385485 3.8614515 4 6 C3.3574765 8.06874034 3.3574765 8.06874034 3 10 C4.65 9.34 6.3 8.68 8 8 C8 8.99 8 9.98 8 11 C5.69 11.33 3.38 11.66 1 12 C0.875 8.625 0.875 8.625 1 5 C1.66 4.34 2.32 3.68 3 3 C1.68 3 0.36 3 -1 3 C-0.67 2.01 -0.34 1.02 0 0 Z " fill="#E88853" transform="translate(496,164)"/>
<path d="M0 0 C0.33 0 0.66 0 1 0 C1.2475 1.216875 1.495 2.43375 1.75 3.6875 C2.7049925 7.58359258 4.22781085 10.04299824 7 13 C6.01 13.66 5.02 14.32 4 15 C2.0625 14.25 2.0625 14.25 0 13 C-0.75 10.875 -0.75 10.875 -1 9 C-1.66 9 -2.32 9 -3 9 C-2.01 6.03 -1.02 3.06 0 0 Z " fill="#5D7694" transform="translate(421,138)"/>
<path d="M0 0 C3.88673357 2.47337591 5.9007877 4.5032224 7 9 C7.14688427 12.00859502 7.11800358 14.9909086 7 18 C6.67 18 6.34 18 6 18 C5.855625 16.865625 5.71125 15.73125 5.5625 14.5625 C5.38828522 11.19222799 5.38828522 11.19222799 4 10 C3.95936168 8.33382885 3.957279 6.66611905 4 5 C3.360625 4.690625 2.72125 4.38125 2.0625 4.0625 C0 3 0 3 -1 2 C-2.69141656 2.08963062 -4.37959602 2.24577676 -6.0625 2.4375 C-6.98160156 2.53933594 -7.90070312 2.64117187 -8.84765625 2.74609375 C-9.91306641 2.87177734 -9.91306641 2.87177734 -11 3 C-7.23056152 -0.9407766 -5.40445441 -1.37760603 0 0 Z " fill="#70ABDD" transform="translate(63,126)"/>
<path d="M0 0 C12.54 0 25.08 0 38 0 C38 0.33 38 0.66 38 1 C35.03 1 32.06 1 29 1 C29 1.66 29 2.32 29 3 C27.35 3 25.7 3 24 3 C24 2.34 24 1.68 24 1 C16.08 1 8.16 1 0 1 C0 0.67 0 0.34 0 0 Z " fill="#485F7E" transform="translate(157,92)"/>
<path d="M0 0 C0.66 0 1.32 0 2 0 C2.103125 1.093125 2.20625 2.18625 2.3125 3.3125 C3.07345904 7.43299043 3.07345904 7.43299043 6 10 C8.26393971 10.78356902 8.26393971 10.78356902 10.6875 11.1875 C11.49574219 11.34605469 12.30398438 11.50460938 13.13671875 11.66796875 C14.05904297 11.83232422 14.05904297 11.83232422 15 12 C15 12.33 15 12.66 15 13 C5.23625255 13.57433809 5.23625255 13.57433809 1 10 C-0.1577506 6.52674819 -0.06866652 3.63932552 0 0 Z " fill="#EA844F" transform="translate(492,168)"/>
<path d="M0 0 C0.33 0 0.66 0 1 0 C1.33 6.6 1.66 13.2 2 20 C2.33 20 2.66 20 3 20 C3 22.31 3 24.62 3 27 C2.34 27 1.68 27 1 27 C1 28.65 1 30.3 1 32 C0.67 32 0.34 32 0 32 C0 21.44 0 10.88 0 0 Z " fill="#68829C" transform="translate(440,158)"/>
<path d="M0 0 C0.33 0 0.66 0 1 0 C3.01670288 7.43659188 3.2137731 14.31604457 3 22 C2.67 22 2.34 22 2 22 C1.67 23.65 1.34 25.3 1 27 C0.67 27 0.34 27 0 27 C0 18.09 0 9.18 0 0 Z " fill="#6C829B" transform="translate(622,217)"/>
<path d="M0 0 C1.32 0.33 2.64 0.66 4 1 C1.12505529 4.98069267 -1.82117329 7.43571997 -6 10 C-6.66 8.02 -7.32 6.04 -8 4 C-7.34 4 -6.68 4 -6 4 C-5.67 3.01 -5.34 2.02 -5 1 C-4.67 1.99 -4.34 2.98 -4 4 C-3.34 4 -2.68 4 -2 4 C-2 3.34 -2 2.68 -2 2 C-1.34 2 -0.68 2 0 2 C0 1.34 0 0.68 0 0 Z " fill="#E6EDF0" transform="translate(212,176)"/>
<path d="M0 0 C0.66 0 1.32 0 2 0 C1.67 0.99 1.34 1.98 1 3 C0.34 3 -0.32 3 -1 3 C-2.04882391 6.56071312 -2.30386953 10.05527897 -2.5625 13.75 C-2.64628906 14.92046875 -2.73007812 16.0909375 -2.81640625 17.296875 C-2.87699219 18.18890625 -2.93757813 19.0809375 -3 20 C-3.66 20 -4.32 20 -5 20 C-5.68903554 7.09972357 -5.68903554 7.09972357 -3.0625 3.25 C-1 1 -1 1 0 0 Z " fill="#4F6E90" transform="translate(380,158)"/>
<path d="M0 0 C1.670625 0.495 1.670625 0.495 3.375 1 C9.7840798 2.6051159 16.59089761 2.70909397 23 1 C23.33 1.66 23.66 2.32 24 3 C19.58696781 5.24978112 15.68531087 5.12676388 10.875 4.75 C10.15957031 4.71003906 9.44414063 4.67007813 8.70703125 4.62890625 C5.03600025 4.37502186 3.11973834 4.07982556 0 2 C0 1.34 0 0.68 0 0 Z " fill="#D58157" transform="translate(516,186)"/>
<path d="M0 0 C3.96 0.33 7.92 0.66 12 1 C12 1.66 12 2.32 12 3 C16.62 3 21.24 3 26 3 C26 3.33 26 3.66 26 4 C23.16607074 4.08174796 20.33455181 4.14084985 17.5 4.1875 C16.70851563 4.21263672 15.91703125 4.23777344 15.1015625 4.26367188 C9.37869682 4.33403498 5.24796143 3.29297398 0 1 C0 0.67 0 0.34 0 0 Z " fill="#D98D64" transform="translate(511,206)"/>
<path d="M0 0 C-1 3 -1 3 -4 5 C-4 5.66 -4 6.32 -4 7 C-7.46153846 10 -7.46153846 10 -10 10 C-9.67 11.32 -9.34 12.64 -9 14 C-9.99 14.33 -10.98 14.66 -12 15 C-10.70077444 9.09442929 -7.35009225 0 0 0 Z " fill="#F8E9D4" transform="translate(518,114)"/>
<path d="M0 0 C3.90215596 5.85323394 6.42778976 9.99042455 7 17 C2.94903704 13.64747893 1.32886495 9.97093927 0 5 C-0.1875 2 -0.1875 2 0 0 Z " fill="#D27F51" transform="translate(486,175)"/>
<path d="M0 0 C0.33 0 0.66 0 1 0 C1.06058594 0.80824219 1.12117187 1.61648437 1.18359375 2.44921875 C1.26738281 3.51785156 1.35117188 4.58648437 1.4375 5.6875 C1.55931641 7.27111328 1.55931641 7.27111328 1.68359375 8.88671875 C1.94111634 11.94961405 1.94111634 11.94961405 2.5625 14.71875 C3.07852495 17.40945151 2.67691094 19.36756856 2 22 C1.01 21.67 0.02 21.34 -1 21 C-0.67 14.07 -0.34 7.14 0 0 Z " fill="#61758F" transform="translate(222,142)"/>
<path d="M0 0 C1.485 0.99 1.485 0.99 3 2 C3 3.32 3 4.64 3 6 C3.99 6 4.98 6 6 6 C6 5.01 6 4.02 6 3 C6.99 3 7.98 3 9 3 C8.67 4.65 8.34 6.3 8 8 C5.69 8 3.38 8 1 8 C-0.35439668 5.29120665 -0.06501451 2.99066732 0 0 Z " fill="#4D6A8C" transform="translate(425,139)"/>
<path d="M0 0 C0.66 0 1.32 0 2 0 C2 0.99 2 1.98 2 3 C1.21625 3.763125 0.4325 4.52625 -0.375 5.3125 C-3.17108842 8.17516195 -4.02157311 10.17524033 -5 14 C-5.66 14 -6.32 14 -7 14 C-7.33 14.99 -7.66 15.98 -8 17 C-8.33 16.34 -8.66 15.68 -9 15 C-7.890625 12.5390625 -7.890625 12.5390625 -6.25 9.625 C-5.71890625 8.66851562 -5.1878125 7.71203125 -4.640625 6.7265625 C-3.20468072 4.34015986 -1.81894407 2.10877581 0 0 Z " fill="#D98A62" transform="translate(496,103)"/>
<path d="M0 0 C0.33 0 0.66 0 1 0 C1.08107583 1.93681161 1.13922475 3.8745934 1.1875 5.8125 C1.22230469 6.89144531 1.25710937 7.97039062 1.29296875 9.08203125 C1 12 1 12 -0.51171875 13.88671875 C-1.00285156 14.25410156 -1.49398437 14.62148437 -2 15 C-3.52307559 12.04438128 -4.15356957 10.60456985 -3.3203125 7.32421875 C-2.92585937 6.45410156 -2.53140625 5.58398438 -2.125 4.6875 C-1.73570312 3.80449219 -1.34640625 2.92148438 -0.9453125 2.01171875 C-0.63335937 1.34785156 -0.32140625 0.68398437 0 0 Z " fill="#D4DEE8" transform="translate(241,170)"/>
<path d="M0 0 C0.66 0 1.32 0 2 0 C1.56615452 7.03128878 0.25678003 13.329015 -2 20 C-3.16180608 16.07240184 -2.75984959 13.02720283 -2 9 C-1.67 8.67 -1.34 8.34 -1 8 C-0.76924918 6.65252916 -0.58846937 5.29622435 -0.4375 3.9375 C-0.2209375 1.9884375 -0.2209375 1.9884375 0 0 Z " fill="#D3834E" transform="translate(570,165)"/>
<path d="M0 0 C0.66 0.99 1.32 1.98 2 3 C-1.63 4.98 -5.26 6.96 -9 9 C-8.67 7.35 -8.34 5.7 -8 4 C-6.68 4 -5.36 4 -4 4 C-3.67 3.01 -3.34 2.02 -3 1 C-2.01 0.67 -1.02 0.34 0 0 Z " fill="#D47B47" transform="translate(520,109)"/>
<path d="M0 0 C0.33 0 0.66 0 1 0 C1.76375498 5.95728887 -0.63341604 10.25833245 -4 15 C-4.99 15.66 -5.98 16.32 -7 17 C-5.53012914 10.85326729 -2.94033413 5.57765673 0 0 Z " fill="#506682" transform="translate(435,106)"/>
<path d="M0 0 C0.66 0.33 1.32 0.66 2 1 C-0.5 3 -0.5 3 -3 5 C-4.299375 6.11375 -4.299375 6.11375 -5.625 7.25 C-8 9 -8 9 -11 9 C-11 8.34 -11 7.68 -11 7 C-9.35546875 5.52734375 -9.35546875 5.52734375 -7.1875 3.9375 C-6.47980469 3.41027344 -5.77210938 2.88304688 -5.04296875 2.33984375 C-3 1 -3 1 0 0 Z " fill="#D8865C" transform="translate(509,94)"/>
<path d="M0 0 C0.33 0 0.66 0 1 0 C1 5.28 1 10.56 1 16 C-2.3532216 11.52903787 -2.47037958 10.3623272 -2 5 C-1 2.0625 -1 2.0625 0 0 Z " fill="#F3F3F1" transform="translate(257,164)"/>
<path d="M0 0 C0.66 0 1.32 0 2 0 C2 0.99 2 1.98 2 3 C2.66 3.33 3.32 3.66 4 4 C4.33 4.99 4.66 5.98 5 7 C4.67 7.66 4.34 8.32 4 9 C3.34 9 2.68 9 2 9 C1.67 10.32 1.34 11.64 1 13 C0.67 8.71 0.34 4.42 0 0 Z " fill="#F1F1F1" transform="translate(461,159)"/>
<path d="M0 0 C1.32 0.33 2.64 0.66 4 1 C2.625 2.5 2.625 2.5 1 4 C0.34 4 -0.32 4 -1 4 C-1 4.66 -1 5.32 -1 6 C-1.66 6 -2.32 6 -3 6 C-3.28875 6.639375 -3.5775 7.27875 -3.875 7.9375 C-5 10 -5 10 -7 11 C-6.67 9.02 -6.34 7.04 -6 5 C-5.01 5 -4.02 5 -3 5 C-3 4.34 -3 3.68 -3 3 C-2.01 3 -1.02 3 0 3 C0 2.01 0 1.02 0 0 Z " fill="#FBF1DC" transform="translate(499,97)"/>
<path d="M0 0 C0.33 0 0.66 0 1 0 C0.88490339 1.41750563 0.75746342 2.83401169 0.625 4.25 C0.55539063 5.03890625 0.48578125 5.8278125 0.4140625 6.640625 C-0.01507113 9.085877 -0.78600638 10.84836903 -2 13 C-2.33 13 -2.66 13 -3 13 C-3.27131956 7.66404866 -3.4266889 4.38616179 0 0 Z " fill="#3B5171" transform="translate(242,161)"/>
<path d="M0 0 C0.33 0 0.66 0 1 0 C1.0809313 2.60478883 1.14045434 5.20706653 1.1875 7.8125 C1.22520508 8.91948242 1.22520508 8.91948242 1.26367188 10.04882812 C1.33834499 15.54974762 1.33834499 15.54974762 -0.51171875 18.01171875 C-1.24841797 18.50091797 -1.24841797 18.50091797 -2 19 C-2.33 18.34 -2.66 17.68 -3 17 C-2.71125 16.195625 -2.4225 15.39125 -2.125 14.5625 C-0.60768336 9.75766397 -0.33860725 5.00782295 0 0 Z " fill="#DAF2FB" transform="translate(70,165)"/>
<path d="M0 0 C0.33 0 0.66 0 1 0 C1.02505615 0.61520508 1.0501123 1.23041016 1.07592773 1.86425781 C1.19218487 4.65970156 1.31477642 7.45483298 1.4375 10.25 C1.47681641 11.21808594 1.51613281 12.18617188 1.55664062 13.18359375 C1.59853516 14.11816406 1.64042969 15.05273438 1.68359375 16.015625 C1.72025146 16.87446289 1.75690918 17.73330078 1.79467773 18.61816406 C1.98703514 20.84960143 2.38846244 22.84982524 3 25 C2.01 24.34 1.02 23.68 0 23 C-0.34057617 20.66162109 -0.34057617 20.66162109 -0.29296875 17.7734375 C-0.28330078 16.7421875 -0.27363281 15.7109375 -0.26367188 14.6484375 C-0.23853516 13.56820312 -0.21339844 12.48796875 -0.1875 11.375 C-0.17396484 10.28703125 -0.16042969 9.1990625 -0.14648438 8.078125 C-0.11104754 5.38492591 -0.06164331 2.69270626 0 0 Z " fill="#5FA5D7" transform="translate(658,158)"/>
<path d="M0 0 C0.33 0.99 0.66 1.98 1 3 C0.67 3.33 0.34 3.66 0 4 C1.32 4.66 2.64 5.32 4 6 C3.67 6.66 3.34 7.32 3 8 C0.36 7.67 -2.28 7.34 -5 7 C-5.33 6.01 -5.66 5.02 -6 4 C-4.7934375 3.566875 -4.7934375 3.566875 -3.5625 3.125 C-0.8673532 2.26737432 -0.8673532 2.26737432 0 0 Z " fill="#E5EAED" transform="translate(335,154)"/>
<path d="M0 0 C0.99 0 1.98 0 3 0 C3.309375 0.78375 3.61875 1.5675 3.9375 2.375 C4.92875038 4.92330128 4.92875038 4.92330128 6 7 C5.0625 9.625 5.0625 9.625 4 12 C3.01 12 2.02 12 1 12 C1.33 11.67 1.66 11.34 2 11 C2.28743526 6.78428287 1.79760213 3.81990452 0 0 Z " fill="#DAF3FB" transform="translate(696,148)"/>
<path d="M0 0 C6.6 0.33 13.2 0.66 20 1 C20 1.33 20 1.66 20 2 C18.74703125 2.06058594 17.4940625 2.12117188 16.203125 2.18359375 C14.55207276 2.26802256 12.90103165 2.35266939 11.25 2.4375 C10.425 2.47681641 9.6 2.51613281 8.75 2.55664062 C7.95078125 2.59853516 7.1515625 2.64042969 6.328125 2.68359375 C5.5949707 2.72025146 4.86181641 2.75690918 4.10644531 2.79467773 C1.98822395 3.00114785 0.0480544 3.43132086 -2 4 C-1.34 2.68 -0.68 1.36 0 0 Z " fill="#F2D4BD" transform="translate(514,89)"/>
<path d="M0 0 C1.88646445 2.77421243 1.99303187 4.13239454 1.8125 7.5625 C1.03313844 10.85979889 0.65561386 12.03715497 -2 14 C-2.1799928 8.78020872 -1.97094808 4.92737019 0 0 Z " fill="#556B85" transform="translate(83,48)"/>
<path d="M0 0 C0.33 0 0.66 0 1 0 C0.75 3.375 0.75 3.375 0 7 C-1.9375 8.1875 -1.9375 8.1875 -4 9 C-5.26804566 11.0335948 -5.26804566 11.0335948 -6 13 C-6.66 12.67 -7.32 12.34 -8 12 C-7.50628906 11.30132812 -7.01257813 10.60265625 -6.50390625 9.8828125 C-5.86324219 8.97273437 -5.22257813 8.06265625 -4.5625 7.125 C-3.92441406 6.22007812 -3.28632812 5.31515625 -2.62890625 4.3828125 C-1.00481862 2.12261419 -1.00481862 2.12261419 0 0 Z " fill="#FBE5D7" transform="translate(566,187)"/>
<path d="M0 0 C0 0.99 0 1.98 0 3 C-1.98 3.99 -1.98 3.99 -4 5 C-4 5.66 -4 6.32 -4 7 C-4.66 7 -5.32 7 -6 7 C-6.33 7.66 -6.66 8.32 -7 9 C-6.67 6.69 -6.34 4.38 -6 2 C-4.02 1.34 -2.04 0.68 0 0 Z " fill="#E0E8EB" transform="translate(249,161)"/>
<path d="M0 0 C1.98 0 3.96 0 6 0 C7 2 7 2 6.0625 5.125 C5.711875 6.07375 5.36125 7.0225 5 8 C4.34 8 3.68 8 3 8 C2.01 5.36 1.02 2.72 0 0 Z " fill="#DCE9ED" transform="translate(407,155)"/>
<path d="M0 0 C2.23551759 3.35327639 2.17283528 3.90743657 1.625 7.6875 C1.51414062 8.49574219 1.40328125 9.30398437 1.2890625 10.13671875 C1.19367188 10.75160156 1.09828125 11.36648437 1 12 C0.34 11.67 -0.32 11.34 -1 11 C-1 9.35 -1 7.7 -1 6 C-2.32 5.67 -3.64 5.34 -5 5 C-3.35 4.67 -1.7 4.34 0 4 C0 2.68 0 1.36 0 0 Z " fill="#556E91" transform="translate(403,146)"/>
<path d="M0 0 C0.66 0 1.32 0 2 0 C2.99 2.97 3.98 5.94 5 9 C3.68 9.33 2.36 9.66 1 10 C0 3.375 0 3.375 0 0 Z " fill="#415C7B" transform="translate(392,125)"/>
<path d="M0 0 C-1.43011973 0.86646667 -2.86940619 1.71781829 -4.3125 2.5625 C-5.51326172 3.27599609 -5.51326172 3.27599609 -6.73828125 4.00390625 C-9 5 -9 5 -12 4 C-8.00742806 -0.42034751 -5.71963172 -1.56098282 0 0 Z " fill="#D88652" transform="translate(554,203)"/>
<path d="M0 0 C0.99 0 1.98 0 3 0 C1.125 3.875 1.125 3.875 0 5 C-1.9609375 5.203125 -1.9609375 5.203125 -4.375 5.25 C-5.56222656 5.28867188 -5.56222656 5.28867188 -6.7734375 5.328125 C-9 5 -9 5 -12 2 C-8.37 2.33 -4.74 2.66 -1 3 C-0.67 2.01 -0.34 1.02 0 0 Z " fill="#68A7DE" transform="translate(64,182)"/>
<path d="M0 0 C1.65 0 3.3 0 5 0 C5.125 3.375 5.125 3.375 5 7 C4.34 7.66 3.68 8.32 3 9 C2.01 6.03 1.02 3.06 0 0 Z " fill="#506782" transform="translate(387,157)"/>
<path d="M0 0 C0.268125 0.639375 0.53625 1.27875 0.8125 1.9375 C1.88667752 4.33131686 1.88667752 4.33131686 5 5 C5 5.99 5 6.98 5 8 C0.58110387 6.64978174 -1.34345343 4.73884332 -4 1 C-2.68 0.67 -1.36 0.34 0 0 Z " fill="#DC8055" transform="translate(500,195)"/>
<path d="M0 0 C0.33 0.99 0.66 1.98 1 3 C-0.21484375 4.82421875 -0.21484375 4.82421875 -1.9375 6.6875 C-2.50339844 7.31011719 -3.06929687 7.93273437 -3.65234375 8.57421875 C-4.09707031 9.04472656 -4.54179688 9.51523438 -5 10 C-5.99 9.67 -6.98 9.34 -8 9 C-5.36 6.03 -2.72 3.06 0 0 Z " fill="#DFF2FC" transform="translate(696,162)"/>
<path d="M0 0 C1.32 0.33 2.64 0.66 4 1 C3.44855089 5.08072342 3.08669204 5.91330796 0 9 C0 6.03 0 3.06 0 0 Z " fill="#435479" transform="translate(429,159)"/>
<path d="M0 0 C0.66 0 1.32 0 2 0 C2.25328119 5.06562383 1.33583899 9.15758367 0 14 C-0.33 14 -0.66 14 -1 14 C-1.02705729 12.22925083 -1.04642195 10.45838289 -1.0625 8.6875 C-1.07410156 7.70136719 -1.08570313 6.71523437 -1.09765625 5.69921875 C-1 3 -1 3 0 0 Z " fill="#ECF5F7" transform="translate(383,189)"/>
<path d="M0 0 C0.33 0 0.66 0 1 0 C1 3.63 1 7.26 1 11 C0.01 11 -0.98 11 -2 11 C-2.99 11.495 -2.99 11.495 -4 12 C-3.52309796 10.37433394 -3.04340334 8.74948689 -2.5625 7.125 C-2.29566406 6.22007812 -2.02882813 5.31515625 -1.75390625 4.3828125 C-1 2 -1 2 0 0 Z " fill="#D3E6EF" transform="translate(439,146)"/>
<path d="M0 0 C1.38226016 2.76452033 1.09525387 5.0461363 1.0625 8.125 C1.05347656 9.22070312 1.04445313 10.31640625 1.03515625 11.4453125 C1.02355469 12.28835937 1.01195312 13.13140625 1 14 C-2.14589369 10.22326747 -2.4492926 7.94221855 -2 3 C-1.34 2.01 -0.68 1.02 0 0 Z " fill="#74ABDA" transform="translate(30,149)"/>
<path d="M0 0 C0.66 0 1.32 0 2 0 C2.33 0.99 2.66 1.98 3 3 C0.03 5.475 0.03 5.475 -3 8 C-3.66 7.67 -4.32 7.34 -5 7 C-4.21654285 5.82780457 -3.42297164 4.66236332 -2.625 3.5 C-2.18414063 2.8503125 -1.74328125 2.200625 -1.2890625 1.53125 C-0.65097656 0.77328125 -0.65097656 0.77328125 0 0 Z " fill="#E3ECF3" transform="translate(642,266)"/>
<path d="M0 0 C0.33 0.66 0.66 1.32 1 2 C0.67 2.99 0.34 3.98 0 5 C0.33 5.99 0.66 6.98 1 8 C0.5625 10.6875 0.5625 10.6875 0 13 C-2 11 -2 11 -2.265625 8.90625 C-2.25789063 7.71515625 -2.25789063 7.71515625 -2.25 6.5 C-2.25515625 5.7059375 -2.2603125 4.911875 -2.265625 4.09375 C-2 2 -2 2 0 0 Z " fill="#F7E9E6" transform="translate(508,164)"/>
<path d="M0 0 C3 3 3 3 3.29296875 6.35546875 C3.25816406 7.62003906 3.22335937 8.88460937 3.1875 10.1875 C3.16042969 11.45980469 3.13335938 12.73210937 3.10546875 14.04296875 C3.07066406 15.01878906 3.03585937 15.99460938 3 17 C2.67 17 2.34 17 2 17 C1.34 11.39 0.68 5.78 0 0 Z " fill="#D48559" transform="translate(550,123)"/>
<path d="M0 0 C0.66 0.66 1.32 1.32 2 2 C-1.33333333 2.66666667 -4.66666667 3.33333333 -8 4 C-8 3.01 -8 2.02 -8 1 C-5.23749964 -0.38125018 -3.05268901 -0.19079306 0 0 Z " fill="#506282" transform="translate(374,92)"/>
<path d="M0 0 C0 0.99 0 1.98 0 3 C-1.11375 2.979375 -2.2275 2.95875 -3.375 2.9375 C-6.83215921 2.73619282 -6.83215921 2.73619282 -9 4 C-9.66 3.34 -10.32 2.68 -11 2 C-7.12315913 0.80712589 -4.08378077 0 0 0 Z " fill="#DAE9EE" transform="translate(206,206)"/>
<path d="M0 0 C0.33 0 0.66 0 1 0 C1.10824843 1.6026782 1.18570645 3.20745748 1.25 4.8125 C1.29640625 5.70582031 1.3428125 6.59914062 1.390625 7.51953125 C1 10 1 10 -0.890625 11.82421875 C-3 13 -3 13 -5 13 C-4.34 11.68 -3.68 10.36 -3 9 C-2.34 9 -1.68 9 -1 9 C-0.67 6.03 -0.34 3.06 0 0 Z " fill="#D1DBE3" transform="translate(345,197)"/>
<path d="M0 0 C0 3.10551666 -0.5393715 4.35261084 -2 7 C-2.66 7 -3.32 7 -4 7 C-4.99 8.485 -4.99 8.485 -6 10 C-6.66 9.67 -7.32 9.34 -8 9 C-6.4169423 4.7257442 -3.49431596 2.73468206 0 0 Z " fill="#E1F3FC" transform="translate(687,172)"/>
<path d="M0 0 C0.99 0.33 1.98 0.66 3 1 C1.37660195 2.70884005 -0.29319053 4.37446717 -2 6 C-2.66 6 -3.32 6 -4 6 C-4.33 6.99 -4.66 7.98 -5 9 C-4.67 7.02 -4.34 5.04 -4 3 C-2.68 2.67 -1.36 2.34 0 2 C0 1.34 0 0.68 0 0 Z " fill="#63A7E8" transform="translate(685,171)"/>
<path d="M0 0 C0.66 0 1.32 0 2 0 C2 3.3 2 6.6 2 10 C1.01 9.67 0.02 9.34 -1 9 C-0.67 6.03 -0.34 3.06 0 0 Z " fill="#DE875E" transform="translate(486,168)"/>
<path d="M0 0 C0.33 0 0.66 0 1 0 C1 2.64 1 5.28 1 8 C-2.28976808 9.09658936 -3.71303767 8.79953138 -7 8 C-6.38125 7.7525 -5.7625 7.505 -5.125 7.25 C-2.6170261 5.77472123 -2.07707051 4.65125048 -1 2 C-0.67 1.34 -0.34 0.68 0 0 Z " fill="#3D597C" transform="translate(436,140)"/>
<path d="M0 0 C1.32031595 0.56542004 2.6311301 1.15306472 3.9375 1.75 C4.66839844 2.07484375 5.39929688 2.3996875 6.15234375 2.734375 C8 4 8 4 8.75390625 6.140625 C8.83511719 6.75421875 8.91632812 7.3678125 9 8 C5.92346162 6.97448721 5.19203004 6.19203004 3 4 C2.01 3.67 1.02 3.34 0 3 C0 2.01 0 1.02 0 0 Z " fill="#66A2DE" transform="translate(673,127)"/>
<path d="M0 0 C0.1875 2.375 0.1875 2.375 0 5 C-3 7 -3 7 -6 7 C-5.16086207 4.48258621 -3.22783875 0 0 0 Z " fill="#314E6F" transform="translate(222,171)"/>
<path d="M0 0 C0.33 1.32 0.66 2.64 1 4 C-2.78706732 4 -6.26513121 3.5745952 -10 3 C-10 2.67 -10 2.34 -10 2 C-6.7 1.34 -3.4 0.68 0 0 Z " fill="#48607F" transform="translate(436,151)"/>
<path d="M0 0 C3.3 0.33 6.6 0.66 10 1 C6.1496895 3.56687367 4.41430237 2.83288724 0 2 C0 1.34 0 0.68 0 0 Z " fill="#4C607A" transform="translate(407,192)"/>
<path d="M0 0 C0.66 0 1.32 0 2 0 C2.33 0.99 2.66 1.98 3 3 C2.54625 3.433125 2.0925 3.86625 1.625 4.3125 C-0.20024334 6.10798342 -0.20024334 6.10798342 -2 9 C-3 6 -3 6 -1.5625 2.8125 C-1.046875 1.884375 -0.53125 0.95625 0 0 Z " fill="#435A76" transform="translate(418,147)"/>
<path d="M0 0 C0.99 0.33 1.98 0.66 3 1 C3 3.66666667 3 6.33333333 3 9 C2.34 8.67 1.68 8.34 1 8 C0.40644386 5.35139573 0.25790731 2.70802678 0 0 Z " fill="#495D7F" transform="translate(82,256)"/>
<path d="M0 0 C0 0.66 0 1.32 0 2 C-3.3 2 -6.6 2 -10 2 C-5.86678317 -0.75547789 -4.77928863 -1.13193678 0 0 Z " fill="#435973" transform="translate(340,207)"/>
<path d="M0 0 C2.475 0.495 2.475 0.495 5 1 C5 1.99 5 2.98 5 4 C3.35 4 1.7 4 0 4 C0 2.68 0 1.36 0 0 Z " fill="#395479" transform="translate(413,159)"/>
<path d="M0 0 C2.875 0.6875 2.875 0.6875 6 2 C7.375 4.625 7.375 4.625 8 7 C7.01 7.495 7.01 7.495 6 8 C4.02 5.36 2.04 2.72 0 0 Z " fill="#566882" transform="translate(210,117)"/>
<path d="M0 0 C0 0.99 0 1.98 0 3 C0.66 3.33 1.32 3.66 2 4 C-0.97 3.67 -3.94 3.34 -7 3 C-6.67 2.34 -6.34 1.68 -6 1 C-3.911361 0.32624548 -2.19636905 0 0 0 Z " fill="#D6E3E9" transform="translate(620,23)"/>
<path d="M0 0 C2.8125 -0.1875 2.8125 -0.1875 6 0 C6.99 0.99 7.98 1.98 9 3 C6.03 2.67 3.06 2.34 0 2 C0 1.34 0 0.68 0 0 Z " fill="#44607D" transform="translate(104,279)"/>
<path d="M0 0 C2 4 2 4 1.3125 6.1875 C0 8 0 8 -3 9 C-2.01 6.03 -1.02 3.06 0 0 Z " fill="#738699" transform="translate(425,128)"/>
<path d="M0 0 C0.66 0.33 1.32 0.66 2 1 C0.625 2.5 0.625 2.5 -1 4 C-1.66 4 -2.32 4 -3 4 C-3 4.99 -3 5.98 -3 7 C-4.32 6.67 -5.64 6.34 -7 6 C-4.69 4.02 -2.38 2.04 0 0 Z " fill="#6DA6DA" transform="translate(50,129)"/>
<path d="M0 0 C2.475 0.495 2.475 0.495 5 1 C5.33 2.98 5.66 4.96 6 7 C1.125 2.25 1.125 2.25 0 0 Z " fill="#D5814C" transform="translate(544,116)"/>
</svg>
