<?xml version="1.0" encoding="UTF-8"?>
<svg version="1.1" xmlns="http://www.w3.org/2000/svg" width="835" height="224">
<path d="M0 0 C275.55 0 551.1 0 835 0 C835 73.92 835 147.84 835 224 C559.45 224 283.9 224 0 224 C0 150.08 0 76.16 0 0 Z " fill="#FDFEFE" transform="translate(0,0)"/>
<path d="M0 0 C0.9095891 -0.00445784 1.8191782 -0.00891569 2.75633061 -0.01350862 C3.75699051 -0.01332426 4.75765042 -0.01313989 5.78863335 -0.01294994 C6.85065369 -0.01662663 7.91267404 -0.02030332 9.00687683 -0.02409142 C12.58345634 -0.03514869 16.16000681 -0.03897558 19.73660088 -0.04278088 C22.29383754 -0.049044 24.85107329 -0.05569067 27.40830803 -0.0626936 C35.0957088 -0.0819362 42.78310447 -0.09252447 50.47052318 -0.10142139 C54.09153346 -0.10580515 57.71254228 -0.11117178 61.33355141 -0.11641026 C73.37252117 -0.13342322 85.41149003 -0.14791667 97.45046997 -0.155159 C100.57465554 -0.15706887 103.69884111 -0.1589892 106.82302666 -0.16094494 C107.98776639 -0.16167055 107.98776639 -0.16167055 109.17603622 -0.16241082 C121.75043822 -0.17070841 134.32474501 -0.1960404 146.89910544 -0.22852562 C159.81189749 -0.26161284 172.72464119 -0.27960931 185.63747585 -0.28280324 C192.88632795 -0.28496693 200.13504125 -0.29369471 207.38385201 -0.31926441 C214.20464025 -0.34326878 221.02517509 -0.34678662 227.84599686 -0.33650303 C230.34814153 -0.33600704 232.8502984 -0.34234584 235.35240555 -0.35605907 C238.77163315 -0.37374863 242.18996172 -0.3666852 245.60918999 -0.35352612 C247.09010335 -0.36997998 247.09010335 -0.36997998 248.60093415 -0.38676625 C255.47786725 -0.32298766 261.95843347 0.83011972 267.20497715 5.61693496 C270.44300598 9.33753076 271.70050511 12.40944593 271.72030449 17.26204395 C271.72601463 18.10154591 271.73172478 18.94104786 271.73760796 19.80598927 C271.73872581 20.72391758 271.73984367 21.64184589 271.74099541 22.58759022 C271.74596031 23.557076 271.75092522 24.52656178 271.75604057 25.52542591 C271.7706709 28.74008357 271.77746728 31.95469181 271.78298759 35.16937733 C271.78874033 37.40557831 271.79449805 39.64177928 271.80026054 41.87798023 C271.81077438 46.57301533 271.81661389 51.26803329 271.82009697 55.9630785 C271.82556861 61.96283545 271.84956666 67.96236397 271.87806892 73.96204948 C271.89675032 78.58533341 271.90190394 83.20856305 271.90343285 87.83188152 C271.90644978 90.04254302 271.91444572 92.25320378 271.92761803 94.46382809 C271.94478597 97.56775515 271.9427715 100.67113417 271.93630791 103.77509022 C271.94552269 104.67884892 271.95473747 105.58260761 271.96423149 106.51375294 C271.92083867 113.20864538 271.45436992 120.92426658 266.80586433 126.1152401 C263.03047243 129.45362684 260.33985584 131.25765574 255.24595165 131.26564884 C254.33015341 131.26948999 253.41435517 131.27333113 252.47080547 131.27728868 C251.45808659 131.27642219 250.4453677 131.27555571 249.40196037 131.27466297 C248.33121621 131.27763409 247.26047205 131.28060522 246.1572811 131.28366637 C242.54528552 131.29238441 238.93332296 131.29386424 235.32131767 131.29535389 C232.74127951 131.29997991 230.16124204 131.30500428 227.58120537 131.31039906 C220.55422013 131.3239944 213.52724058 131.33000926 206.50024438 131.33440971 C202.11309834 131.33717071 197.72595451 131.34140786 193.33880997 131.34591389 C181.19436119 131.35810926 169.04991418 131.3684073 156.9054594 131.37178898 C156.12780882 131.37200854 155.35015824 131.37222811 154.54894249 131.37245433 C153.37965213 131.37278175 153.37965213 131.37278175 152.18673974 131.37311578 C150.60708733 131.37355925 149.02743492 131.37400581 147.44778252 131.37445545 C146.27243575 131.3747876 146.27243575 131.3747876 145.07334461 131.37512645 C132.38114947 131.37907314 119.68901179 131.39652201 106.99683885 131.41981497 C93.96882647 131.44353138 80.94084291 131.455991 67.9128086 131.4571569 C60.59696398 131.45807362 53.28119418 131.46382494 45.96537018 131.48197651 C39.08307342 131.498992 32.20092086 131.5006279 25.31860924 131.4918375 C22.79144155 131.49106541 20.26426632 131.49543236 17.73711777 131.50529575 C14.28880258 131.51796574 10.84099443 131.51216486 7.39268303 131.50171375 C5.89033512 131.51379836 5.89033512 131.51379836 4.35763675 131.5261271 C-2.78986022 131.47541756 -7.627371 130.49255715 -13.23263741 125.75922108 C-17.84231396 120.22760921 -17.70885744 115.12894876 -17.67892647 108.22259998 C-17.68243111 107.22849613 -17.68593575 106.23439228 -17.68954659 105.21016407 C-17.69834215 101.926966 -17.69252143 98.64398381 -17.68576241 95.36078358 C-17.68710989 93.07541328 -17.68905112 90.79004327 -17.69156075 88.50467396 C-17.69450924 83.71482076 -17.6902239 78.92504217 -17.68087959 74.13519764 C-17.6694982 68.0029635 -17.67603803 61.8709047 -17.68802452 55.73867702 C-17.69526148 51.01857661 -17.69294651 46.29851755 -17.68776894 41.57841587 C-17.68643685 39.31783877 -17.68806467 37.0572579 -17.69272804 34.79668522 C-17.69782193 31.63256653 -17.69004207 28.46872906 -17.67892647 25.30463123 C-17.68297493 24.37452732 -17.68702339 23.44442341 -17.69119453 22.48613453 C-17.65253787 16.52924622 -17.58956165 10.704367 -13.58029366 5.95453358 C-12.88806709 5.39508045 -12.19584053 4.83562733 -11.48263741 4.25922108 C-10.79298897 3.6842992 -10.10334053 3.10937733 -9.39279366 2.51703358 C-6.28089537 0.33562369 -3.69118305 0.00839047 0 0 Z " fill="#FCFCFC" transform="translate(68.42013740539551,52.86577892303467)"/>
<path d="M0 0 C275.55 0 551.1 0 835 0 C835 73.92 835 147.84 835 224 C559.45 224 283.9 224 0 224 C0 150.08 0 76.16 0 0 Z M17.5625 33.625 C16.69122167 34.73680024 15.83459431 35.86040444 15 37 C14.4225 37.763125 13.845 38.52625 13.25 39.3125 C9.58821097 47.18534641 9.71030707 55.91932703 9.74121094 64.43530273 C9.7377063 65.6382901 9.73420166 66.84127747 9.73059082 68.08071899 C9.72334254 71.35147791 9.72497711 74.62207253 9.73134899 77.8928287 C9.73645294 81.33497352 9.73170532 84.77710824 9.72857666 88.21925354 C9.72494923 93.99815813 9.72970335 99.77701142 9.73925781 105.5559082 C9.75013485 112.21106407 9.74661732 118.8660973 9.735605 125.52125019 C9.72649093 131.26171421 9.72526704 137.00214159 9.73048234 142.74261051 C9.73358017 146.15947129 9.73407235 149.57627468 9.72740936 152.99313164 C9.72230079 156.80727162 9.73011549 160.6211799 9.74121094 164.43530273 C9.73716248 165.54888657 9.73311401 166.6624704 9.72894287 167.80979919 C9.7985235 180.79453799 11.44410762 190.39598092 20.83984375 199.8515625 C22.5057274 201.33153791 24.20302825 202.68396959 26 204 C26.763125 204.5775 27.52625 205.155 28.3125 205.75 C36.29683682 209.46364503 45.15556076 209.28649611 53.78784084 209.25168228 C55.67936508 209.2560426 55.67936508 209.2560426 57.60910192 209.26049101 C61.09921853 209.26825184 64.58922393 209.26363362 68.07933865 209.25693511 C71.88019635 209.25185018 75.68103733 209.25838611 79.48189265 209.26342177 C86.14012864 209.2706394 92.79833219 209.27042954 99.45656967 209.26532745 C109.35767353 209.25776105 119.25875003 209.26163074 129.15985371 209.26774407 C146.84371392 209.27827631 164.52755967 209.27736243 182.21142125 209.27158624 C197.6874483 209.26655601 213.16347006 209.26524132 228.63949776 209.26763153 C229.6658833 209.2677843 230.69226884 209.26793707 231.74975698 209.26809447 C235.91615509 209.26871714 240.0825532 209.26935394 244.24895131 209.270014 C283.3376205 209.27613277 322.42628048 209.27058393 361.51494825 209.2598202 C396.24426405 209.25032962 430.97356518 209.25117757 465.70288086 209.26074219 C504.71834859 209.27145131 543.73380818 209.27569813 582.74927717 209.26951766 C586.90841361 209.26887622 591.06755004 209.26825054 595.22668648 209.26763153 C596.25077748 209.26747338 597.27486848 209.26731522 598.32999254 209.26715227 C613.79574634 209.2648772 629.26149425 209.26753814 644.72724724 209.27259064 C662.31303839 209.27830707 679.89881284 209.27688395 697.48460191 209.26602915 C707.32708172 209.26015432 717.16952533 209.2597765 727.01200421 209.2673215 C733.58641329 209.27180551 740.16079334 209.26901647 746.73519812 209.26031196 C750.48102104 209.25555441 754.22677205 209.25392774 757.9725927 209.26112393 C762.01056092 209.2688022 766.04835325 209.26097984 770.08631802 209.25168228 C771.24498671 209.25636461 772.4036554 209.26104695 773.59743527 209.26587117 C786.66798395 209.20559531 796.32740055 207.6240387 805.8515625 198.16015625 C807.33132199 196.49451564 808.68210174 194.79514381 810 193 C810.5775 192.2575 811.155 191.515 811.75 190.75 C815.46302161 182.58135246 815.29080025 173.24040858 815.25878906 164.43530273 C815.2622937 163.23056305 815.26579834 162.02582336 815.26940918 160.78457642 C815.27664915 157.51394369 815.27502885 154.24347572 815.26865101 150.97284579 C815.26354259 147.53023895 815.26829568 144.08764212 815.27142334 140.64503479 C815.27504851 134.86791037 815.27030161 129.0908373 815.26074219 123.3137207 C815.24985526 116.65795608 815.25339078 110.00231399 815.264395 103.34655231 C815.27350319 97.60523451 815.27473611 91.86395336 815.26951766 86.12263066 C815.26641796 82.70525772 815.26593314 79.28794217 815.27259064 75.87057304 C815.27769271 72.05873302 815.26989397 68.24712552 815.25878906 64.43530273 C815.26486176 62.76189064 815.26486176 62.76189064 815.27105713 61.05467224 C815.20316167 48.41835733 813.2831304 39.34498288 804.16015625 30.14453125 C802.49379176 28.66777498 800.79401253 27.31706774 799 26 C798.2575 25.4225 797.515 24.845 796.75 24.25 C788.47097379 20.48680627 779.00536667 20.71227467 770.08631802 20.74831772 C768.19261362 20.7439574 768.19261362 20.7439574 766.26065257 20.73950899 C762.77112853 20.7317581 759.28171592 20.73636109 755.7921938 20.74306489 C751.99025502 20.74815467 748.18833286 20.74161199 744.38639647 20.73657823 C737.72784286 20.72936416 731.0693217 20.72956826 724.4107666 20.73467255 C714.50925998 20.74224215 704.6077807 20.73836762 694.70627426 20.73225593 C677.02177369 20.72172645 659.33728757 20.72263642 641.65278563 20.72841376 C626.1774177 20.73344459 610.70205506 20.7347584 595.22668648 20.73236847 C594.20022455 20.7322157 593.17376262 20.73206293 592.11619579 20.73190553 C587.94947775 20.73128285 583.78275972 20.73064605 579.61604169 20.729986 C540.52907147 20.72386797 501.44211045 20.72941506 462.35514165 20.7401798 C427.62567219 20.74967172 392.89621739 20.74882116 358.16674805 20.73925781 C319.14981774 20.72854976 280.13289557 20.72430115 241.115964 20.73048234 C236.95714192 20.73112378 232.79831984 20.73174946 228.63949776 20.73236847 C227.61548583 20.73252662 226.59147391 20.73268478 225.53643133 20.73284773 C210.06977113 20.7351231 194.60311682 20.73246133 179.13645744 20.72740936 C161.55175987 20.72169421 143.96707901 20.72311337 126.38238352 20.73397085 C116.53968832 20.73984756 106.69702931 20.74022078 96.85433504 20.7326785 C90.28109421 20.72819682 83.70788242 20.73097931 77.1346459 20.73968804 C73.38868764 20.74444879 69.64280134 20.74606562 65.89684533 20.73887607 C61.86045057 20.73120808 57.82423211 20.73901307 53.78784084 20.74831772 C52.62683098 20.74363539 51.46582113 20.73895305 50.26962915 20.73412883 C36.68832682 20.79690481 26.85815833 23.13582505 17.5625 33.625 Z " fill="#FEFEFE" transform="translate(0,0)"/>
<path d="M0 0 C1.26101616 -0.00290688 2.52203231 -0.00581376 3.82126108 -0.00880873 C7.31137769 -0.01656956 10.80138308 -0.01195134 14.29149781 -0.00525283 C18.09235551 -0.0001679 21.89319649 -0.00670383 25.6940518 -0.01173949 C32.3522878 -0.01895712 39.01049135 -0.01874726 45.66872883 -0.01364517 C55.56983269 -0.00607877 65.47090919 -0.00994846 75.37201287 -0.01606179 C93.05587307 -0.02659403 110.73971883 -0.02568015 128.42358041 -0.01990396 C143.89960746 -0.01487373 159.37562921 -0.01355904 174.85165691 -0.01594925 C175.87804246 -0.01610202 176.904428 -0.01625479 177.96191613 -0.01641219 C182.12831425 -0.01703486 186.29471236 -0.01767166 190.46111047 -0.01833172 C229.54977965 -0.02445049 268.63843964 -0.01890165 307.7271074 -0.00813792 C342.45642321 0.00135266 377.18572434 0.00050471 411.91504002 -0.00905991 C450.93050774 -0.01976902 489.94596734 -0.02401585 528.96143633 -0.01783538 C533.12057276 -0.01719394 537.2797092 -0.01656826 541.43884563 -0.01594925 C542.46293663 -0.01579109 543.48702763 -0.01563294 544.54215169 -0.01546999 C560.00790549 -0.01319492 575.47365341 -0.01585586 590.93940639 -0.02090836 C608.52519755 -0.02662479 626.11097199 -0.02520167 643.69676106 -0.01434687 C653.53924087 -0.00847204 663.38168449 -0.00809422 673.22416337 -0.01563922 C679.79857244 -0.02012323 686.3729525 -0.01733419 692.94735728 -0.00862968 C696.6931802 -0.00387212 700.4389312 -0.00224546 704.18475186 -0.00944164 C708.22272008 -0.01711992 712.26051241 -0.00929756 716.29847717 0 C717.45714587 -0.00468233 718.61581456 -0.00936466 719.80959442 -0.01418889 C732.8801431 0.04608697 742.5395597 1.62764358 752.06372166 11.09152603 C753.54369707 12.75740968 754.89612875 14.45471053 756.21215916 16.25168228 C757.07840916 17.39636978 757.07840916 17.39636978 757.96215916 18.56418228 C761.62394818 26.43702869 761.50185209 35.17100932 761.47094822 43.68698502 C761.47620518 45.49146606 761.47620518 45.49146606 761.48156834 47.33240128 C761.48881661 50.6031602 761.48718204 53.87375481 761.48081017 57.14451098 C761.47570622 60.5866558 761.48045383 64.02879052 761.4835825 67.47093582 C761.48720993 73.24984041 761.48245581 79.0286937 761.47290134 84.80759048 C761.4620243 91.46274635 761.46554184 98.11777958 761.47655416 104.77293247 C761.48566822 110.51339649 761.48689212 116.25382387 761.48167682 121.9942928 C761.47857899 125.41115357 761.4780868 128.82795696 761.48474979 132.24481392 C761.48985836 136.0589539 761.48204366 139.87286218 761.47094822 143.68698502 C761.47499668 144.80056885 761.47904514 145.91415268 761.48321629 147.06148148 C761.41363566 160.04622027 759.76805154 169.6476632 750.37231541 179.10324478 C748.7066748 180.58300427 747.00730296 181.93378402 745.21215916 183.25168228 C744.46965916 183.82918228 743.72715916 184.40668228 742.96215916 185.00168228 C734.68313294 188.76487602 725.21752582 188.53940761 716.29847717 188.50336456 C715.03600758 188.50627144 713.77353798 188.50917833 712.47281173 188.5121733 C708.98328768 188.51992418 705.49387508 188.5153212 702.00435295 188.50861739 C698.20241418 188.50352761 694.40049202 188.51007029 690.59855562 188.51510406 C683.94000201 188.52231812 677.28148085 188.52211402 670.62292576 188.51700974 C660.72141914 188.50944013 650.81993985 188.51331466 640.91843341 188.51942635 C623.23393284 188.52995584 605.54944673 188.52904586 587.86494478 188.52326852 C572.38957685 188.51823769 556.91421422 188.51692389 541.43884563 188.51931381 C539.89915274 188.51954297 539.89915274 188.51954297 538.32835495 188.51977675 C534.16163691 188.52039943 529.99491888 188.52103623 525.82820085 188.52169628 C486.74123062 188.52781431 447.65426961 188.52226722 408.56730081 188.51150249 C373.83783134 188.50201057 339.10837654 188.50286113 304.3789072 188.51242447 C265.3619769 188.52313252 226.34505472 188.52738113 187.32812315 188.52119994 C183.16930107 188.5205585 179.01047899 188.51993282 174.85165691 188.51931381 C173.82764499 188.51915566 172.80363307 188.5189975 171.74859048 188.51883456 C156.28193029 188.51655918 140.81527598 188.51922095 125.3486166 188.52427292 C107.76391902 188.52998807 90.17923816 188.52856891 72.59454267 188.51771143 C62.75184747 188.51183472 52.90918847 188.5114615 43.0664942 188.51900378 C36.49325337 188.52348546 29.92004158 188.52070297 23.34680506 188.51199424 C19.6008468 188.50723349 15.8549605 188.50561667 12.10900449 188.51280621 C8.07260972 188.5204742 4.03639127 188.51266921 0 188.50336456 C-1.16100986 188.5080469 -2.32201972 188.51272923 -3.51821169 188.51755345 C-16.24653213 188.45872015 -25.36960279 186.60745096 -34.64330959 177.41183853 C-36.12006587 175.74547405 -37.4707731 174.04569482 -38.78784084 172.25168228 C-39.36534084 171.50918228 -39.94284084 170.76668228 -40.53784084 170.00168228 C-44.25086245 161.83303474 -44.07864109 152.49209086 -44.04662991 143.68698502 C-44.05013454 142.48224533 -44.05363918 141.27750565 -44.05725002 140.0362587 C-44.06449 136.76562597 -44.0628697 133.495158 -44.05649185 130.22452807 C-44.05138343 126.78192123 -44.05613652 123.3393244 -44.05926418 119.89671707 C-44.06288936 114.11959265 -44.05814246 108.34251959 -44.04858303 102.56540298 C-44.0376961 95.90963836 -44.04123162 89.25399627 -44.05223584 82.59823459 C-44.06134403 76.85691679 -44.06257695 71.11563564 -44.0573585 65.37431294 C-44.05425881 61.95694 -44.05377398 58.53962446 -44.06043148 55.12225533 C-44.06553355 51.3104153 -44.05773481 47.49880781 -44.04662991 43.68698502 C-44.05067837 42.57137695 -44.05472683 41.45576889 -44.05889797 40.30635452 C-43.99100251 27.67003961 -42.07097124 18.59666516 -32.94799709 9.39621353 C-31.28139134 7.91924345 -29.58367751 6.5668814 -27.78784084 5.25168228 C-27.02471584 4.67418228 -26.26159084 4.09668228 -25.47534084 3.50168228 C-17.49100402 -0.21196275 -8.63228008 -0.03481383 0 0 Z M-29.53393459 20.21261978 C-33.98878976 27.45696369 -34.228696 33.43025479 -34.20776272 41.82126236 C-34.21623226 43.07418579 -34.22470181 44.32710922 -34.233428 45.61800003 C-34.252765 49.03981175 -34.25857882 52.46107703 -34.25668049 55.8829062 C-34.25656038 58.74791982 -34.26514125 61.61288305 -34.273458 64.47788256 C-34.29266331 71.24276765 -34.2955868 78.00752936 -34.28881741 84.77243423 C-34.28218227 91.7304822 -34.30502578 98.6879993 -34.34213114 105.64593965 C-34.37291423 111.6377258 -34.38417879 117.62934195 -34.38029432 123.62120551 C-34.37823525 127.19192273 -34.38357394 130.76222688 -34.40818691 134.33286858 C-34.43476649 138.32023766 -34.42066112 142.30649957 -34.40307522 146.29391861 C-34.41633846 147.46256454 -34.42960171 148.63121048 -34.44326687 149.83526993 C-34.35908628 158.07751759 -32.73680797 164.94983152 -27.0324316 171.16395664 C-19.56619761 178.19517206 -12.13914508 178.68878148 -2.28826332 178.63479233 C-1.02196723 178.63975184 0.24432885 178.64471136 1.54899755 178.64982116 C5.06794104 178.66316825 8.58664686 178.65784408 12.10559663 178.64948767 C15.93244361 178.6436857 19.75924471 178.65522635 23.5860793 178.66454935 C30.29455398 178.67847317 37.00296122 178.68119205 43.71144772 178.67658997 C53.68725476 178.66976419 63.66299339 178.6800074 73.63879093 178.69354752 C92.49129478 178.71847751 111.34377034 178.72297557 130.19628803 178.72108155 C144.75315385 178.71970929 159.31000984 178.72352218 173.86687374 178.73100662 C175.95713555 178.73205695 178.04739735 178.73310457 180.13765916 178.73414949 C181.1752331 178.73466883 182.21280703 178.73518817 183.28182261 178.73572326 C184.32127976 178.7362434 185.36073692 178.73676354 186.43169278 178.73729944 C187.47287057 178.73782343 188.51404837 178.73834743 189.58677701 178.7388873 C218.8775427 178.75347406 248.16830477 178.76175155 277.45907402 178.7571373 C278.56365634 178.75696534 279.66823866 178.75679339 280.80629316 178.75661622 C286.40494007 178.75572731 292.00358697 178.7547825 297.60223386 178.75381821 C298.71417144 178.75362718 299.82610902 178.75343615 300.97174168 178.75323933 C303.22035052 178.75285223 305.46895937 178.75246191 307.71756822 178.75206835 C342.70822385 178.74609793 377.69881336 178.76153706 412.68945408 178.79367447 C451.98909385 178.82973878 491.28869168 178.84908582 530.58834904 178.84413576 C534.77756512 178.84366577 538.96678119 178.84325552 543.15599728 178.84288406 C544.18751095 178.84278168 545.21902463 178.84267929 546.2817963 178.8425738 C561.8637037 178.84137821 577.44556584 178.85335609 593.02746105 178.87202835 C610.74586157 178.8932504 628.46416707 178.89713052 646.18257181 178.87772876 C656.10085902 178.86739049 666.01891455 178.8709033 675.93718089 178.89425961 C682.56095315 178.90847647 689.18455372 178.90454487 695.80831434 178.88581385 C699.58331087 178.87565001 703.35785599 178.87336778 707.13282458 178.89313453 C711.20059511 178.91424247 715.26728928 178.89664775 719.33505821 178.87530136 C720.50523319 178.88757889 721.67540816 178.89985641 722.88104299 178.91250598 C731.08539102 178.82226357 737.94036577 177.17233848 744.12474861 171.49630579 C751.16435354 164.01946745 751.65669336 156.54783932 751.63208103 146.6821022 C751.64055058 145.42917877 751.64902012 144.17625534 751.65774632 142.88536453 C751.67708332 139.46355282 751.68289713 136.04228753 751.6809988 132.62045836 C751.68087869 129.75544475 751.68945956 126.89048151 751.69777632 124.025482 C751.71698163 117.26059691 751.71990512 110.4958352 751.71313572 103.73093033 C751.70650058 96.77288236 751.7293441 89.81536526 751.76644945 82.85742491 C751.79723255 76.86563877 751.8084971 70.87402261 751.80461264 64.88215905 C751.80255356 61.31144184 751.80789225 57.74113768 751.83250523 54.17049599 C751.8590848 50.1831269 751.84497943 46.19686499 751.82739353 42.20944595 C751.84065678 41.04080002 751.85392002 39.87215408 751.86758518 38.66809464 C751.78340459 30.42584697 750.16112628 23.55353304 744.45674992 17.33940792 C736.99051593 10.30819251 729.5634634 9.81458308 719.71258163 9.86857224 C718.44628555 9.86361272 717.17998946 9.8586532 715.87532076 9.8535434 C712.35637727 9.84019631 708.83767145 9.84552048 705.31872169 9.8538769 C701.4918747 9.85967886 697.66507361 9.84813821 693.83823901 9.83881521 C687.12976433 9.82489139 680.42135709 9.82217251 673.7128706 9.8267746 C663.73706356 9.83360037 653.76132492 9.82335717 643.78552738 9.80981704 C624.93302353 9.78488705 606.08054797 9.78038899 587.22803029 9.78228301 C572.67116446 9.78365527 558.11430847 9.77984238 543.55744457 9.77235794 C541.46718277 9.77130761 539.37692096 9.77026 537.28665916 9.76921508 C535.73029825 9.76843606 535.73029825 9.76843606 534.14249571 9.76764131 C533.10303855 9.76712117 532.06358139 9.76660102 530.99262553 9.76606512 C529.95144774 9.76554113 528.91026995 9.76501714 527.83754131 9.76447727 C498.54677562 9.7498905 469.25601354 9.74161301 439.96524429 9.74622726 C438.86066198 9.74639922 437.75607966 9.74657117 436.61802515 9.74674834 C431.01937824 9.74763725 425.42073134 9.74858206 419.82208445 9.74954635 C418.71014687 9.74973738 417.59820929 9.74992841 416.45257664 9.75012524 C414.20396779 9.75051233 411.95535894 9.75090266 409.7067501 9.75129621 C374.71609446 9.75726663 339.72550496 9.74182751 304.73486423 9.70969009 C265.43522447 9.67362578 226.13562663 9.65427875 186.83596927 9.6592288 C182.6467532 9.65969879 178.45753712 9.66010904 174.26832104 9.6604805 C173.23680736 9.66058289 172.20529368 9.66068527 171.14252202 9.66079076 C155.56061462 9.66198635 139.97875247 9.65000848 124.39685726 9.63133621 C106.67845674 9.61011416 88.96015125 9.60623404 71.24174651 9.6256358 C61.3234593 9.63597408 51.40540376 9.63246127 41.48713742 9.60910495 C34.86336516 9.59488809 28.2397646 9.5988197 21.61600397 9.61755071 C17.84100745 9.62771455 14.06646232 9.62999678 10.29149374 9.61023003 C6.2237232 9.5891221 2.15702904 9.60671681 -1.9107399 9.6280632 C-3.08091487 9.61578568 -4.25108985 9.60350815 -5.45672467 9.59085858 C-15.35133951 9.69969281 -23.12582403 12.44637235 -29.53393459 20.21261978 Z " fill="#2F528F" transform="translate(53.787840843200684,20.74831771850586)"/>
<path d="M0 0 C0.9095891 -0.00445784 1.8191782 -0.00891569 2.75633061 -0.01350862 C3.75699051 -0.01332426 4.75765042 -0.01313989 5.78863335 -0.01294994 C6.85065369 -0.01662663 7.91267404 -0.02030332 9.00687683 -0.02409142 C12.58345634 -0.03514869 16.16000681 -0.03897558 19.73660088 -0.04278088 C22.29383754 -0.049044 24.85107329 -0.05569067 27.40830803 -0.0626936 C35.0957088 -0.0819362 42.78310447 -0.09252447 50.47052318 -0.10142139 C54.09153346 -0.10580515 57.71254228 -0.11117178 61.33355141 -0.11641026 C73.37252117 -0.13342322 85.41149003 -0.14791667 97.45046997 -0.155159 C100.57465554 -0.15706887 103.69884111 -0.1589892 106.82302666 -0.16094494 C107.98776639 -0.16167055 107.98776639 -0.16167055 109.17603622 -0.16241082 C121.75043822 -0.17070841 134.32474501 -0.1960404 146.89910544 -0.22852562 C159.81189749 -0.26161284 172.72464119 -0.27960931 185.63747585 -0.28280324 C192.88632795 -0.28496693 200.13504125 -0.29369471 207.38385201 -0.31926441 C214.20464025 -0.34326878 221.02517509 -0.34678662 227.84599686 -0.33650303 C230.34814153 -0.33600704 232.8502984 -0.34234584 235.35240555 -0.35605907 C238.77163315 -0.37374863 242.18996172 -0.3666852 245.60918999 -0.35352612 C247.09010335 -0.36997998 247.09010335 -0.36997998 248.60093415 -0.38676625 C255.47786725 -0.32298766 261.95843347 0.83011972 267.20497715 5.61693496 C270.44300598 9.33753076 271.70050511 12.40944593 271.72030449 17.26204395 C271.72601463 18.10154591 271.73172478 18.94104786 271.73760796 19.80598927 C271.73872581 20.72391758 271.73984367 21.64184589 271.74099541 22.58759022 C271.74596031 23.557076 271.75092522 24.52656178 271.75604057 25.52542591 C271.7706709 28.74008357 271.77746728 31.95469181 271.78298759 35.16937733 C271.78874033 37.40557831 271.79449805 39.64177928 271.80026054 41.87798023 C271.81077438 46.57301533 271.81661389 51.26803329 271.82009697 55.9630785 C271.82556861 61.96283545 271.84956666 67.96236397 271.87806892 73.96204948 C271.89675032 78.58533341 271.90190394 83.20856305 271.90343285 87.83188152 C271.90644978 90.04254302 271.91444572 92.25320378 271.92761803 94.46382809 C271.94478597 97.56775515 271.9427715 100.67113417 271.93630791 103.77509022 C271.94552269 104.67884892 271.95473747 105.58260761 271.96423149 106.51375294 C271.92083867 113.20864538 271.45436992 120.92426658 266.80586433 126.1152401 C263.03047243 129.45362684 260.33985584 131.25765574 255.24595165 131.26564884 C254.33015341 131.26948999 253.41435517 131.27333113 252.47080547 131.27728868 C251.45808659 131.27642219 250.4453677 131.27555571 249.40196037 131.27466297 C248.33121621 131.27763409 247.26047205 131.28060522 246.1572811 131.28366637 C242.54528552 131.29238441 238.93332296 131.29386424 235.32131767 131.29535389 C232.74127951 131.29997991 230.16124204 131.30500428 227.58120537 131.31039906 C220.55422013 131.3239944 213.52724058 131.33000926 206.50024438 131.33440971 C202.11309834 131.33717071 197.72595451 131.34140786 193.33880997 131.34591389 C181.19436119 131.35810926 169.04991418 131.3684073 156.9054594 131.37178898 C156.12780882 131.37200854 155.35015824 131.37222811 154.54894249 131.37245433 C153.37965213 131.37278175 153.37965213 131.37278175 152.18673974 131.37311578 C150.60708733 131.37355925 149.02743492 131.37400581 147.44778252 131.37445545 C146.27243575 131.3747876 146.27243575 131.3747876 145.07334461 131.37512645 C132.38114947 131.37907314 119.68901179 131.39652201 106.99683885 131.41981497 C93.96882647 131.44353138 80.94084291 131.455991 67.9128086 131.4571569 C60.59696398 131.45807362 53.28119418 131.46382494 45.96537018 131.48197651 C39.08307342 131.498992 32.20092086 131.5006279 25.31860924 131.4918375 C22.79144155 131.49106541 20.26426632 131.49543236 17.73711777 131.50529575 C14.28880258 131.51796574 10.84099443 131.51216486 7.39268303 131.50171375 C5.89033512 131.51379836 5.89033512 131.51379836 4.35763675 131.5261271 C-2.78986022 131.47541756 -7.627371 130.49255715 -13.23263741 125.75922108 C-17.84231396 120.22760921 -17.70885744 115.12894876 -17.67892647 108.22259998 C-17.68243111 107.22849613 -17.68593575 106.23439228 -17.68954659 105.21016407 C-17.69834215 101.926966 -17.69252143 98.64398381 -17.68576241 95.36078358 C-17.68710989 93.07541328 -17.68905112 90.79004327 -17.69156075 88.50467396 C-17.69450924 83.71482076 -17.6902239 78.92504217 -17.68087959 74.13519764 C-17.6694982 68.0029635 -17.67603803 61.8709047 -17.68802452 55.73867702 C-17.69526148 51.01857661 -17.69294651 46.29851755 -17.68776894 41.57841587 C-17.68643685 39.31783877 -17.68806467 37.0572579 -17.69272804 34.79668522 C-17.69782193 31.63256653 -17.69004207 28.46872906 -17.67892647 25.30463123 C-17.68297493 24.37452732 -17.68702339 23.44442341 -17.69119453 22.48613453 C-17.65253787 16.52924622 -17.58956165 10.704367 -13.58029366 5.95453358 C-12.88806709 5.39508045 -12.19584053 4.83562733 -11.48263741 4.25922108 C-10.79298897 3.6842992 -10.10334053 3.10937733 -9.39279366 2.51703358 C-6.28089537 0.33562369 -3.69118305 0.00839047 0 0 Z M-4.42013741 15.13422108 C-4.72550862 16.99668543 -4.72550862 16.99668543 -4.68083382 19.15092945 C-4.68791862 19.99075871 -4.69500343 20.83058796 -4.70230293 21.69586658 C-4.69982552 22.61903675 -4.6973481 23.54220692 -4.69479561 24.49335194 C-4.69990654 25.46418217 -4.70501747 26.4350124 -4.71028328 27.43526173 C-4.7242265 30.65659148 -4.72321895 33.87770842 -4.72091866 37.09906483 C-4.724803 39.33104501 -4.72913713 41.56302446 -4.73390388 43.79500294 C-4.7413763 48.47833112 -4.74106744 53.16158393 -4.73581123 57.84491444 C-4.7300155 63.85549877 -4.74694536 69.86577506 -4.77015591 75.87630844 C-4.78486632 80.48731264 -4.78576861 85.0982422 -4.78264618 89.70926571 C-4.78316076 91.92570639 -4.78842389 94.14215111 -4.7984581 96.35856915 C-4.81075287 99.45448334 -4.80407258 102.54979166 -4.79245186 105.64569569 C-4.8000956 106.56684162 -4.80773933 107.48798756 -4.8156147 108.437047 C-4.80860039 109.27969608 -4.80158607 110.12234516 -4.79435921 110.99052906 C-4.79452695 111.72260043 -4.79469469 112.4546718 -4.79486752 113.20892715 C-4.30027172 115.75006877 -3.42624243 116.52557763 -1.42013741 118.13422108 C0.64117631 118.5820641 0.64117631 118.5820641 2.95429039 118.5117445 C3.8536461 118.51956774 4.75300181 118.52739098 5.67961073 118.53545129 C6.66879956 118.52875913 7.65798839 118.52206696 8.67715263 118.515172 C9.72707217 118.51985198 10.7769917 118.52453195 11.85872698 118.52935374 C15.39415403 118.54136675 18.92919796 118.53182174 22.46462822 118.52240467 C24.99219299 118.52646756 27.51975599 118.53180784 30.0473156 118.53833485 C36.21021121 118.55062214 42.37296379 118.54878529 48.53586137 118.54009692 C53.54340158 118.5333289 58.55091105 118.53239983 63.55845451 118.53566837 C64.62644731 118.53635792 64.62644731 118.53635792 65.71601573 118.5370614 C67.16230294 118.53802055 68.60859015 118.53899319 70.05487734 118.53997917 C83.62499549 118.54853913 97.1950529 118.53868946 110.7651611 118.52257808 C122.41550218 118.50917433 134.0657536 118.51150225 145.71609306 118.52533436 C159.23678995 118.54137951 172.75743356 118.5477151 186.27813864 118.53849757 C187.71918264 118.53754189 189.16022665 118.53659878 190.60127068 118.53566837 C191.31033991 118.53520555 192.01940915 118.53474272 192.74996534 118.53426587 C197.75299522 118.53167277 202.75599138 118.53605384 207.75901604 118.54310703 C214.48949489 118.55238676 221.21977776 118.54580459 227.95024872 118.52842426 C230.42587628 118.52444486 232.90151806 118.52561813 235.37714005 118.53221226 C238.74581309 118.54036036 242.11393501 118.53018756 245.48257256 118.515172 C246.9663558 118.52521025 246.9663558 118.52521025 248.48011446 118.53545129 C249.37947017 118.52762805 250.27882588 118.51980481 251.2054348 118.5117445 C252.37234423 118.51101391 252.37234423 118.51101391 253.56282759 118.51026857 C256.11025495 118.03533697 256.99997391 117.14913219 258.57986259 115.13422108 C259.0276398 113.21275212 259.0276398 113.21275212 258.96081352 111.07991505 C258.96927299 110.2569846 258.97773247 109.43405415 258.98644829 108.58618641 C258.9803756 107.68688404 258.9743029 106.78758167 258.96804619 105.86102772 C258.97330315 104.91116489 258.9785601 103.96130207 258.98397636 102.98265553 C258.99720194 99.8363965 258.98842841 96.69064168 258.97830009 93.54437733 C258.98032026 91.36106233 258.98323121 89.17774799 258.9869976 86.99443531 C258.99142457 82.41539565 258.98497845 77.83653139 258.97097588 73.25751209 C258.95389403 67.38491583 258.96371668 61.51273118 258.98169327 55.64015007 C258.9925296 51.13031884 258.98908525 46.62058531 258.98130989 42.11075115 C258.97930695 39.94538226 258.98177044 37.78000453 258.98874855 35.61464596 C258.99635927 32.58846108 258.98476331 29.56294405 258.96804619 26.53680897 C258.97715523 25.19089176 258.97715523 25.19089176 258.98644829 23.81778431 C258.97798882 22.99203403 258.96952934 22.16628376 258.96081352 21.31551075 C258.95968245 20.60040868 258.95855137 19.88530661 258.95738602 19.14853477 C258.45231243 16.4536645 257.4285508 15.14577871 255.57986259 13.13422108 C253.51956547 12.54045919 253.51956547 12.54045919 251.18702412 12.63644314 C249.83184041 12.62264675 249.83184041 12.62264675 248.44927925 12.60857165 C247.45551735 12.61885877 246.46175546 12.6291459 245.43787956 12.63974476 C244.38317091 12.63491593 243.32846226 12.6300871 242.24179274 12.62511194 C238.69009064 12.61379563 235.13910128 12.63119499 231.58743095 12.64838123 C229.04839189 12.64623652 226.50935379 12.64236054 223.97031975 12.63687611 C217.77963412 12.62816893 211.58921527 12.63808471 205.39855855 12.65657671 C198.19430967 12.67732457 190.99010717 12.67720488 183.78583402 12.67623155 C170.93514933 12.67522988 158.08456412 12.69356539 145.23391533 12.72259998 C132.7544047 12.75078157 120.27498165 12.76494131 107.79543877 12.76361561 C107.02671288 12.7635357 106.257987 12.76345578 105.4659664 12.76337345 C104.31490208 12.76325239 104.31490208 12.76325239 103.14058393 12.76312888 C88.94646019 12.76175033 74.75237378 12.77352204 60.55826212 12.79143531 C55.53223188 12.79747606 50.50620848 12.79959538 45.48017502 12.80049992 C38.72099623 12.80200407 31.96192282 12.81466372 25.20277023 12.83483219 C22.71543762 12.84069452 20.22809434 12.84313045 17.74075508 12.84197712 C14.35869084 12.84100202 10.97688972 12.85224456 7.59486198 12.86679554 C6.59886937 12.86369834 5.60287675 12.86060113 4.57670254 12.85741007 C3.67585448 12.86385897 2.77500642 12.87030786 1.84685993 12.87695217 C0.67482428 12.87906545 0.67482428 12.87906545 -0.52088886 12.88122141 C-2.66160847 12.97066144 -2.66160847 12.97066144 -4.42013741 15.13422108 Z " fill="#32537A" transform="translate(68.42013740539551,52.86577892303467)"/>
<path d="M0 0 C6.70547451 6.24828306 8.07560616 14.18264411 8.51171875 23.1015625 C8.58392302 25.60902004 8.64229756 28.11691039 8.6875 30.625 C8.72166016 31.91535156 8.75582031 33.20570312 8.79101562 34.53515625 C8.87280832 37.69001717 8.94218232 40.8446241 9 44 C9.4940332 42.95134766 9.98806641 41.90269531 10.49707031 40.82226562 C12.34492198 36.90059629 14.19401044 32.97951114 16.04345703 29.05859375 C16.84099075 27.36734458 17.63819706 25.67594098 18.43505859 23.984375 C19.586035 21.54125112 20.73822051 19.09870053 21.890625 16.65625 C22.24183411 15.91008423 22.59304321 15.16391846 22.95489502 14.3951416 C24.66229061 10.77930187 26.38834291 7.17306302 28.15136719 3.58398438 C28.6232547 2.62220276 28.6232547 2.62220276 29.10467529 1.64099121 C30.44631494 -0.818026 31.40470362 -1.87770967 34 -3 C38.15134049 -3.60620314 41.51018836 -3.98041993 45.11425781 -1.60864258 C48.04411003 2.44437023 47.49504663 6.36017723 47.390625 11.234375 C47.38496521 12.22753723 47.37930542 13.22069946 47.37347412 14.24395752 C47.35110026 17.41313059 47.30090106 20.5811692 47.25 23.75 C47.22993635 25.89972324 47.21168534 28.04946423 47.1953125 30.19921875 C47.15123239 35.46653229 47.08431033 40.73318509 47 46 C47.60303955 44.95211304 47.60303955 44.95211304 48.21826172 43.88305664 C51.82442928 37.6188195 55.43630182 31.35794455 59.0552063 25.10105896 C61.06295385 21.62799477 63.05917144 18.14862854 65.046875 14.6640625 C65.90595468 13.17170496 66.76530502 11.67950317 67.625 10.1875 C68.00124512 9.52049072 68.37749023 8.85348145 68.76513672 8.16625977 C71.36792476 3.6783513 74.25276609 -0.62638304 79 -3 C81.97108062 -3.15117044 84.90303297 -3.23139614 87.875 -3.25 C88.69097656 -3.270625 89.50695312 -3.29125 90.34765625 -3.3125 C96.40302943 -3.35201304 96.40302943 -3.35201304 99.5703125 -1.484375 C100.27800781 -0.74960938 100.27800781 -0.74960938 101 0 C100.83617633 4.25941551 100.67309777 6.34416115 97.5625 9.375 C94.02545833 10.98838743 92.88081558 11.03939825 89.1953125 10.94921875 C85.89292379 11.25143352 84.4711972 11.52250713 82.11791992 13.90722656 C80.33018683 16.67868155 78.80568564 19.49669595 77.3125 22.4375 C76.1204595 24.62796773 74.92772621 26.81805856 73.734375 29.0078125 C73.12658203 30.15282227 72.51878906 31.29783203 71.89257812 32.47753906 C68.7469745 38.33212744 65.39709084 44.06382389 62.0625 49.8125 C61.15914917 51.39212524 61.15914917 51.39212524 60.23754883 53.00366211 C57.3470311 58.04537438 54.40978777 63.05773663 51.37109375 68.01171875 C50.84314209 68.87627686 50.31519043 69.74083496 49.77124023 70.6315918 C47.05326847 74.26591904 44.51456757 76.71601858 40 77.5625 C35.80723624 76.77635679 34.5760827 75.38994982 32 72 C31.3190359 68.69239869 31.41679214 65.47035307 31.51171875 62.10546875 C31.51879349 61.15811356 31.52586823 60.21075836 31.53315735 59.23469543 C31.56107666 56.21814979 31.62381085 53.2034816 31.6875 50.1875 C31.71258604 48.13869874 31.73539867 46.0898683 31.75585938 44.04101562 C31.81089541 39.02662379 31.89715144 34.01362986 32 29 C31.54149658 29.97759277 31.08299316 30.95518555 30.6105957 31.96240234 C28.88790373 35.63454708 27.16354743 39.30590833 25.4387207 42.97705078 C24.69641366 44.557571 23.9545413 46.13829545 23.21313477 47.71923828 C10.56089748 74.69588987 10.56089748 74.69588987 7 77 C3.5625 77.5625 3.5625 77.5625 0 77 C-3.15954305 74.45862841 -4.71540886 72.85377341 -6 69 C-6.12838537 67.28868116 -6.20441064 65.57320117 -6.24951172 63.85766602 C-6.27979462 62.80970352 -6.31007751 61.76174103 -6.34127808 60.68202209 C-6.37045319 59.55074387 -6.3996283 58.41946564 -6.4296875 57.25390625 C-6.50332629 54.8665185 -6.57756349 52.47914914 -6.65234375 50.09179688 C-6.7659718 46.3216576 -6.87528666 42.55156368 -6.97412109 38.78100586 C-7.0714983 35.14646119 -7.18671584 31.51283285 -7.3046875 27.87890625 C-7.32981415 26.74965225 -7.3549408 25.62039825 -7.38082886 24.45692444 C-7.41741608 23.40580978 -7.4540033 22.35469513 -7.49169922 21.27172852 C-7.51755096 20.34812027 -7.54340271 19.42451202 -7.57003784 18.47291565 C-8.08365986 15.51883258 -8.89039417 14.11824602 -11 12 C-15.06560312 11.32239948 -17.45204536 11.06640868 -21.0078125 13.2109375 C-25.37896045 16.81393392 -27.75840032 19.74506968 -28.375 25.5 C-28.23558484 28.9362027 -28.23558484 28.9362027 -26.6875 31.375 C-23.05424797 33.57185007 -19.84866151 33.53100653 -15.65625 33.62890625 C-12.62282028 34.05269423 -11.26116876 34.98947966 -9 37 C-9.48979592 43.48979592 -9.48979592 43.48979592 -11.875 45.875 C-17.75535725 48.98813031 -25.02227363 49.07892578 -31.390625 47.3515625 C-37.33481492 44.69709601 -40.42900455 40.39091623 -43.109375 34.60546875 C-45.1514102 28.63162015 -44.79289123 22.14537871 -42.4375 16.3125 C-38.2346388 8.08312144 -31.04244121 0.42083917 -22.125 -2.64453125 C-14.58326413 -3.90610839 -6.59617766 -4.12261104 0 0 Z " fill="#51A4F4" transform="translate(438,81)"/>
<path d="M0 0 C0.96099609 -0.020625 1.92199219 -0.04125 2.91210938 -0.0625 C12.10889138 -0.11211177 20.50858556 1.46722515 27.8046875 7.375 C33.83571999 13.80810132 35.91632817 22.12454395 35.7734375 30.7265625 C35.06943066 39.14857028 32.3398561 46.98068562 26.5625 53.25 C18.45370412 59.60344351 9.06537004 60.39647431 -0.875 60.5625 C-1.57375244 60.58030518 -2.27250488 60.59811035 -2.99243164 60.61645508 C-7.92348312 60.60864423 -7.92348312 60.60864423 -10.13031006 59.06887817 C-11.93189805 56.5620741 -11.80531536 54.85718683 -11.79394531 51.78466797 C-11.79694641 50.66696014 -11.79994751 49.54925232 -11.80303955 48.39767456 C-11.79069275 47.19136383 -11.77834595 45.9850531 -11.765625 44.7421875 C-11.76281525 42.8876445 -11.76281525 42.8876445 -11.75994873 40.99563599 C-11.75149813 37.71117959 -11.72950742 34.4271606 -11.70178223 31.14282227 C-11.6780823 27.79444795 -11.67679377 24.44610952 -11.671875 21.09765625 C-11.66270639 18.56249518 -11.65233107 16.02733812 -11.640625 13.4921875 C-11.63637512 12.28182831 -11.63212524 11.07146912 -11.62774658 9.82443237 C-11.61813904 8.71302887 -11.60853149 7.60162537 -11.59863281 6.45654297 C-11.59180481 5.47297821 -11.58497681 4.48941345 -11.57794189 3.4760437 C-11.23801308 -1.91192404 -4.16023534 0.02154167 0 0 Z " fill="#32537A" transform="translate(99.4375,86.75)"/>
<path d="M0 0 C4.84569655 3.76154265 7.9856472 7.76029092 10.0078125 13.55859375 C10.41340791 17.28033719 10.3322517 21.00434837 10.3203125 24.74609375 C10.33642578 25.73673828 10.35253906 26.72738281 10.36914062 27.74804688 C10.37559958 37.59795614 8.8292022 45.73465399 1.80859375 52.9296875 C-3.62886856 57.84817293 -8.68379729 58.09666413 -15.80078125 57.90234375 C-22.99571705 57.12736902 -27.23007137 53.89790116 -31.765625 48.4375 C-35.88474371 42.12763981 -35.3593717 35.65151251 -35.3671875 28.37109375 C-35.39167969 27.18966797 -35.41617187 26.00824219 -35.44140625 24.79101562 C-35.46821907 16.72482449 -34.83803483 8.91608496 -29.28369141 2.62280273 C-21.0914202 -5.06660272 -9.44118911 -5.97265189 0 0 Z " fill="#E3783E" transform="translate(291.9921875,89.44140625)"/>
<path d="M0 0 C2 1.125 2 1.125 3 3 C2.53723505 7.15132766 1.47658069 10.74885405 -0.06640625 14.6171875 C-0.6706543 16.14472656 -0.6706543 16.14472656 -1.28710938 17.703125 C-1.70798828 18.74984375 -2.12886719 19.7965625 -2.5625 20.875 C-2.98724609 21.94492188 -3.41199219 23.01484375 -3.84960938 24.1171875 C-4.89446849 26.74694526 -5.94473782 29.37440342 -7 32 C-5.91203125 31.96261719 -4.8240625 31.92523438 -3.703125 31.88671875 C1.4320977 32.0438089 3.90060768 34.27549917 7.75 37.4375 C12.05528652 42.81910814 11.6337934 49.49142929 11 56 C9.1136075 64.32161757 4.29539641 70.57028123 -2.8515625 75.19921875 C-7.60673454 76.97160106 -13.01691847 76.44735894 -18 76 C-20.01418 75.0288775 -22.0201901 74.0394002 -24 73 C-26.60775041 74.26461808 -26.60775041 74.26461808 -29 76 C-31.90549286 76.41507041 -33.31224952 76.42687961 -35.8125 74.875 C-37.61011884 72.03665447 -37.31563322 70.37618543 -37 67 C-35.84083348 63.32891185 -34.35937716 59.80610927 -32.87109375 56.2578125 C-32.44377457 55.21664276 -32.01645538 54.17547302 -31.57618713 53.10275269 C-30.20641051 49.77270152 -28.82199841 46.44895334 -27.4375 43.125 C-26.53227954 40.92746355 -25.62797338 38.72955025 -24.72460938 36.53125 C-22.56578376 31.28915398 -20.38534128 26.05654011 -18.18865967 20.8302002 C-17.42573765 19.01368189 -16.66560334 17.19598882 -15.90899658 15.37683105 C-14.96029493 13.09874109 -14.00008189 10.82594287 -13.03515625 8.5546875 C-12.7665831 7.90484894 -12.49800995 7.25501038 -12.22129822 6.58547974 C-9.53889152 0.3590133 -6.62311585 -0.59134963 0 0 Z " fill="#51A4F4" transform="translate(605,79)"/>
<path d="M0 0 C5.66550717 2.15289273 7.82301851 8.36323943 10.2578125 13.66015625 C10.92816447 15.18735888 11.59221779 16.71734146 12.25 18.25 C12.58386719 19.01376953 12.91773438 19.77753906 13.26171875 20.56445312 C14.22351497 22.76904094 15.1762442 24.97727283 16.125 27.1875 C16.4250293 27.88601074 16.72505859 28.58452148 17.03417969 29.30419922 C17.73223267 30.93148921 18.42879515 32.55941847 19.125 34.1875 C21.01316942 31.35524588 22.27649261 28.71878651 23.62109375 25.6015625 C24.09740234 24.50585938 24.57371094 23.41015625 25.06445312 22.28125 C26.05969341 19.97675619 27.05448824 17.67206996 28.04882812 15.3671875 C28.52642578 14.26890625 29.00402344 13.170625 29.49609375 12.0390625 C29.92849365 11.03697754 30.36089355 10.03489258 30.80639648 9.00244141 C32.1018282 6.23696693 33.35966461 3.68231512 35.125 1.1875 C38.625 0.1875 38.625 0.1875 42.125 0.1875 C43.8184967 1.37283325 43.8184967 1.37283325 45.125 3.1875 C45.51268005 5.48873901 45.51268005 5.48873901 45.52905273 8.22216797 C45.54173691 9.24688202 45.55442108 10.27159607 45.56748962 11.32736206 C45.56455399 12.43362946 45.56161835 13.53989685 45.55859375 14.6796875 C45.5638356 15.81777863 45.56907745 16.95586975 45.57447815 18.12844849 C45.58090596 20.5376097 45.5795516 22.94680226 45.57104492 25.35595703 C45.56254897 29.0412602 45.5912656 32.72500686 45.62304688 36.41015625 C45.62465929 38.74999954 45.62408059 41.08984557 45.62109375 43.4296875 C45.63794472 45.0830159 45.63794472 45.0830159 45.65513611 46.76974487 C45.58521467 54.45449792 45.58521467 54.45449792 43.09399414 58.42236328 C42.44422607 59.0048584 41.79445801 59.58735352 41.125 60.1875 C38.75 59.875 38.75 59.875 36.125 59.1875 C33.86629892 55.79944839 33.83240587 54.41399259 33.7109375 50.42578125 C33.65292969 48.74838867 33.65292969 48.74838867 33.59375 47.03710938 C33.5628125 45.86986328 33.531875 44.70261719 33.5 43.5 C33.44199219 41.73172852 33.44199219 41.73172852 33.3828125 39.92773438 C33.28845609 37.01448023 33.20286839 34.10123393 33.125 31.1875 C32.73175537 32.03513916 32.73175537 32.03513916 32.33056641 32.89990234 C31.14154357 35.45622256 29.94586154 38.00937229 28.75 40.5625 C28.3375 41.45195312 27.925 42.34140625 27.5 43.2578125 C27.10039062 44.10859375 26.70078125 44.959375 26.2890625 45.8359375 C25.92248535 46.62145996 25.5559082 47.40698242 25.17822266 48.21630859 C24.125 50.1875 24.125 50.1875 22.125 52.1875 C19.8125 52.6875 19.8125 52.6875 17.125 52.1875 C12.83431557 47.81508824 10.78056066 43.55570606 8.8125 37.8125 C8.54888672 37.07644531 8.28527344 36.34039062 8.01367188 35.58203125 C7.37288411 33.78782551 6.74732922 31.98819141 6.125 30.1875 C6.11041748 30.98969971 6.09583496 31.79189941 6.08081055 32.6184082 C6.00643281 36.24609699 5.90973757 39.87285504 5.8125 43.5 C5.77866211 45.39395508 5.77866211 45.39395508 5.74414062 47.32617188 C5.70869141 48.53466797 5.67324219 49.74316406 5.63671875 50.98828125 C5.61053467 52.10372314 5.58435059 53.21916504 5.55737305 54.3684082 C5.125 57.1875 5.125 57.1875 3.74926758 59.04760742 C1.38878303 60.70416872 -0.06336223 60.67953661 -2.875 60.1875 C-5.76776057 57.17797851 -6.25256087 55.02642963 -6.26318359 50.91577148 C-6.27264008 49.86465683 -6.28209656 48.81354218 -6.2918396 47.73057556 C-6.28576691 46.60132156 -6.27969421 45.47206757 -6.2734375 44.30859375 C-6.27630768 43.14497818 -6.27917786 41.98136261 -6.28213501 40.78248596 C-6.28417578 38.32381707 -6.27864506 35.86513194 -6.26611328 33.40649414 C-6.25004629 29.63586286 -6.26596996 25.86630122 -6.28515625 22.09570312 C-6.28317411 19.70833096 -6.27933103 17.32095946 -6.2734375 14.93359375 C-6.27951019 13.80231552 -6.28558289 12.67103729 -6.2918396 11.50547791 C-6.28238312 10.45751541 -6.27292664 9.40955292 -6.26318359 8.32983398 C-6.26079681 7.40702133 -6.25841003 6.48420868 -6.25595093 5.53343201 C-5.875 3.1875 -5.875 3.1875 -4.53042603 1.37782288 C-2.875 0.1875 -2.875 0.1875 0 0 Z " fill="#4C698C" transform="translate(199.875,86.8125)"/>
<path d="M0 0 C1.25001549 0.00136711 1.25001549 0.00136711 2.52528381 0.00276184 C3.80883507 -0.00366585 3.80883507 -0.00366585 5.11831665 -0.01022339 C6.92982599 -0.01597159 8.74135842 -0.01646335 10.5528717 -0.01213074 C13.32727912 -0.00897331 16.10061793 -0.03241432 18.87489319 -0.05778503 C20.63335538 -0.0600582 22.39182045 -0.06076144 24.15028381 -0.05973816 C24.98160324 -0.06894791 25.81292267 -0.07815765 26.66943359 -0.08764648 C32.46058567 -0.04104967 32.46058567 -0.04104967 34.65896606 1.66665649 C35.90419006 3.30354309 35.90419006 3.30354309 35.71669006 5.86604309 C34.90419006 8.30354309 34.90419006 8.30354309 32.90419006 10.30354309 C29.83143616 10.53059387 29.83143616 10.53059387 25.92762756 10.49885559 C25.24238007 10.4960257 24.55713257 10.4931958 23.85112 10.49028015 C21.66029979 10.47907591 19.46988691 10.45397168 17.27919006 10.42854309 C15.79482096 10.41851357 14.31044546 10.40938767 12.82606506 10.40119934 C9.18515651 10.38083632 5.54512975 10.34169031 1.90419006 10.30354309 C1.90419006 14.92354309 1.90419006 19.54354309 1.90419006 24.30354309 C3.81844788 24.28033997 5.73270569 24.25713684 7.70497131 24.23323059 C10.20887367 24.21447477 12.71278024 24.19627437 15.21669006 24.17854309 C16.47932678 24.16178528 17.7419635 24.14502747 19.04286194 24.12776184 C20.85560608 24.11809387 20.85560608 24.11809387 22.70497131 24.10823059 C23.82041321 24.09775696 24.9358551 24.08728333 26.08509827 24.07649231 C28.90419006 24.30354309 28.90419006 24.30354309 31.90419006 26.30354309 C32.33135646 29.08012468 32.38788383 30.61277211 30.75453186 32.94538879 C28.11132664 34.88550631 26.17584688 34.64410392 22.92372131 34.59651184 C21.76034241 34.58684387 20.5969635 34.5771759 19.39833069 34.56721497 C18.18338928 34.54207825 16.96844788 34.51694153 15.71669006 34.49104309 C14.49014709 34.47750793 13.26360413 34.46397278 11.99989319 34.45002747 C8.96780556 34.41463345 5.93594315 34.36082604 2.90419006 34.30354309 C2.90419006 39.25354309 2.90419006 44.20354309 2.90419006 49.30354309 C4.95122131 49.2687384 6.99825256 49.23393372 9.10731506 49.19807434 C11.09639899 49.17720982 13.08548566 49.15645332 15.07460022 49.13874817 C16.45390224 49.12368887 17.83315659 49.10323696 19.21229553 49.07722473 C21.1979241 49.04071894 23.18390625 49.02539456 25.16981506 49.01057434 C26.3638092 48.99486389 27.55780334 48.97915344 28.78797913 48.96296692 C32.16588736 49.33214445 33.54467307 49.89776809 35.90419006 52.30354309 C36.34169006 54.80354309 36.34169006 54.80354309 35.90419006 57.30354309 C34.61317444 58.93553162 34.61317444 58.93553162 32.90419006 60.30354309 C29.99795289 60.60189776 27.31049703 60.72386937 24.40419006 60.70198059 C23.57210022 60.70485077 22.74001038 60.70772095 21.88270569 60.7106781 C20.12423522 60.71271871 18.36574205 60.70718902 16.60731506 60.69465637 C13.91409093 60.67860211 11.22236747 60.69450455 8.52919006 60.71369934 C6.82085341 60.71171691 5.1125177 60.70787323 3.40419006 60.70198059 C2.59788147 60.70805328 1.79157288 60.71412598 0.96083069 60.72038269 C-4.59624867 60.65039748 -4.59624867 60.65039748 -6.80886841 59.11413574 C-8.56814907 56.63901115 -8.47009792 54.96962792 -8.46812439 51.94587708 C-8.47435318 50.85141769 -8.48058197 49.75695831 -8.48699951 48.6293335 C-8.47778976 47.4480336 -8.46858002 46.2667337 -8.45909119 45.04963684 C-8.45958969 43.83784256 -8.4600882 42.62604828 -8.46060181 41.37753296 C-8.45825991 38.81452292 -8.44852472 36.25151064 -8.43199158 33.68855286 C-8.40838387 29.7533678 -8.41143194 25.81885914 -8.41807556 21.88362122 C-8.41249959 19.39728903 -8.40539022 16.91095971 -8.39659119 14.42463684 C-8.39750259 13.24131271 -8.398414 12.05798859 -8.39935303 10.83880615 C-8.38982101 9.74749893 -8.380289 8.65619171 -8.37046814 7.53181458 C-8.36586075 6.56823532 -8.36125336 5.60465607 -8.35650635 4.61187744 C-7.77839829 -0.50697585 -4.34772068 0.05375339 0 0 Z " fill="#33537A" transform="translate(150.09580993652344,86.69645690917969)"/>
<path d="M0 0 C1.2684375 -0.01933594 2.536875 -0.03867188 3.84375 -0.05859375 C8.93995809 0.63287893 12.05734423 2.7544016 15.375 6.625 C16.99548495 10.67621238 17.39505506 14.14563762 16.5 18.4375 C14.31875442 22.5292692 11.65826038 24.88250023 7.5 26.875 C1.6620422 28.10613396 -4.57241176 27.58548417 -10.5 27.4375 C-9.84 28.4275 -9.18 29.4175 -8.5 30.4375 C-6.0339613 30.91432295 -6.0339613 30.91432295 -3.16015625 30.87890625 C-1.5659082 30.91854492 -1.5659082 30.91854492 0.06054688 30.95898438 C1.73213867 30.97928711 1.73213867 30.97928711 3.4375 31 C5.6342651 31.03442406 7.83092166 31.07702226 10.02734375 31.12890625 C11.49288696 31.14739624 11.49288696 31.14739624 12.98803711 31.16625977 C15.5 31.4375 15.5 31.4375 18.5 33.4375 C19 36.3125 19 36.3125 18.5 39.4375 C14.88824141 43.07472243 12.4223453 43.94717548 7.3515625 43.96875 C5.59585938 43.97648437 5.59585938 43.97648437 3.8046875 43.984375 C1.98324219 43.96117187 1.98324219 43.96117187 0.125 43.9375 C-1.0815625 43.95296875 -2.288125 43.9684375 -3.53125 43.984375 C-10.36930404 43.95431762 -15.00832569 43.65709156 -20.5 39.4375 C-24.85876521 33.62581305 -25.05382597 27.47748017 -24.5 20.4375 C-23.20344053 13.42311328 -18.73869897 8.08902431 -13.5 3.4375 C-8.91881638 0.59268108 -5.36284527 0.00545005 0 0 Z " fill="#51A5F4" transform="translate(749.5,111.5625)"/>
<path d="M0 0 C3.35725084 2.85723476 4.70003016 4.33919138 5.48046875 8.66015625 C5.71260413 13.32168568 5.62090192 16.09686993 2.9375 20 C-5.29635061 25.60602595 -12.35578402 25.3351272 -22 25 C-21.34 25.99 -20.68 26.98 -20 28 C-17.54958664 28.46042099 -17.54958664 28.46042099 -14.6953125 28.40625 C-13.63699219 28.42816406 -12.57867188 28.45007813 -11.48828125 28.47265625 C-10.37839844 28.48167969 -9.26851562 28.49070313 -8.125 28.5 C-5.93995393 28.51788927 -3.75496578 28.5486235 -1.5703125 28.59375 C-0.59852051 28.60083984 0.37327148 28.60792969 1.37451172 28.61523438 C4.37875885 29.05550716 5.7606073 30.00089685 8 32 C7.8125 34.8125 7.8125 34.8125 7 38 C1.51597392 42.19630142 -4.1939178 41.51468349 -10.8125 41.5 C-11.96298828 41.52835938 -13.11347656 41.55671875 -14.29882812 41.5859375 C-21.46042144 41.60235376 -26.54319568 40.8624811 -32 36 C-36.31686299 30.60392127 -35.59472312 23.57410151 -35 17 C-33.33433012 9.4441352 -29.1342845 4.32759056 -22.85546875 0.0703125 C-15.32817072 -4.27174994 -7.48319329 -4.1573296 0 0 Z " fill="#51A5F4" transform="translate(559,114)"/>
<path d="M0 0 C1.9375 1.0625 1.9375 1.0625 3 3 C2.75743709 7.36613235 1.80477442 11.02949628 0 15 C2.31 15.33 4.62 15.66 7 16 C7.8125 19.25 7.8125 19.25 8 23 C6.125 25.4375 6.125 25.4375 3 27 C-0.03295065 27.30886476 -2.96407263 27.23811195 -6 27 C-6.10183594 27.67417969 -6.20367188 28.34835938 -6.30859375 29.04296875 C-7.15401138 32.65868143 -8.5623005 35.9327002 -10.0625 39.3125 C-10.34416016 39.95767578 -10.62582031 40.60285156 -10.91601562 41.26757812 C-11.6062743 42.84698358 -12.30253198 44.42376493 -13 46 C-11.84371094 45.96519531 -11.84371094 45.96519531 -10.6640625 45.9296875 C-9.66117188 45.91164062 -8.65828125 45.89359375 -7.625 45.875 C-6.62726562 45.85179687 -5.62953125 45.82859375 -4.6015625 45.8046875 C-2 46 -2 46 0 48 C0.55979644 53.26208651 0.55979644 53.26208651 -1.375 55.8125 C-5.24882233 58.64337016 -9.18959161 58.25794168 -13.8125 58.3125 C-14.62009766 58.34150391 -15.42769531 58.37050781 -16.25976562 58.40039062 C-20.13471564 58.44164726 -22.55242362 58.22122899 -26.07421875 56.48046875 C-28.25537919 53.67106331 -28.65568617 51.81006695 -28.42578125 48.26953125 C-27.60937937 43.91788451 -25.82407689 40.01173668 -24 36 C-23.6184375 35.12988281 -23.236875 34.25976562 -22.84375 33.36328125 C-21.90870876 31.23606243 -20.96075226 29.11569912 -20 27 C-21.98 26.67 -23.96 26.34 -26 26 C-26.75 23.25 -26.75 23.25 -27 20 C-25.5625 17.75 -25.5625 17.75 -23 16 C-21.72125 15.835 -20.4425 15.67 -19.125 15.5 C-16.96382469 15.18983329 -16.96382469 15.18983329 -15 14 C-13.08302349 11.01517752 -11.69552359 8.01912787 -10.32421875 4.75 C-7.97754992 -0.12331817 -5.05153536 -0.5262016 0 0 Z " fill="#51A5F4" transform="translate(719,97)"/>
<path d="M0 0 C3.5 0.25 3.5 0.25 5.5 2.25 C5.59919077 3.85163916 5.62969898 5.45779918 5.625 7.0625 C6.06306372 13.69478479 9.08453475 18.14702306 12.6875 23.5 C15.82267897 28.25682327 16.1944431 32.6944552 15.5 38.25 C13.75 41.5625 13.75 41.5625 11.5 44.25 C10.88125 44.9925 10.2625 45.735 9.625 46.5 C4.25422585 50.92299047 -2.08670621 50.55735664 -8.6875 50.5 C-10.04004883 50.51160156 -10.04004883 50.51160156 -11.41992188 50.5234375 C-12.28552734 50.52085937 -13.15113281 50.51828125 -14.04296875 50.515625 C-14.82696045 50.51336914 -15.61095215 50.51111328 -16.41870117 50.50878906 C-18.5 50.25 -18.5 50.25 -21.5 48.25 C-22.03032401 44.76501367 -22.03119487 42.98673258 -19.9453125 40.09375 C-16.17262968 37.24917126 -12.49144917 37.67397314 -7.90039062 37.5859375 C-4.23030462 37.46931113 -2.64232285 37.3448819 0.5 35.25 C0.89259107 31.01001646 0.82490278 27.88266059 -1.5 24.25 C-2.5209375 25.735 -2.5209375 25.735 -3.5625 27.25 C-5.89541502 30.07615991 -6.2833995 30.22063044 -10.1875 30.75 C-13.5 30.25 -13.5 30.25 -15.5 28.25 C-16.45029976 21.58926258 -13.81579992 17.15544861 -10.625 11.4375 C-9.93470703 10.15069336 -9.93470703 10.15069336 -9.23046875 8.83789062 C-4.6113738 0.32938384 -4.6113738 0.32938384 0 0 Z " fill="#52A5F4" transform="translate(639.5,104.75)"/>
<path d="M0 0 C15.79434447 0 15.79434447 0 21.59765625 5.51953125 C26.48883203 11.77315154 25.84967825 19.4661862 25 27 C23.83312607 32.18207989 21.81261592 35.81875402 17.5625 39.0625 C13 41 13 41 0 41 C0 27.47 0 13.94 0 0 Z " fill="#F7F8F9" transform="translate(98,96)"/>
<path d="M0 0 C2.89521497 1.54661207 5.12949519 3.2944484 7 6 C9.19934175 15.11703877 9.56330653 26.55973791 5 35 C2.7109332 37.84399209 1.23038616 38.80743544 -2.37109375 39.37109375 C-6.63559853 39.58020023 -9.26577975 39.42829515 -13 37.25 C-17.80236556 31.84733875 -17.43058697 26.63314108 -17.5 19.6875 C-17.54125 18.66720703 -17.5825 17.64691406 -17.625 16.59570312 C-17.67885666 11.38843731 -17.52240408 7.9165927 -14.09375 3.83203125 C-9.89728153 -0.39191105 -5.81633726 -0.9962731 0 0 Z " fill="#FDFAF7" transform="translate(284,97)"/>
<path d="M0 0 C6.28926035 2.38991893 8.33096546 9.49268073 10.96704102 15.27514648 C11.28729248 15.98872314 11.60754395 16.7022998 11.9375 17.4375 C12.25195068 18.13496338 12.56640137 18.83242676 12.89038086 19.55102539 C14.40685791 23.04763994 15.125 25.31713582 15.125 29.1875 C14.465 29.5175 13.805 29.8475 13.125 30.1875 C12.65545739 33.23331269 12.65545739 33.23331269 12.5 36.75 C12.42523438 37.94753906 12.35046875 39.14507812 12.2734375 40.37890625 C12.22445312 41.30574219 12.17546875 42.23257813 12.125 43.1875 C8.69568046 39.4315786 7.56070917 34.95283255 6.125 30.1875 C6.11041748 30.98969971 6.09583496 31.79189941 6.08081055 32.6184082 C6.00643281 36.24609699 5.90973757 39.87285504 5.8125 43.5 C5.77866211 45.39395508 5.77866211 45.39395508 5.74414062 47.32617188 C5.70869141 48.53466797 5.67324219 49.74316406 5.63671875 50.98828125 C5.61053467 52.10372314 5.58435059 53.21916504 5.55737305 54.3684082 C5.125 57.1875 5.125 57.1875 3.74926758 59.04760742 C1.38878303 60.70416872 -0.06336223 60.67953661 -2.875 60.1875 C-5.76776057 57.17797851 -6.25256087 55.02642963 -6.26318359 50.91577148 C-6.27264008 49.86465683 -6.28209656 48.81354218 -6.2918396 47.73057556 C-6.28576691 46.60132156 -6.27969421 45.47206757 -6.2734375 44.30859375 C-6.27630768 43.14497818 -6.27917786 41.98136261 -6.28213501 40.78248596 C-6.28417578 38.32381707 -6.27864506 35.86513194 -6.26611328 33.40649414 C-6.25004629 29.63586286 -6.26596996 25.86630122 -6.28515625 22.09570312 C-6.28317411 19.70833096 -6.27933103 17.32095946 -6.2734375 14.93359375 C-6.27951019 13.80231552 -6.28558289 12.67103729 -6.2918396 11.50547791 C-6.28238312 10.45751541 -6.27292664 9.40955292 -6.26318359 8.32983398 C-6.26079681 7.40702133 -6.25841003 6.48420868 -6.25595093 5.53343201 C-5.875 3.1875 -5.875 3.1875 -4.53042603 1.37782288 C-2.875 0.1875 -2.875 0.1875 0 0 Z " fill="#32527A" transform="translate(199.875,86.8125)"/>
<path d="M0 0 C2.875 0.5625 2.875 0.5625 4.8125 1.5625 C6.54767142 4.82870502 5.62960844 8.08420994 4.875 11.5625 C3.69170551 15.13689877 2.27231653 18.59322962 0.8125 22.0625 C0.43544922 22.9803125 0.05839844 23.898125 -0.33007812 24.84375 C-1.25310964 27.0870671 -2.18484524 29.32631811 -3.125 31.5625 C-2.43792969 31.53929687 -1.75085938 31.51609375 -1.04296875 31.4921875 C0.30861328 31.46511719 0.30861328 31.46511719 1.6875 31.4375 C2.58082031 31.41429687 3.47414063 31.39109375 4.39453125 31.3671875 C6.875 31.5625 6.875 31.5625 9.875 33.5625 C9.39140011 39.97019856 9.39140011 39.97019856 7.38671875 42.26953125 C3.61745861 44.20985023 0.11476292 43.99789416 -4.0625 43.9375 C-5.26036133 43.95490234 -5.26036133 43.95490234 -6.48242188 43.97265625 C-11.16854876 43.9493615 -14.32999692 43.60741441 -18.125 40.5625 C-19.96272717 36.88704566 -19.39290045 33.41843175 -18.19458008 29.58984375 C-17.55105591 28.06037109 -17.55105591 28.06037109 -16.89453125 26.5 C-16.42080078 25.37335938 -15.94707031 24.24671875 -15.45898438 23.0859375 C-14.70584961 21.34183594 -14.70584961 21.34183594 -13.9375 19.5625 C-13.21336914 17.81839844 -13.21336914 17.81839844 -12.47460938 16.0390625 C-6.1072654 1.09930777 -6.1072654 1.09930777 0 0 Z " fill="#52A5F4" transform="translate(678.125,111.4375)"/>
<path d="M0 0 C0.33 0 0.66 0 1 0 C1 4.95 1 9.9 1 15 C3.04703125 14.96519531 5.0940625 14.93039063 7.203125 14.89453125 C9.19220893 14.87366673 11.1812956 14.85291023 13.17041016 14.83520508 C14.54971218 14.82014578 15.92896653 14.79969387 17.30810547 14.77368164 C19.29373403 14.73717585 21.27971618 14.72185147 23.265625 14.70703125 C24.45961914 14.6913208 25.65361328 14.67561035 26.88378906 14.65942383 C30.2616973 15.02860136 31.640483 15.59422499 34 18 C34.4375 20.5 34.4375 20.5 34 23 C32.70898438 24.63198853 32.70898438 24.63198853 31 26 C28.09376282 26.29835467 25.40630697 26.42032628 22.5 26.3984375 C21.66791016 26.40130768 20.83582031 26.40417786 19.97851562 26.40713501 C18.22004516 26.40917562 16.46155199 26.40364593 14.703125 26.39111328 C12.00990087 26.37505902 9.3181774 26.39096145 6.625 26.41015625 C4.91666335 26.40817382 3.20832764 26.40433014 1.5 26.3984375 C0.69369141 26.40451019 -0.11261719 26.41058289 -0.94335938 26.4168396 C-6.57439988 26.34592293 -6.57439988 26.34592293 -8.71504211 24.60603333 C-10.41090818 22.48641723 -10.34713096 21.24083761 -10.29296875 18.55078125 C-10.28330078 17.70322266 -10.27363281 16.85566406 -10.26367188 15.98242188 C-10.23853516 15.10134766 -10.21339844 14.22027344 -10.1875 13.3125 C-10.17396484 12.41982422 -10.16042969 11.52714844 -10.14648438 10.60742188 C-10.11114079 8.40433834 -10.06180493 6.20247418 -10 4 C-6.91190305 2.23537317 -5.76687864 2 -2 2 C-2.33 3.32 -2.66 4.64 -3 6 C-2.01 5.67 -1.02 5.34 0 5 C0 3.35 0 1.7 0 0 Z " fill="#33547A" transform="translate(152,121)"/>
<path d="M0 0 C2.375 0.375 2.375 0.375 4.375 2.375 C4.55010386 5.02791757 4.60655483 7.57486174 4.5703125 10.2265625 C4.5674826 11.00059418 4.56465271 11.77462585 4.56173706 12.57211304 C4.55052754 15.04823157 4.52542203 17.5239905 4.5 20 C4.48997118 21.67707812 4.48084516 23.35416189 4.47265625 25.03125 C4.45058574 29.14597223 4.41605102 33.26042511 4.375 37.375 C2.725 37.375 1.075 37.375 -0.625 37.375 C-0.955 40.675 -1.285 43.975 -1.625 47.375 C-2.285 47.375 -2.945 47.375 -3.625 47.375 C-4.45074651 40.97546458 -4.71588753 34.82801461 -4.625 28.375 C-7.595 28.705 -10.565 29.035 -13.625 29.375 C-15.23503654 22.92624401 -13.74056967 19.08026173 -10.9375 13.1875 C-10.58494141 12.39408203 -10.23238281 11.60066406 -9.86914062 10.78320312 C-5.26189225 0.75169889 -5.26189225 0.75169889 0 0 Z " fill="#335379" transform="translate(239.625,86.625)"/>
<path d="M0 0 C2.53431717 1.02742588 3.62627644 1.80302848 5.3125 3.9375 C5.70068359 6.20239258 5.70068359 6.20239258 5.7109375 8.83203125 C5.71673828 10.26579102 5.71673828 10.26579102 5.72265625 11.72851562 C5.71105469 12.72560547 5.69945313 13.72269531 5.6875 14.75 C5.69910156 15.73548828 5.71070312 16.72097656 5.72265625 17.73632812 C5.70019514 23.31042604 5.34607698 27.21057713 2.3125 31.9375 C-3.56075108 31.9375 -6.57779926 28.89093313 -10.625 25.0625 C-13.19480017 22.4148271 -15.062766 20.26081954 -16.6875 16.9375 C-16.11874571 10.52608804 -11.68573783 6.59617837 -7.06640625 2.5 C-4.62818312 0.67608244 -3.06420153 -0.0712605 0 0 Z " fill="#55A5F0" transform="translate(40.6875,104.0625)"/>
<path d="M0 0 C6.51204239 1.655604 9.9257745 5.92186599 13.8046875 11.09375 C15.00104056 13.59232808 15.05721281 15.19406288 14.6875 17.9375 C13.2265625 20.17578125 13.2265625 20.17578125 11.3125 22.25 C10.68601562 22.94738281 10.05953125 23.64476563 9.4140625 24.36328125 C7.6875 25.9375 7.6875 25.9375 5.6875 25.9375 C5.39875 26.576875 5.11 27.21625 4.8125 27.875 C3.6875 29.9375 3.6875 29.9375 1.6875 30.9375 C-1.3125 31.1875 -1.3125 31.1875 -4.3125 30.9375 C-7.56803973 26.0541904 -6.6403336 20.61283488 -6.625 14.875 C-6.64111328 13.66521484 -6.65722656 12.45542969 -6.67382812 11.20898438 C-6.67447266 10.05591797 -6.67511719 8.90285156 -6.67578125 7.71484375 C-6.67876221 6.65515381 -6.68174316 5.59546387 -6.68481445 4.50366211 C-6.56195068 3.65682861 -6.43908691 2.80999512 -6.3125 1.9375 C-3.3125 -0.0625 -3.3125 -0.0625 0 0 Z " fill="#53A5F0" transform="translate(351.3125,104.0625)"/>
<path d="M0 0 C0.33 0 0.66 0 1 0 C1.1014521 7.31392566 1.17148763 14.62766974 1.21972656 21.94213867 C1.23983705 24.43016338 1.26712927 26.91814086 1.30175781 29.40600586 C1.35029853 32.98302875 1.37297495 36.55942651 1.390625 40.13671875 C1.41127014 41.24834885 1.43191528 42.35997894 1.45318604 43.5052948 C1.45544041 51.27075707 1.45544041 51.27075707 -1.02441406 55.24145508 C-1.67635742 55.8217749 -2.32830078 56.40209473 -3 57 C-5.375 56.6875 -5.375 56.6875 -8 56 C-10.25870108 52.61194839 -10.29259413 51.22649259 -10.4140625 47.23828125 C-10.45273438 46.12001953 -10.49140625 45.00175781 -10.53125 43.84960938 C-10.5621875 42.68236328 -10.593125 41.51511719 -10.625 40.3125 C-10.66367188 39.13365234 -10.70234375 37.95480469 -10.7421875 36.74023438 C-10.83654057 33.82708332 -10.91936242 30.91356297 -11 28 C-14.63 28 -18.26 28 -22 28 C-21.01 24.535 -21.01 24.535 -20 21 C-18 24 -18 24 -18 26 C-15.03 25.67 -12.06 25.34 -9 25 C-8.27972188 31.39246827 -7.89627235 37.56888577 -8 44 C-7.34 44 -6.68 44 -6 44 C-6 40.7 -6 37.4 -6 34 C-3.525 33.505 -3.525 33.505 -1 33 C-0.67 22.11 -0.34 11.22 0 0 Z " fill="#5B7694" transform="translate(244,90)"/>
<path d="M0 0 C2 2 2 2 2.5 5.5625 C2.40043401 10.99880324 -0.58586925 14.95788147 -4 19 C-6.77100394 20.38550197 -8.9334706 20.1877467 -12 20 C-12.99 19.34 -13.98 18.68 -15 18 C-14.53416726 12.09945195 -12.09662119 6.97607336 -9 2 C-5.54754176 -0.30163882 -4.05261287 -0.34490322 0 0 Z " fill="#F9FCFE" transform="translate(601,123)"/>
<path d="M0 0 C0.33 0 0.66 0 1 0 C1.33 13.86 1.66 27.72 2 42 C4.475 41.505 4.475 41.505 7 41 C6.95875 39.906875 6.9175 38.81375 6.875 37.6875 C7 34 7 34 9 31 C9.39013716 29.0103005 9.73202649 27.00980131 10 25 C10.66 25.33 11.32 25.66 12 26 C11.93110195 29.93327952 11.84312821 33.86562514 11.73754883 37.7980957 C11.68798681 39.7929063 11.65348867 41.78807257 11.61914062 43.78320312 C11.58369141 45.03681641 11.54824219 46.29042969 11.51171875 47.58203125 C11.48553467 48.73936768 11.45935059 49.8967041 11.43237305 51.08911133 C11 54 11 54 9.62426758 55.8737793 C7.26101418 57.51239164 5.8046703 57.4908173 3 57 C0.07912966 53.97208005 -0.37014763 51.82066755 -0.34057617 47.68066406 C-0.34034958 46.61986633 -0.34012299 45.5590686 -0.33988953 44.46612549 C-0.32440567 43.32746033 -0.30892181 42.18879517 -0.29296875 41.015625 C-0.28872391 39.84489441 -0.28447906 38.67416382 -0.28010559 37.46795654 C-0.26331175 33.72840384 -0.22565704 29.98938985 -0.1875 26.25 C-0.17245413 23.71485153 -0.15876556 21.17969462 -0.14648438 18.64453125 C-0.11340585 12.42950367 -0.06319883 6.21479032 0 0 Z " fill="#446081" transform="translate(194,90)"/>
<path d="M0 0 C0.33 0 0.66 0 1 0 C1 5.94 1 11.88 1 18 C2.32 17.34 3.64 16.68 5 16 C6.32 16 7.64 16 9 16 C9 11.05 9 6.1 9 1 C9.33 1 9.66 1 10 1 C10.01981934 1.6705542 10.03963867 2.3411084 10.06005859 3.03198242 C10.15559715 6.08420161 10.26515945 9.13576341 10.375 12.1875 C10.4059375 13.24259766 10.436875 14.29769531 10.46875 15.38476562 C10.50742187 16.40634766 10.54609375 17.42792969 10.5859375 18.48046875 C10.6173584 19.41785889 10.6487793 20.35524902 10.68115234 21.32104492 C10.87835231 24.06666745 10.87835231 24.06666745 12.15087891 26.6574707 C12.43108887 27.43050537 12.71129883 28.20354004 13 29 C12.34 29.99 11.68 30.98 11 32 C8.375 32.1875 8.375 32.1875 6 32 C5.67 32.99 5.34 33.98 5 35 C1.40555368 31.89570545 0.12460264 28.67168505 -0.22705078 23.95385742 C-0.21657715 22.84888916 -0.20610352 21.7439209 -0.1953125 20.60546875 C-0.18886719 19.40341797 -0.18242187 18.20136719 -0.17578125 16.96289062 C-0.15902344 15.71701172 -0.14226562 14.47113281 -0.125 13.1875 C-0.11597656 11.92228516 -0.10695313 10.65707031 -0.09765625 9.35351562 C-0.07412394 6.23548436 -0.04124545 3.11783903 0 0 Z " fill="#DC7944" transform="translate(257,104)"/>
<path d="M0 0 C3.36344489 2.48602449 4.80057749 3.91425523 5.5625 8.0625 C4.85763576 11.74345769 4.0766616 12.87000351 1 15 C-2.5 16 -2.5 16 -6 16 C-8.4375 14.5625 -8.4375 14.5625 -10 12 C-10.80853347 7.92399106 -10.65762005 5.01172316 -8.375 1.5 C-5.23686002 -0.48198314 -3.65126535 -0.67064058 0 0 Z " fill="#56A7F4" transform="translate(685,94)"/>
<path d="M0 0 C2.97 0.33 5.94 0.66 9 1 C8.39979564 5.83914761 6.31530243 9.54845469 4 13.75 C3.44699219 14.77673828 3.44699219 14.77673828 2.8828125 15.82421875 C0.16301407 20.83698593 0.16301407 20.83698593 -1 22 C-2.66617115 22.04063832 -4.33388095 22.042721 -6 22 C-6.66 20.68 -7.32 19.36 -8 18 C-4.535 17.505 -4.535 17.505 -1 17 C-0.34 14.69 0.32 12.38 1 10 C-0.32 10 -1.64 10 -3 10 C-3.33 11.32 -3.66 12.64 -4 14 C-4.99 13.67 -5.98 13.34 -7 13 C-7 11.35 -7 9.7 -7 8 C-3.535 7.505 -3.535 7.505 0 7 C0.33 5.68 0.66 4.36 1 3 C0.34 3 -0.32 3 -1 3 C-0.67 2.01 -0.34 1.02 0 0 Z " fill="#355377" transform="translate(223,117)"/>
<path d="M0 0 C0.33 0 0.66 0 1 0 C1 4.95 1 9.9 1 15 C10.57 15 20.14 15 30 15 C30 15.33 30 15.66 30 16 C25.85571691 16.02488484 21.71147446 16.04294686 17.56713867 16.05493164 C16.15990439 16.0599327 14.75267523 16.0667357 13.34545898 16.07543945 C11.31232431 16.08769159 9.27925886 16.0932707 7.24609375 16.09765625 C6.02591553 16.10289307 4.8057373 16.10812988 3.54858398 16.11352539 C-5.49716349 15.82413615 -5.49716349 15.82413615 -8.9375 13.9375 C-10.69959328 10.72427107 -10.17782537 7.6157826 -10 4 C-6.91190305 2.23537317 -5.76687864 2 -2 2 C-2.33 3.32 -2.66 4.64 -3 6 C-2.01 5.67 -1.02 5.34 0 5 C0 3.35 0 1.7 0 0 Z " fill="#587291" transform="translate(152,121)"/>
<path d="M0 0 C1.32 0.33 2.64 0.66 4 1 C4.06058594 1.63808594 4.12117187 2.27617188 4.18359375 2.93359375 C4.26738281 3.75988281 4.35117188 4.58617187 4.4375 5.4375 C4.51871094 6.26121094 4.59992188 7.08492187 4.68359375 7.93359375 C4.78930815 9.98662025 4.78930815 9.98662025 6 11 C6.44926708 14.95355026 6.30871428 16.55622323 4 19.875 C3.34 20.57625 2.68 21.2775 2 22 C-2.875 21.125 -2.875 21.125 -4 20 C-4.07205511 18.31391034 -4.08386068 16.62499341 -4.0625 14.9375 C-4.05347656 14.01839844 -4.04445312 13.09929687 -4.03515625 12.15234375 C-4.02355469 11.44207031 -4.01195312 10.73179687 -4 10 C-3.01 10 -2.02 10 -1 10 C-0.67 6.7 -0.34 3.4 0 0 Z " fill="#355479" transform="translate(239,125)"/>
<path d="M0 0 C0.33 0.99 0.66 1.98 1 3 C3.01508358 3.73323796 3.01508358 3.73323796 5 4 C5.05411124 6.41696872 5.09372278 8.83271787 5.125 11.25 C5.15013672 12.27287109 5.15013672 12.27287109 5.17578125 13.31640625 C5.21185049 17.0315375 5.18812735 19.90907884 3 23 C0.59454362 24.20272819 -0.94996953 24.10071472 -3.625 24.0625 C-4.85089844 24.04896484 -4.85089844 24.04896484 -6.1015625 24.03515625 C-6.72804688 24.02355469 -7.35453125 24.01195312 -8 24 C-7.21625 23.13375 -6.4325 22.2675 -5.625 21.375 C-0.43718176 15.04410317 -0.48498424 7.88737522 0 0 Z " fill="#456182" transform="translate(123,111)"/>
<path d="M0 0 C6.41459227 1.45236052 6.41459227 1.45236052 8.9375 3.8125 C10.18689961 6.38479331 10.23546771 8.17438742 10 11 C6.26562152 11.87867729 2.83225427 12.08912219 -1 12 C-1.92470553 7.28400182 -2.22923777 4.32734391 0 0 Z " fill="#466285" transform="translate(227,104)"/>
<path d="M0 0 C0.66 0.33 1.32 0.66 2 1 C1.67 10.24 1.34 19.48 1 29 C0.67 29 0.34 29 0 29 C-0.33 26.03 -0.66 23.06 -1 20 C-2.98 20 -4.96 20 -7 20 C-7 18.68 -7 17.36 -7 16 C-5.68 16 -4.36 16 -3 16 C-3.04125 14.906875 -3.0825 13.81375 -3.125 12.6875 C-3 9 -3 9 -1 6 C-0.60986284 4.0103005 -0.26797351 2.00980131 0 0 Z " fill="#496688" transform="translate(204,115)"/>
<path d="M0 0 C0.33 0 0.66 0 1 0 C1.02688151 1.64574566 1.04634123 3.29161413 1.0625 4.9375 C1.07410156 5.85402344 1.08570313 6.77054687 1.09765625 7.71484375 C1 10 1 10 0 11 C-0.23075082 12.34747084 -0.41153063 13.70377565 -0.5625 15.0625 C-0.706875 16.361875 -0.85125 17.66125 -1 19 C-4.01031744 19.93423645 -4.86650268 20.04449911 -8 19 C-6.60121198 14.53202662 -4.86369228 10.36177921 -2.875 6.125 C-2.33617187 4.97257812 -1.79734375 3.82015625 -1.2421875 2.6328125 C-0.62730469 1.32957031 -0.62730469 1.32957031 0 0 Z " fill="#E9EFF0" transform="translate(233,116)"/>
<path d="M0 0 C1 2 1 2 1 6 C2.98 6 4.96 6 7 6 C7.33 6.99 7.66 7.98 8 9 C7.01 10.485 7.01 10.485 6 12 C3.375 12.1875 3.375 12.1875 1 12 C0.67 12.99 0.34 13.98 0 15 C-2.7330836 12.63960962 -4.00684499 10.47604252 -5 7 C-4.625 4.1875 -4.625 4.1875 -4 2 C-3.67 2 -3.34 2 -3 2 C-2.34 3.98 -1.68 5.96 -1 8 C-0.67 8 -0.34 8 0 8 C-0.33 7.67 -0.66 7.34 -1 7 C-1.125 4 -1.125 4 -1 1 C-0.67 0.67 -0.34 0.34 0 0 Z " fill="#E2804B" transform="translate(262,124)"/>
<path d="M0 0 C2 3 2 3 2 5 C6.455 4.505 6.455 4.505 11 4 C11 13.24 11 22.48 11 32 C10.67 32 10.34 32 10 32 C9.67 23.75 9.34 15.5 9 7 C5.37 7 1.74 7 -2 7 C-1.34 4.69 -0.68 2.38 0 0 Z " fill="#6A819C" transform="translate(224,111)"/>
<path d="M0 0 C0.66 0 1.32 0 2 0 C2 0.99 2 1.98 2 3 C2.99 3 3.98 3 5 3 C5 3.66 5 4.32 5 5 C4.01 5 3.02 5 2 5 C2.33 7.64 2.66 10.28 3 13 C4.32 13 5.64 13 7 13 C7.33 12.01 7.66 11.02 8 10 C8.66 10 9.32 10 10 10 C9.125 14.875 9.125 14.875 8 16 C4.5 15.6875 4.5 15.6875 1 15 C-0.44207941 12.11584117 -0.09394887 9.58278472 -0.0625 6.375 C-0.05347656 5.18648438 -0.04445312 3.99796875 -0.03515625 2.7734375 C-0.02355469 1.85820313 -0.01195312 0.94296875 0 0 Z " fill="#355478" transform="translate(213,118)"/>
<path d="M0 0 C0.5625 1.9375 0.5625 1.9375 1 4 C0 5 0 5 -2.28515625 5.09765625 C-3.65994141 5.08025391 -3.65994141 5.08025391 -5.0625 5.0625 C-5.98160156 5.05347656 -6.90070312 5.04445312 -7.84765625 5.03515625 C-8.55792969 5.02355469 -9.26820313 5.01195312 -10 5 C-7.62417533 -0.26075462 -5.61350876 -0.1220328 0 0 Z " fill="#F6FAFE" transform="translate(752,123)"/>
<path d="M0 0 C0.9075 0.103125 1.815 0.20625 2.75 0.3125 C3.3125 2.25 3.3125 2.25 3.75 4.3125 C2.75 5.3125 2.75 5.3125 0.46484375 5.41015625 C-0.90994141 5.39275391 -0.90994141 5.39275391 -2.3125 5.375 C-3.23160156 5.36597656 -4.15070312 5.35695312 -5.09765625 5.34765625 C-5.80792969 5.33605469 -6.51820313 5.32445312 -7.25 5.3125 C-4.05 0.38942308 -4.05 0.38942308 0 0 Z " fill="#FBFDFE" transform="translate(547.25,122.6875)"/>
<path d="M0 0 C2.35953094 2.35953094 2.49141413 3.77895617 3 7 C2.01 7 1.02 7 0 7 C0 6.01 0 5.02 0 4 C-0.66 4 -1.32 4 -2 4 C-1.85890014 6.10448938 -1.71195825 8.2085877 -1.5625 10.3125 C-1.44068359 12.07013672 -1.44068359 12.07013672 -1.31640625 13.86328125 C-1.1132629 17.02590958 -1.1132629 17.02590958 0 20 C-0.66 20.33 -1.32 20.66 -2 21 C-4.06440531 16.8160335 -4.0902668 13.79364129 -3.625 9.1875 C-3.51414063 8.02605469 -3.40328125 6.86460938 -3.2890625 5.66796875 C-3.19367188 4.78753906 -3.09828125 3.90710938 -3 3 C-2.01 2.67 -1.02 2.34 0 2 C0 1.34 0 0.68 0 0 Z " fill="#566E8D" transform="translate(215,114)"/>
<path d="M0 0 C2.625 -0.1875 2.625 -0.1875 5 0 C5.33 1.65 5.66 3.3 6 5 C3.6875 5.6875 3.6875 5.6875 1 6 C-0.8125 4.5625 -0.8125 4.5625 -2 3 C-1.34 2.01 -0.68 1.02 0 0 Z " fill="#F1EEEA" transform="translate(273,130)"/>
<path d="M0 0 C0.99 0.495 0.99 0.495 2 1 C2.6328125 3.06640625 2.6328125 3.06640625 3.125 5.5625 C3.29257813 6.38878906 3.46015625 7.21507813 3.6328125 8.06640625 C3.75398437 8.70449219 3.87515625 9.34257813 4 10 C3.34 10 2.68 10 2 10 C1.67 13.3 1.34 16.6 1 20 C0.67 20 0.34 20 0 20 C0 13.4 0 6.8 0 0 Z " fill="#DCE5E8" transform="translate(205,116)"/>
<path d="M0 0 C1.98 0 3.96 0 6 0 C5.01 1.98 4.02 3.96 3 6 C2.01 5.67 1.02 5.34 0 5 C0 3.35 0 1.7 0 0 Z " fill="#325176" transform="translate(216,125)"/>
<path d="M0 0 C1.98 0.495 1.98 0.495 4 1 C2.68 3.64 1.36 6.28 0 9 C-0.33 9 -0.66 9 -1 9 C-1.09765625 2.84765625 -1.09765625 2.84765625 -1 1 C-0.67 0.67 -0.34 0.34 0 0 Z " fill="#4E6487" transform="translate(228,120)"/>
<path d="M0 0 C0.33 0.66 0.66 1.32 1 2 C0.22265625 4.1640625 0.22265625 4.1640625 -0.9375 6.625 C-1.31777344 7.44226563 -1.69804687 8.25953125 -2.08984375 9.1015625 C-2.39019531 9.72804688 -2.69054687 10.35453125 -3 11 C-3.33 11 -3.66 11 -4 11 C-4.49230769 4.6 -4.49230769 4.6 -2 1.5625 C-1.34 1.046875 -0.68 0.53125 0 0 Z " fill="#E4EBEE" transform="translate(226,105)"/>
<path d="M0 0 C1.55932272 3.11864545 0.65549131 5.66295335 0 9 C-0.66 9.66 -1.32 10.32 -2 11 C-2.25 3.375 -2.25 3.375 0 0 Z " fill="#4F6889" transform="translate(132,122)"/>
<path d="M0 0 C0.33 0.66 0.66 1.32 1 2 C1.66 2 2.32 2 3 2 C2.67 3.65 2.34 5.3 2 7 C0.02 7 -1.96 7 -4 7 C-2.68 6.67 -1.36 6.34 0 6 C0 4.02 0 2.04 0 0 Z " fill="#486285" transform="translate(221,118)"/>
<path d="M0 0 C1.32 0 2.64 0 4 0 C3.34 1.32 2.68 2.64 2 4 C1.34 3.67 0.68 3.34 0 3 C-0.66 4.32 -1.32 5.64 -2 7 C-2.125 4.625 -2.125 4.625 -2 2 C-1.34 1.34 -0.68 0.68 0 0 Z " fill="#48658B" transform="translate(146,123)"/>
<path d="M0 0 C0.33 0 0.66 0 1 0 C2.125 3.3125 2.125 3.3125 3 7 C2.01 8.485 2.01 8.485 1 10 C-0.83691257 6.21812119 -1.15837626 4.05431692 0 0 Z " fill="#DD895E" transform="translate(258,126)"/>
</svg>
